%TF.GenerationSoftware,KiCad,Pcbnew,5.0.2-bee76a0~70~ubuntu18.10.1*%
%TF.CreationDate,2019-11-25T23:14:33+01:00*%
%TF.ProjectId,NixieNTPClock,4e697869-654e-4545-9043-6c6f636b2e6b,rev?*%
%TF.SameCoordinates,Original*%
%TF.FileFunction,Paste,Top*%
%TF.FilePolarity,Positive*%
%FSLAX46Y46*%
G04 Gerber Fmt 4.6, Leading zero omitted, Abs format (unit mm)*
G04 Created by KiCad (PCBNEW 5.0.2-bee76a0~70~ubuntu18.10.1) date lun. 25 nov. 2019 23:14:33 CET*
%MOMM*%
%LPD*%
G01*
G04 APERTURE LIST*
%ADD10C,0.050000*%
%ADD11R,2.300000X3.500000*%
%ADD12R,1.700000X2.000000*%
%ADD13R,0.800000X0.600000*%
%ADD14R,3.000000X1.600000*%
%ADD15R,4.000000X2.500000*%
%ADD16R,1.250000X1.500000*%
%ADD17R,0.750000X1.200000*%
%ADD18R,1.500000X1.250000*%
%ADD19R,2.000000X1.700000*%
%ADD20R,1.600000X1.600000*%
%ADD21R,0.700000X2.000000*%
%ADD22R,3.500000X1.600000*%
%ADD23R,1.600000X3.000000*%
%ADD24R,5.000000X3.850000*%
%ADD25R,1.501140X5.300980*%
%ADD26R,2.750000X3.050000*%
%ADD27R,1.200000X2.200000*%
%ADD28R,2.000000X1.500000*%
%ADD29R,2.000000X3.800000*%
%ADD30C,0.100000*%
%ADD31C,15.000000*%
%ADD32R,0.600000X1.500000*%
%ADD33R,0.650000X1.060000*%
G04 APERTURE END LIST*
D10*
X61722000Y-124460000D02*
X61722000Y-47244000D01*
X243078000Y-124460000D02*
X61722000Y-124460000D01*
X243078000Y-47244000D02*
X243078000Y-124460000D01*
X61722000Y-47244000D02*
X243078000Y-47244000D01*
D11*
X66548000Y-63434000D03*
X66548000Y-68834000D03*
D12*
X66548000Y-73660000D03*
X66548000Y-77660000D03*
D13*
X70866000Y-77724000D03*
X70866000Y-76024000D03*
D14*
X83226000Y-109728000D03*
X78826000Y-109728000D03*
X78740000Y-116586000D03*
X83140000Y-116586000D03*
D15*
X104076000Y-56896000D03*
X96076000Y-56896000D03*
D16*
X77470000Y-89114000D03*
X77470000Y-86614000D03*
D17*
X77470000Y-80960000D03*
X77470000Y-79060000D03*
D18*
X92456000Y-95250000D03*
X89956000Y-95250000D03*
D19*
X93662000Y-74422000D03*
X89662000Y-74422000D03*
X85662000Y-91440000D03*
X89662000Y-91440000D03*
D20*
X88900000Y-78994000D03*
X81280000Y-86614000D03*
X88900000Y-81534000D03*
X81280000Y-84074000D03*
X88900000Y-84074000D03*
X81280000Y-81534000D03*
X88900000Y-86614000D03*
X81280000Y-78994000D03*
D21*
X94422000Y-87786000D03*
X95372000Y-91186000D03*
X93472000Y-91186000D03*
D22*
X78166000Y-97536000D03*
X83566000Y-97536000D03*
D12*
X94488000Y-84582000D03*
X94488000Y-80582000D03*
D16*
X153162000Y-65298000D03*
X153162000Y-67798000D03*
D17*
X114046000Y-61976000D03*
X114046000Y-63876000D03*
D16*
X101600000Y-110196000D03*
X101600000Y-107696000D03*
D23*
X109474000Y-115148000D03*
X109474000Y-119548000D03*
X101600000Y-119548000D03*
X101600000Y-115148000D03*
D16*
X230378000Y-119888000D03*
X230378000Y-117388000D03*
D23*
X204216000Y-105496000D03*
X204216000Y-109896000D03*
D16*
X198120000Y-106426000D03*
X198120000Y-108926000D03*
D18*
X179364000Y-64008000D03*
X181864000Y-64008000D03*
D11*
X87122000Y-53086000D03*
X87122000Y-58486000D03*
D24*
X124714000Y-51059000D03*
X124714000Y-61209000D03*
D25*
X109474000Y-108458000D03*
X105156000Y-108458000D03*
D26*
X78740000Y-59944000D03*
X75690000Y-56594000D03*
X75690000Y-59944000D03*
X78740000Y-56594000D03*
D27*
X79495000Y-64569000D03*
X74935000Y-64569000D03*
D28*
X104038000Y-72884000D03*
X104038000Y-77484000D03*
X104038000Y-75184000D03*
D29*
X110338000Y-75184000D03*
X137566000Y-75184000D03*
D28*
X143866000Y-75184000D03*
X143866000Y-72884000D03*
X143866000Y-77484000D03*
D29*
X167132000Y-75184000D03*
D28*
X160832000Y-75184000D03*
X160832000Y-77484000D03*
X160832000Y-72884000D03*
X200864000Y-77484000D03*
X200864000Y-72884000D03*
X200864000Y-75184000D03*
D29*
X194564000Y-75184000D03*
D12*
X114046000Y-58674000D03*
X114046000Y-54674000D03*
X74930000Y-74168000D03*
X74930000Y-70168000D03*
D19*
X97282000Y-65024000D03*
X101282000Y-65024000D03*
X97346000Y-68326000D03*
X101346000Y-68326000D03*
X106934000Y-67564000D03*
X110934000Y-67564000D03*
D12*
X92710000Y-100616000D03*
X92710000Y-104616000D03*
D19*
X95186999Y-115866999D03*
X91186999Y-115866999D03*
X91186000Y-112014000D03*
X95186000Y-112014000D03*
D12*
X99568000Y-73216000D03*
X99568000Y-77216000D03*
X148590000Y-77216000D03*
X148590000Y-73216000D03*
D19*
X232156000Y-113792000D03*
X236156000Y-113792000D03*
D12*
X156210000Y-77216000D03*
X156210000Y-73216000D03*
X205232000Y-73152000D03*
X205232000Y-77152000D03*
D30*
G36*
X179017564Y-106056057D02*
X179381589Y-106110055D01*
X179738568Y-106199474D01*
X180085063Y-106323452D01*
X180417738Y-106480795D01*
X180733388Y-106669989D01*
X181028975Y-106889211D01*
X181301650Y-107136350D01*
X181548789Y-107409025D01*
X181768011Y-107704612D01*
X181957205Y-108020262D01*
X182114548Y-108352937D01*
X182238526Y-108699432D01*
X182327945Y-109056411D01*
X182381943Y-109420436D01*
X182400000Y-109788000D01*
X182400000Y-117288000D01*
X182381943Y-117655564D01*
X182327945Y-118019589D01*
X182238526Y-118376568D01*
X182114548Y-118723063D01*
X181957205Y-119055738D01*
X181768011Y-119371388D01*
X181548789Y-119666975D01*
X181301650Y-119939650D01*
X181028975Y-120186789D01*
X180733388Y-120406011D01*
X180417738Y-120595205D01*
X180085063Y-120752548D01*
X179738568Y-120876526D01*
X179381589Y-120965945D01*
X179017564Y-121019943D01*
X178650000Y-121038000D01*
X126150000Y-121038000D01*
X125782436Y-121019943D01*
X125418411Y-120965945D01*
X125061432Y-120876526D01*
X124714937Y-120752548D01*
X124382262Y-120595205D01*
X124066612Y-120406011D01*
X123771025Y-120186789D01*
X123498350Y-119939650D01*
X123251211Y-119666975D01*
X123031989Y-119371388D01*
X122842795Y-119055738D01*
X122685452Y-118723063D01*
X122561474Y-118376568D01*
X122472055Y-118019589D01*
X122418057Y-117655564D01*
X122400000Y-117288000D01*
X122400000Y-109788000D01*
X122418057Y-109420436D01*
X122472055Y-109056411D01*
X122561474Y-108699432D01*
X122685452Y-108352937D01*
X122842795Y-108020262D01*
X123031989Y-107704612D01*
X123251211Y-107409025D01*
X123498350Y-107136350D01*
X123771025Y-106889211D01*
X124066612Y-106669989D01*
X124382262Y-106480795D01*
X124714937Y-106323452D01*
X125061432Y-106199474D01*
X125418411Y-106110055D01*
X125782436Y-106056057D01*
X126150000Y-106038000D01*
X178650000Y-106038000D01*
X179017564Y-106056057D01*
X179017564Y-106056057D01*
G37*
D31*
X152400000Y-113538000D03*
D32*
X156464000Y-63848000D03*
X157734000Y-63848000D03*
X159004000Y-63848000D03*
X160274000Y-63848000D03*
X161544000Y-63848000D03*
X162814000Y-63848000D03*
X164084000Y-63848000D03*
X164084000Y-69248000D03*
X162814000Y-69248000D03*
X161544000Y-69248000D03*
X160274000Y-69248000D03*
X159004000Y-69248000D03*
X157734000Y-69248000D03*
X156464000Y-69248000D03*
D33*
X99060000Y-102954000D03*
X100010000Y-102954000D03*
X98110000Y-102954000D03*
X98110000Y-100754000D03*
X99060000Y-100754000D03*
X100010000Y-100754000D03*
M02*
