%TF.GenerationSoftware,KiCad,Pcbnew,5.0.2-bee76a0~70~ubuntu18.10.1*%
%TF.CreationDate,2019-11-25T23:14:33+01:00*%
%TF.ProjectId,NixieNTPClock,4e697869-654e-4545-9043-6c6f636b2e6b,rev?*%
%TF.SameCoordinates,Original*%
%TF.FileFunction,Soldermask,Top*%
%TF.FilePolarity,Negative*%
%FSLAX46Y46*%
G04 Gerber Fmt 4.6, Leading zero omitted, Abs format (unit mm)*
G04 Created by KiCad (PCBNEW 5.0.2-bee76a0~70~ubuntu18.10.1) date lun. 25 nov. 2019 23:14:33 CET*
%MOMM*%
%LPD*%
G01*
G04 APERTURE LIST*
%ADD10C,0.050000*%
%ADD11C,0.100000*%
G04 APERTURE END LIST*
D10*
X61722000Y-124460000D02*
X61722000Y-47244000D01*
X243078000Y-124460000D02*
X61722000Y-124460000D01*
X243078000Y-47244000D02*
X243078000Y-124460000D01*
X61722000Y-47244000D02*
X243078000Y-47244000D01*
D11*
G36*
X222126399Y-113747499D02*
X223000125Y-114109408D01*
X223786462Y-114634822D01*
X224455178Y-115303538D01*
X224980592Y-116089875D01*
X225342501Y-116963601D01*
X225527000Y-117891141D01*
X225527000Y-118836859D01*
X225342501Y-119764399D01*
X224980592Y-120638125D01*
X224455178Y-121424462D01*
X223786462Y-122093178D01*
X223000125Y-122618592D01*
X222126399Y-122980501D01*
X221198859Y-123165000D01*
X220253141Y-123165000D01*
X219325601Y-122980501D01*
X218451875Y-122618592D01*
X217665538Y-122093178D01*
X216996822Y-121424462D01*
X216471408Y-120638125D01*
X216109499Y-119764399D01*
X215925000Y-118836859D01*
X215925000Y-117891141D01*
X216109499Y-116963601D01*
X216471408Y-116089875D01*
X216996822Y-115303538D01*
X217665538Y-114634822D01*
X218451875Y-114109408D01*
X219325601Y-113747499D01*
X220253141Y-113563000D01*
X221198859Y-113563000D01*
X222126399Y-113747499D01*
X222126399Y-113747499D01*
G37*
G36*
X69218399Y-113747499D02*
X70092125Y-114109408D01*
X70878462Y-114634822D01*
X71547178Y-115303538D01*
X72072592Y-116089875D01*
X72434501Y-116963601D01*
X72619000Y-117891141D01*
X72619000Y-118836859D01*
X72434501Y-119764399D01*
X72072592Y-120638125D01*
X71547178Y-121424462D01*
X70878462Y-122093178D01*
X70092125Y-122618592D01*
X69218399Y-122980501D01*
X68290859Y-123165000D01*
X67345141Y-123165000D01*
X66417601Y-122980501D01*
X65543875Y-122618592D01*
X64757538Y-122093178D01*
X64088822Y-121424462D01*
X63563408Y-120638125D01*
X63201499Y-119764399D01*
X63017000Y-118836859D01*
X63017000Y-117891141D01*
X63201499Y-116963601D01*
X63563408Y-116089875D01*
X64088822Y-115303538D01*
X64757538Y-114634822D01*
X65543875Y-114109408D01*
X66417601Y-113747499D01*
X67345141Y-113563000D01*
X68290859Y-113563000D01*
X69218399Y-113747499D01*
X69218399Y-113747499D01*
G37*
G36*
X102451000Y-121099000D02*
X100749000Y-121099000D01*
X100749000Y-117997000D01*
X102451000Y-117997000D01*
X102451000Y-121099000D01*
X102451000Y-121099000D01*
G37*
G36*
X110325000Y-121099000D02*
X108623000Y-121099000D01*
X108623000Y-117997000D01*
X110325000Y-117997000D01*
X110325000Y-121099000D01*
X110325000Y-121099000D01*
G37*
G36*
X179462249Y-106058937D02*
X180158674Y-106270195D01*
X180800498Y-106613258D01*
X181363060Y-107074940D01*
X181824742Y-107637502D01*
X182167805Y-108279326D01*
X182379063Y-108975751D01*
X182451000Y-109706140D01*
X182451000Y-117369860D01*
X182379063Y-118100249D01*
X182167805Y-118796674D01*
X181824742Y-119438498D01*
X181363060Y-120001060D01*
X180800498Y-120462742D01*
X180158674Y-120805805D01*
X179462249Y-121017063D01*
X178731860Y-121089000D01*
X126068140Y-121089000D01*
X125337751Y-121017063D01*
X124641326Y-120805805D01*
X123999502Y-120462742D01*
X123436940Y-120001060D01*
X122975258Y-119438498D01*
X122632195Y-118796674D01*
X122420937Y-118100249D01*
X122349000Y-117369860D01*
X122349000Y-109706140D01*
X122420937Y-108975751D01*
X122632195Y-108279326D01*
X122975258Y-107637502D01*
X123436940Y-107074940D01*
X123999502Y-106613258D01*
X124641326Y-106270195D01*
X125337751Y-106058937D01*
X126068140Y-105987000D01*
X178731860Y-105987000D01*
X179462249Y-106058937D01*
X179462249Y-106058937D01*
G37*
G36*
X231054000Y-120689000D02*
X229702000Y-120689000D01*
X229702000Y-119087000D01*
X231054000Y-119087000D01*
X231054000Y-120689000D01*
X231054000Y-120689000D01*
G37*
G36*
X239571000Y-119175000D02*
X237949000Y-119175000D01*
X237949000Y-117553000D01*
X239571000Y-117553000D01*
X239571000Y-119175000D01*
X239571000Y-119175000D01*
G37*
G36*
X233916560Y-117584166D02*
X234064153Y-117645301D01*
X234195213Y-117732873D01*
X234196985Y-117734057D01*
X234309943Y-117847015D01*
X234309945Y-117847018D01*
X234398699Y-117979847D01*
X234459834Y-118127440D01*
X234491000Y-118284123D01*
X234491000Y-118443877D01*
X234459834Y-118600560D01*
X234398699Y-118748153D01*
X234339427Y-118836859D01*
X234309943Y-118880985D01*
X234196985Y-118993943D01*
X234196982Y-118993945D01*
X234064153Y-119082699D01*
X234064152Y-119082700D01*
X234064151Y-119082700D01*
X233916560Y-119143834D01*
X233759878Y-119175000D01*
X233600122Y-119175000D01*
X233443440Y-119143834D01*
X233295849Y-119082700D01*
X233295848Y-119082700D01*
X233295847Y-119082699D01*
X233163018Y-118993945D01*
X233163015Y-118993943D01*
X233050057Y-118880985D01*
X233020573Y-118836859D01*
X232961301Y-118748153D01*
X232900166Y-118600560D01*
X232869000Y-118443877D01*
X232869000Y-118284123D01*
X232900166Y-118127440D01*
X232961301Y-117979847D01*
X233050055Y-117847018D01*
X233050057Y-117847015D01*
X233163015Y-117734057D01*
X233164787Y-117732873D01*
X233295847Y-117645301D01*
X233443440Y-117584166D01*
X233600122Y-117553000D01*
X233759878Y-117553000D01*
X233916560Y-117584166D01*
X233916560Y-117584166D01*
G37*
G36*
X236456560Y-117584166D02*
X236604153Y-117645301D01*
X236735213Y-117732873D01*
X236736985Y-117734057D01*
X236849943Y-117847015D01*
X236849945Y-117847018D01*
X236938699Y-117979847D01*
X236999834Y-118127440D01*
X237031000Y-118284123D01*
X237031000Y-118443877D01*
X236999834Y-118600560D01*
X236938699Y-118748153D01*
X236879427Y-118836859D01*
X236849943Y-118880985D01*
X236736985Y-118993943D01*
X236736982Y-118993945D01*
X236604153Y-119082699D01*
X236604152Y-119082700D01*
X236604151Y-119082700D01*
X236456560Y-119143834D01*
X236299878Y-119175000D01*
X236140122Y-119175000D01*
X235983440Y-119143834D01*
X235835849Y-119082700D01*
X235835848Y-119082700D01*
X235835847Y-119082699D01*
X235703018Y-118993945D01*
X235703015Y-118993943D01*
X235590057Y-118880985D01*
X235560573Y-118836859D01*
X235501301Y-118748153D01*
X235440166Y-118600560D01*
X235409000Y-118443877D01*
X235409000Y-118284123D01*
X235440166Y-118127440D01*
X235501301Y-117979847D01*
X235590055Y-117847018D01*
X235590057Y-117847015D01*
X235703015Y-117734057D01*
X235704787Y-117732873D01*
X235835847Y-117645301D01*
X235983440Y-117584166D01*
X236140122Y-117553000D01*
X236299878Y-117553000D01*
X236456560Y-117584166D01*
X236456560Y-117584166D01*
G37*
G36*
X231054000Y-118189000D02*
X229702000Y-118189000D01*
X229702000Y-116587000D01*
X231054000Y-116587000D01*
X231054000Y-118189000D01*
X231054000Y-118189000D01*
G37*
G36*
X80291000Y-117437000D02*
X77189000Y-117437000D01*
X77189000Y-115735000D01*
X80291000Y-115735000D01*
X80291000Y-117437000D01*
X80291000Y-117437000D01*
G37*
G36*
X84691000Y-117437000D02*
X81589000Y-117437000D01*
X81589000Y-115735000D01*
X84691000Y-115735000D01*
X84691000Y-117437000D01*
X84691000Y-117437000D01*
G37*
G36*
X96237999Y-116767999D02*
X94135999Y-116767999D01*
X94135999Y-114965999D01*
X96237999Y-114965999D01*
X96237999Y-116767999D01*
X96237999Y-116767999D01*
G37*
G36*
X92237999Y-116767999D02*
X90135999Y-116767999D01*
X90135999Y-114965999D01*
X92237999Y-114965999D01*
X92237999Y-116767999D01*
X92237999Y-116767999D01*
G37*
G36*
X102451000Y-116699000D02*
X100749000Y-116699000D01*
X100749000Y-113597000D01*
X102451000Y-113597000D01*
X102451000Y-116699000D01*
X102451000Y-116699000D01*
G37*
G36*
X110325000Y-116699000D02*
X108623000Y-116699000D01*
X108623000Y-113597000D01*
X110325000Y-113597000D01*
X110325000Y-116699000D01*
X110325000Y-116699000D01*
G37*
G36*
X237207000Y-114693000D02*
X235105000Y-114693000D01*
X235105000Y-112891000D01*
X237207000Y-112891000D01*
X237207000Y-114693000D01*
X237207000Y-114693000D01*
G37*
G36*
X233207000Y-114693000D02*
X231105000Y-114693000D01*
X231105000Y-112891000D01*
X233207000Y-112891000D01*
X233207000Y-114693000D01*
X233207000Y-114693000D01*
G37*
G36*
X96237000Y-112915000D02*
X94135000Y-112915000D01*
X94135000Y-111113000D01*
X96237000Y-111113000D01*
X96237000Y-112915000D01*
X96237000Y-112915000D01*
G37*
G36*
X92237000Y-112915000D02*
X90135000Y-112915000D01*
X90135000Y-111113000D01*
X92237000Y-111113000D01*
X92237000Y-112915000D01*
X92237000Y-112915000D01*
G37*
G36*
X205067000Y-111447000D02*
X203365000Y-111447000D01*
X203365000Y-108345000D01*
X205067000Y-108345000D01*
X205067000Y-111447000D01*
X205067000Y-111447000D01*
G37*
G36*
X105957570Y-111159490D02*
X104354430Y-111159490D01*
X104354430Y-105756510D01*
X105957570Y-105756510D01*
X105957570Y-111159490D01*
X105957570Y-111159490D01*
G37*
G36*
X110275570Y-111159490D02*
X108672430Y-111159490D01*
X108672430Y-105756510D01*
X110275570Y-105756510D01*
X110275570Y-111159490D01*
X110275570Y-111159490D01*
G37*
G36*
X102276000Y-110997000D02*
X100924000Y-110997000D01*
X100924000Y-109395000D01*
X102276000Y-109395000D01*
X102276000Y-110997000D01*
X102276000Y-110997000D01*
G37*
G36*
X84777000Y-110579000D02*
X81675000Y-110579000D01*
X81675000Y-108877000D01*
X84777000Y-108877000D01*
X84777000Y-110579000D01*
X84777000Y-110579000D01*
G37*
G36*
X80377000Y-110579000D02*
X77275000Y-110579000D01*
X77275000Y-108877000D01*
X80377000Y-108877000D01*
X80377000Y-110579000D01*
X80377000Y-110579000D01*
G37*
G36*
X198796000Y-109727000D02*
X197444000Y-109727000D01*
X197444000Y-108125000D01*
X198796000Y-108125000D01*
X198796000Y-109727000D01*
X198796000Y-109727000D01*
G37*
G36*
X102276000Y-108497000D02*
X100924000Y-108497000D01*
X100924000Y-106895000D01*
X102276000Y-106895000D01*
X102276000Y-108497000D01*
X102276000Y-108497000D01*
G37*
G36*
X238975993Y-105874203D02*
X239040414Y-105893744D01*
X239099776Y-105925475D01*
X239151817Y-105968183D01*
X239194525Y-106020224D01*
X239226256Y-106079586D01*
X239245797Y-106144007D01*
X239253000Y-106217141D01*
X239253000Y-107142859D01*
X239245797Y-107215993D01*
X239226256Y-107280414D01*
X239194525Y-107339776D01*
X239151817Y-107391817D01*
X239099776Y-107434525D01*
X239040414Y-107466256D01*
X238975993Y-107485797D01*
X238902859Y-107493000D01*
X237601141Y-107493000D01*
X237528007Y-107485797D01*
X237463586Y-107466256D01*
X237404224Y-107434525D01*
X237352183Y-107391817D01*
X237309475Y-107339776D01*
X237277744Y-107280414D01*
X237258203Y-107215993D01*
X237251000Y-107142859D01*
X237251000Y-106217141D01*
X237258203Y-106144007D01*
X237277744Y-106079586D01*
X237309475Y-106020224D01*
X237352183Y-105968183D01*
X237404224Y-105925475D01*
X237463586Y-105893744D01*
X237528007Y-105874203D01*
X237601141Y-105867000D01*
X238902859Y-105867000D01*
X238975993Y-105874203D01*
X238975993Y-105874203D01*
G37*
G36*
X213575993Y-105874203D02*
X213640414Y-105893744D01*
X213699776Y-105925475D01*
X213751817Y-105968183D01*
X213794525Y-106020224D01*
X213826256Y-106079586D01*
X213845797Y-106144007D01*
X213853000Y-106217141D01*
X213853000Y-107142859D01*
X213845797Y-107215993D01*
X213826256Y-107280414D01*
X213794525Y-107339776D01*
X213751817Y-107391817D01*
X213699776Y-107434525D01*
X213640414Y-107466256D01*
X213575993Y-107485797D01*
X213502859Y-107493000D01*
X212201141Y-107493000D01*
X212128007Y-107485797D01*
X212063586Y-107466256D01*
X212004224Y-107434525D01*
X211952183Y-107391817D01*
X211909475Y-107339776D01*
X211877744Y-107280414D01*
X211858203Y-107215993D01*
X211851000Y-107142859D01*
X211851000Y-106217141D01*
X211858203Y-106144007D01*
X211877744Y-106079586D01*
X211909475Y-106020224D01*
X211952183Y-105968183D01*
X212004224Y-105925475D01*
X212063586Y-105893744D01*
X212128007Y-105874203D01*
X212201141Y-105867000D01*
X213502859Y-105867000D01*
X213575993Y-105874203D01*
X213575993Y-105874203D01*
G37*
G36*
X198796000Y-107227000D02*
X197444000Y-107227000D01*
X197444000Y-105625000D01*
X198796000Y-105625000D01*
X198796000Y-107227000D01*
X198796000Y-107227000D01*
G37*
G36*
X205067000Y-107047000D02*
X203365000Y-107047000D01*
X203365000Y-103945000D01*
X205067000Y-103945000D01*
X205067000Y-107047000D01*
X205067000Y-107047000D01*
G37*
G36*
X93611000Y-105667000D02*
X91809000Y-105667000D01*
X91809000Y-103565000D01*
X93611000Y-103565000D01*
X93611000Y-105667000D01*
X93611000Y-105667000D01*
G37*
G36*
X238975993Y-103334203D02*
X239040414Y-103353744D01*
X239099776Y-103385475D01*
X239151817Y-103428183D01*
X239194525Y-103480224D01*
X239226256Y-103539586D01*
X239245797Y-103604007D01*
X239253000Y-103677141D01*
X239253000Y-104602859D01*
X239245797Y-104675993D01*
X239226256Y-104740414D01*
X239194525Y-104799776D01*
X239151817Y-104851817D01*
X239099776Y-104894525D01*
X239040414Y-104926256D01*
X238975993Y-104945797D01*
X238902859Y-104953000D01*
X237601141Y-104953000D01*
X237528007Y-104945797D01*
X237463586Y-104926256D01*
X237404224Y-104894525D01*
X237352183Y-104851817D01*
X237309475Y-104799776D01*
X237277744Y-104740414D01*
X237258203Y-104675993D01*
X237251000Y-104602859D01*
X237251000Y-103677141D01*
X237258203Y-103604007D01*
X237277744Y-103539586D01*
X237309475Y-103480224D01*
X237352183Y-103428183D01*
X237404224Y-103385475D01*
X237463586Y-103353744D01*
X237528007Y-103334203D01*
X237601141Y-103327000D01*
X238902859Y-103327000D01*
X238975993Y-103334203D01*
X238975993Y-103334203D01*
G37*
G36*
X213575993Y-103334203D02*
X213640414Y-103353744D01*
X213699776Y-103385475D01*
X213751817Y-103428183D01*
X213794525Y-103480224D01*
X213826256Y-103539586D01*
X213845797Y-103604007D01*
X213853000Y-103677141D01*
X213853000Y-104602859D01*
X213845797Y-104675993D01*
X213826256Y-104740414D01*
X213794525Y-104799776D01*
X213751817Y-104851817D01*
X213699776Y-104894525D01*
X213640414Y-104926256D01*
X213575993Y-104945797D01*
X213502859Y-104953000D01*
X212201141Y-104953000D01*
X212128007Y-104945797D01*
X212063586Y-104926256D01*
X212004224Y-104894525D01*
X211952183Y-104851817D01*
X211909475Y-104799776D01*
X211877744Y-104740414D01*
X211858203Y-104675993D01*
X211851000Y-104602859D01*
X211851000Y-103677141D01*
X211858203Y-103604007D01*
X211877744Y-103539586D01*
X211909475Y-103480224D01*
X211952183Y-103428183D01*
X212004224Y-103385475D01*
X212063586Y-103353744D01*
X212128007Y-103334203D01*
X212201141Y-103327000D01*
X213502859Y-103327000D01*
X213575993Y-103334203D01*
X213575993Y-103334203D01*
G37*
G36*
X100386000Y-103535000D02*
X97734000Y-103535000D01*
X97734000Y-102373000D01*
X100386000Y-102373000D01*
X100386000Y-103535000D01*
X100386000Y-103535000D01*
G37*
G36*
X213575993Y-100794203D02*
X213640414Y-100813744D01*
X213699776Y-100845475D01*
X213751817Y-100888183D01*
X213794525Y-100940224D01*
X213826256Y-100999586D01*
X213845797Y-101064007D01*
X213853000Y-101137141D01*
X213853000Y-102062859D01*
X213845797Y-102135993D01*
X213826256Y-102200414D01*
X213794525Y-102259776D01*
X213751817Y-102311817D01*
X213699776Y-102354525D01*
X213640414Y-102386256D01*
X213575993Y-102405797D01*
X213502859Y-102413000D01*
X212201141Y-102413000D01*
X212128007Y-102405797D01*
X212063586Y-102386256D01*
X212004224Y-102354525D01*
X211952183Y-102311817D01*
X211909475Y-102259776D01*
X211877744Y-102200414D01*
X211858203Y-102135993D01*
X211851000Y-102062859D01*
X211851000Y-101137141D01*
X211858203Y-101064007D01*
X211877744Y-100999586D01*
X211909475Y-100940224D01*
X211952183Y-100888183D01*
X212004224Y-100845475D01*
X212063586Y-100813744D01*
X212128007Y-100794203D01*
X212201141Y-100787000D01*
X213502859Y-100787000D01*
X213575993Y-100794203D01*
X213575993Y-100794203D01*
G37*
G36*
X238975993Y-100794203D02*
X239040414Y-100813744D01*
X239099776Y-100845475D01*
X239151817Y-100888183D01*
X239194525Y-100940224D01*
X239226256Y-100999586D01*
X239245797Y-101064007D01*
X239253000Y-101137141D01*
X239253000Y-102062859D01*
X239245797Y-102135993D01*
X239226256Y-102200414D01*
X239194525Y-102259776D01*
X239151817Y-102311817D01*
X239099776Y-102354525D01*
X239040414Y-102386256D01*
X238975993Y-102405797D01*
X238902859Y-102413000D01*
X237601141Y-102413000D01*
X237528007Y-102405797D01*
X237463586Y-102386256D01*
X237404224Y-102354525D01*
X237352183Y-102311817D01*
X237309475Y-102259776D01*
X237277744Y-102200414D01*
X237258203Y-102135993D01*
X237251000Y-102062859D01*
X237251000Y-101137141D01*
X237258203Y-101064007D01*
X237277744Y-100999586D01*
X237309475Y-100940224D01*
X237352183Y-100888183D01*
X237404224Y-100845475D01*
X237463586Y-100813744D01*
X237528007Y-100794203D01*
X237601141Y-100787000D01*
X238902859Y-100787000D01*
X238975993Y-100794203D01*
X238975993Y-100794203D01*
G37*
G36*
X93611000Y-101667000D02*
X91809000Y-101667000D01*
X91809000Y-99565000D01*
X93611000Y-99565000D01*
X93611000Y-101667000D01*
X93611000Y-101667000D01*
G37*
G36*
X100386000Y-101335000D02*
X97734000Y-101335000D01*
X97734000Y-100173000D01*
X100386000Y-100173000D01*
X100386000Y-101335000D01*
X100386000Y-101335000D01*
G37*
G36*
X238975993Y-98254203D02*
X239040414Y-98273744D01*
X239099776Y-98305475D01*
X239151817Y-98348183D01*
X239194525Y-98400224D01*
X239226256Y-98459586D01*
X239245797Y-98524007D01*
X239253000Y-98597141D01*
X239253000Y-99522859D01*
X239245797Y-99595993D01*
X239226256Y-99660414D01*
X239194525Y-99719776D01*
X239151817Y-99771817D01*
X239099776Y-99814525D01*
X239040414Y-99846256D01*
X238975993Y-99865797D01*
X238902859Y-99873000D01*
X237601141Y-99873000D01*
X237528007Y-99865797D01*
X237463586Y-99846256D01*
X237404224Y-99814525D01*
X237352183Y-99771817D01*
X237309475Y-99719776D01*
X237277744Y-99660414D01*
X237258203Y-99595993D01*
X237251000Y-99522859D01*
X237251000Y-98597141D01*
X237258203Y-98524007D01*
X237277744Y-98459586D01*
X237309475Y-98400224D01*
X237352183Y-98348183D01*
X237404224Y-98305475D01*
X237463586Y-98273744D01*
X237528007Y-98254203D01*
X237601141Y-98247000D01*
X238902859Y-98247000D01*
X238975993Y-98254203D01*
X238975993Y-98254203D01*
G37*
G36*
X213575993Y-98254203D02*
X213640414Y-98273744D01*
X213699776Y-98305475D01*
X213751817Y-98348183D01*
X213794525Y-98400224D01*
X213826256Y-98459586D01*
X213845797Y-98524007D01*
X213853000Y-98597141D01*
X213853000Y-99522859D01*
X213845797Y-99595993D01*
X213826256Y-99660414D01*
X213794525Y-99719776D01*
X213751817Y-99771817D01*
X213699776Y-99814525D01*
X213640414Y-99846256D01*
X213575993Y-99865797D01*
X213502859Y-99873000D01*
X212201141Y-99873000D01*
X212128007Y-99865797D01*
X212063586Y-99846256D01*
X212004224Y-99814525D01*
X211952183Y-99771817D01*
X211909475Y-99719776D01*
X211877744Y-99660414D01*
X211858203Y-99595993D01*
X211851000Y-99522859D01*
X211851000Y-98597141D01*
X211858203Y-98524007D01*
X211877744Y-98459586D01*
X211909475Y-98400224D01*
X211952183Y-98348183D01*
X212004224Y-98305475D01*
X212063586Y-98273744D01*
X212128007Y-98254203D01*
X212201141Y-98247000D01*
X213502859Y-98247000D01*
X213575993Y-98254203D01*
X213575993Y-98254203D01*
G37*
G36*
X85367000Y-98387000D02*
X81765000Y-98387000D01*
X81765000Y-96685000D01*
X85367000Y-96685000D01*
X85367000Y-98387000D01*
X85367000Y-98387000D01*
G37*
G36*
X79967000Y-98387000D02*
X76365000Y-98387000D01*
X76365000Y-96685000D01*
X79967000Y-96685000D01*
X79967000Y-98387000D01*
X79967000Y-98387000D01*
G37*
G36*
X167902812Y-95653624D02*
X168066784Y-95721544D01*
X168214354Y-95820147D01*
X168339853Y-95945646D01*
X168438456Y-96093216D01*
X168506376Y-96257188D01*
X168541000Y-96431259D01*
X168541000Y-96608741D01*
X168506376Y-96782812D01*
X168438456Y-96946784D01*
X168339853Y-97094354D01*
X168214354Y-97219853D01*
X168066784Y-97318456D01*
X167902812Y-97386376D01*
X167728741Y-97421000D01*
X167551259Y-97421000D01*
X167377188Y-97386376D01*
X167213216Y-97318456D01*
X167065646Y-97219853D01*
X166940147Y-97094354D01*
X166841544Y-96946784D01*
X166773624Y-96782812D01*
X166739000Y-96608741D01*
X166739000Y-96431259D01*
X166773624Y-96257188D01*
X166841544Y-96093216D01*
X166940147Y-95945646D01*
X167065646Y-95820147D01*
X167213216Y-95721544D01*
X167377188Y-95653624D01*
X167551259Y-95619000D01*
X167728741Y-95619000D01*
X167902812Y-95653624D01*
X167902812Y-95653624D01*
G37*
G36*
X137422812Y-95653624D02*
X137586784Y-95721544D01*
X137734354Y-95820147D01*
X137859853Y-95945646D01*
X137958456Y-96093216D01*
X138026376Y-96257188D01*
X138061000Y-96431259D01*
X138061000Y-96608741D01*
X138026376Y-96782812D01*
X137958456Y-96946784D01*
X137859853Y-97094354D01*
X137734354Y-97219853D01*
X137586784Y-97318456D01*
X137422812Y-97386376D01*
X137248741Y-97421000D01*
X137071259Y-97421000D01*
X136897188Y-97386376D01*
X136733216Y-97318456D01*
X136585646Y-97219853D01*
X136460147Y-97094354D01*
X136361544Y-96946784D01*
X136293624Y-96782812D01*
X136259000Y-96608741D01*
X136259000Y-96431259D01*
X136293624Y-96257188D01*
X136361544Y-96093216D01*
X136460147Y-95945646D01*
X136585646Y-95820147D01*
X136733216Y-95721544D01*
X136897188Y-95653624D01*
X137071259Y-95619000D01*
X137248741Y-95619000D01*
X137422812Y-95653624D01*
X137422812Y-95653624D01*
G37*
G36*
X193302812Y-95653624D02*
X193466784Y-95721544D01*
X193614354Y-95820147D01*
X193739853Y-95945646D01*
X193838456Y-96093216D01*
X193906376Y-96257188D01*
X193941000Y-96431259D01*
X193941000Y-96608741D01*
X193906376Y-96782812D01*
X193838456Y-96946784D01*
X193739853Y-97094354D01*
X193614354Y-97219853D01*
X193466784Y-97318456D01*
X193302812Y-97386376D01*
X193128741Y-97421000D01*
X192951259Y-97421000D01*
X192777188Y-97386376D01*
X192613216Y-97318456D01*
X192465646Y-97219853D01*
X192340147Y-97094354D01*
X192241544Y-96946784D01*
X192173624Y-96782812D01*
X192139000Y-96608741D01*
X192139000Y-96431259D01*
X192173624Y-96257188D01*
X192241544Y-96093216D01*
X192340147Y-95945646D01*
X192465646Y-95820147D01*
X192613216Y-95721544D01*
X192777188Y-95653624D01*
X192951259Y-95619000D01*
X193128741Y-95619000D01*
X193302812Y-95653624D01*
X193302812Y-95653624D01*
G37*
G36*
X112022812Y-95653624D02*
X112186784Y-95721544D01*
X112334354Y-95820147D01*
X112459853Y-95945646D01*
X112558456Y-96093216D01*
X112626376Y-96257188D01*
X112661000Y-96431259D01*
X112661000Y-96608741D01*
X112626376Y-96782812D01*
X112558456Y-96946784D01*
X112459853Y-97094354D01*
X112334354Y-97219853D01*
X112186784Y-97318456D01*
X112022812Y-97386376D01*
X111848741Y-97421000D01*
X111671259Y-97421000D01*
X111497188Y-97386376D01*
X111333216Y-97318456D01*
X111185646Y-97219853D01*
X111060147Y-97094354D01*
X110961544Y-96946784D01*
X110893624Y-96782812D01*
X110859000Y-96608741D01*
X110859000Y-96431259D01*
X110893624Y-96257188D01*
X110961544Y-96093216D01*
X111060147Y-95945646D01*
X111185646Y-95820147D01*
X111333216Y-95721544D01*
X111497188Y-95653624D01*
X111671259Y-95619000D01*
X111848741Y-95619000D01*
X112022812Y-95653624D01*
X112022812Y-95653624D01*
G37*
G36*
X213575993Y-95714203D02*
X213640414Y-95733744D01*
X213699776Y-95765475D01*
X213751817Y-95808183D01*
X213794525Y-95860224D01*
X213826256Y-95919586D01*
X213845797Y-95984007D01*
X213853000Y-96057141D01*
X213853000Y-96982859D01*
X213845797Y-97055993D01*
X213826256Y-97120414D01*
X213794525Y-97179776D01*
X213751817Y-97231817D01*
X213699776Y-97274525D01*
X213640414Y-97306256D01*
X213575993Y-97325797D01*
X213502859Y-97333000D01*
X212201141Y-97333000D01*
X212128007Y-97325797D01*
X212063586Y-97306256D01*
X212004224Y-97274525D01*
X211952183Y-97231817D01*
X211909475Y-97179776D01*
X211877744Y-97120414D01*
X211858203Y-97055993D01*
X211851000Y-96982859D01*
X211851000Y-96057141D01*
X211858203Y-95984007D01*
X211877744Y-95919586D01*
X211909475Y-95860224D01*
X211952183Y-95808183D01*
X212004224Y-95765475D01*
X212063586Y-95733744D01*
X212128007Y-95714203D01*
X212201141Y-95707000D01*
X213502859Y-95707000D01*
X213575993Y-95714203D01*
X213575993Y-95714203D01*
G37*
G36*
X238975993Y-95714203D02*
X239040414Y-95733744D01*
X239099776Y-95765475D01*
X239151817Y-95808183D01*
X239194525Y-95860224D01*
X239226256Y-95919586D01*
X239245797Y-95984007D01*
X239253000Y-96057141D01*
X239253000Y-96982859D01*
X239245797Y-97055993D01*
X239226256Y-97120414D01*
X239194525Y-97179776D01*
X239151817Y-97231817D01*
X239099776Y-97274525D01*
X239040414Y-97306256D01*
X238975993Y-97325797D01*
X238902859Y-97333000D01*
X237601141Y-97333000D01*
X237528007Y-97325797D01*
X237463586Y-97306256D01*
X237404224Y-97274525D01*
X237352183Y-97231817D01*
X237309475Y-97179776D01*
X237277744Y-97120414D01*
X237258203Y-97055993D01*
X237251000Y-96982859D01*
X237251000Y-96057141D01*
X237258203Y-95984007D01*
X237277744Y-95919586D01*
X237309475Y-95860224D01*
X237352183Y-95808183D01*
X237404224Y-95765475D01*
X237463586Y-95733744D01*
X237528007Y-95714203D01*
X237601141Y-95707000D01*
X238902859Y-95707000D01*
X238975993Y-95714203D01*
X238975993Y-95714203D01*
G37*
G36*
X109482812Y-95018624D02*
X109646784Y-95086544D01*
X109794354Y-95185147D01*
X109919853Y-95310646D01*
X110018456Y-95458216D01*
X110086376Y-95622188D01*
X110121000Y-95796259D01*
X110121000Y-95973741D01*
X110086376Y-96147812D01*
X110018456Y-96311784D01*
X109919853Y-96459354D01*
X109794354Y-96584853D01*
X109646784Y-96683456D01*
X109482812Y-96751376D01*
X109308741Y-96786000D01*
X109131259Y-96786000D01*
X108957188Y-96751376D01*
X108793216Y-96683456D01*
X108645646Y-96584853D01*
X108520147Y-96459354D01*
X108421544Y-96311784D01*
X108353624Y-96147812D01*
X108319000Y-95973741D01*
X108319000Y-95796259D01*
X108353624Y-95622188D01*
X108421544Y-95458216D01*
X108520147Y-95310646D01*
X108645646Y-95185147D01*
X108793216Y-95086544D01*
X108957188Y-95018624D01*
X109131259Y-94984000D01*
X109308741Y-94984000D01*
X109482812Y-95018624D01*
X109482812Y-95018624D01*
G37*
G36*
X114562812Y-95018624D02*
X114726784Y-95086544D01*
X114874354Y-95185147D01*
X114999853Y-95310646D01*
X115098456Y-95458216D01*
X115166376Y-95622188D01*
X115201000Y-95796259D01*
X115201000Y-95973741D01*
X115166376Y-96147812D01*
X115098456Y-96311784D01*
X114999853Y-96459354D01*
X114874354Y-96584853D01*
X114726784Y-96683456D01*
X114562812Y-96751376D01*
X114388741Y-96786000D01*
X114211259Y-96786000D01*
X114037188Y-96751376D01*
X113873216Y-96683456D01*
X113725646Y-96584853D01*
X113600147Y-96459354D01*
X113501544Y-96311784D01*
X113433624Y-96147812D01*
X113399000Y-95973741D01*
X113399000Y-95796259D01*
X113433624Y-95622188D01*
X113501544Y-95458216D01*
X113600147Y-95310646D01*
X113725646Y-95185147D01*
X113873216Y-95086544D01*
X114037188Y-95018624D01*
X114211259Y-94984000D01*
X114388741Y-94984000D01*
X114562812Y-95018624D01*
X114562812Y-95018624D01*
G37*
G36*
X134882812Y-95018624D02*
X135046784Y-95086544D01*
X135194354Y-95185147D01*
X135319853Y-95310646D01*
X135418456Y-95458216D01*
X135486376Y-95622188D01*
X135521000Y-95796259D01*
X135521000Y-95973741D01*
X135486376Y-96147812D01*
X135418456Y-96311784D01*
X135319853Y-96459354D01*
X135194354Y-96584853D01*
X135046784Y-96683456D01*
X134882812Y-96751376D01*
X134708741Y-96786000D01*
X134531259Y-96786000D01*
X134357188Y-96751376D01*
X134193216Y-96683456D01*
X134045646Y-96584853D01*
X133920147Y-96459354D01*
X133821544Y-96311784D01*
X133753624Y-96147812D01*
X133719000Y-95973741D01*
X133719000Y-95796259D01*
X133753624Y-95622188D01*
X133821544Y-95458216D01*
X133920147Y-95310646D01*
X134045646Y-95185147D01*
X134193216Y-95086544D01*
X134357188Y-95018624D01*
X134531259Y-94984000D01*
X134708741Y-94984000D01*
X134882812Y-95018624D01*
X134882812Y-95018624D01*
G37*
G36*
X139962812Y-95018624D02*
X140126784Y-95086544D01*
X140274354Y-95185147D01*
X140399853Y-95310646D01*
X140498456Y-95458216D01*
X140566376Y-95622188D01*
X140601000Y-95796259D01*
X140601000Y-95973741D01*
X140566376Y-96147812D01*
X140498456Y-96311784D01*
X140399853Y-96459354D01*
X140274354Y-96584853D01*
X140126784Y-96683456D01*
X139962812Y-96751376D01*
X139788741Y-96786000D01*
X139611259Y-96786000D01*
X139437188Y-96751376D01*
X139273216Y-96683456D01*
X139125646Y-96584853D01*
X139000147Y-96459354D01*
X138901544Y-96311784D01*
X138833624Y-96147812D01*
X138799000Y-95973741D01*
X138799000Y-95796259D01*
X138833624Y-95622188D01*
X138901544Y-95458216D01*
X139000147Y-95310646D01*
X139125646Y-95185147D01*
X139273216Y-95086544D01*
X139437188Y-95018624D01*
X139611259Y-94984000D01*
X139788741Y-94984000D01*
X139962812Y-95018624D01*
X139962812Y-95018624D01*
G37*
G36*
X170442812Y-95018624D02*
X170606784Y-95086544D01*
X170754354Y-95185147D01*
X170879853Y-95310646D01*
X170978456Y-95458216D01*
X171046376Y-95622188D01*
X171081000Y-95796259D01*
X171081000Y-95973741D01*
X171046376Y-96147812D01*
X170978456Y-96311784D01*
X170879853Y-96459354D01*
X170754354Y-96584853D01*
X170606784Y-96683456D01*
X170442812Y-96751376D01*
X170268741Y-96786000D01*
X170091259Y-96786000D01*
X169917188Y-96751376D01*
X169753216Y-96683456D01*
X169605646Y-96584853D01*
X169480147Y-96459354D01*
X169381544Y-96311784D01*
X169313624Y-96147812D01*
X169279000Y-95973741D01*
X169279000Y-95796259D01*
X169313624Y-95622188D01*
X169381544Y-95458216D01*
X169480147Y-95310646D01*
X169605646Y-95185147D01*
X169753216Y-95086544D01*
X169917188Y-95018624D01*
X170091259Y-94984000D01*
X170268741Y-94984000D01*
X170442812Y-95018624D01*
X170442812Y-95018624D01*
G37*
G36*
X165362812Y-95018624D02*
X165526784Y-95086544D01*
X165674354Y-95185147D01*
X165799853Y-95310646D01*
X165898456Y-95458216D01*
X165966376Y-95622188D01*
X166001000Y-95796259D01*
X166001000Y-95973741D01*
X165966376Y-96147812D01*
X165898456Y-96311784D01*
X165799853Y-96459354D01*
X165674354Y-96584853D01*
X165526784Y-96683456D01*
X165362812Y-96751376D01*
X165188741Y-96786000D01*
X165011259Y-96786000D01*
X164837188Y-96751376D01*
X164673216Y-96683456D01*
X164525646Y-96584853D01*
X164400147Y-96459354D01*
X164301544Y-96311784D01*
X164233624Y-96147812D01*
X164199000Y-95973741D01*
X164199000Y-95796259D01*
X164233624Y-95622188D01*
X164301544Y-95458216D01*
X164400147Y-95310646D01*
X164525646Y-95185147D01*
X164673216Y-95086544D01*
X164837188Y-95018624D01*
X165011259Y-94984000D01*
X165188741Y-94984000D01*
X165362812Y-95018624D01*
X165362812Y-95018624D01*
G37*
G36*
X190762812Y-95018624D02*
X190926784Y-95086544D01*
X191074354Y-95185147D01*
X191199853Y-95310646D01*
X191298456Y-95458216D01*
X191366376Y-95622188D01*
X191401000Y-95796259D01*
X191401000Y-95973741D01*
X191366376Y-96147812D01*
X191298456Y-96311784D01*
X191199853Y-96459354D01*
X191074354Y-96584853D01*
X190926784Y-96683456D01*
X190762812Y-96751376D01*
X190588741Y-96786000D01*
X190411259Y-96786000D01*
X190237188Y-96751376D01*
X190073216Y-96683456D01*
X189925646Y-96584853D01*
X189800147Y-96459354D01*
X189701544Y-96311784D01*
X189633624Y-96147812D01*
X189599000Y-95973741D01*
X189599000Y-95796259D01*
X189633624Y-95622188D01*
X189701544Y-95458216D01*
X189800147Y-95310646D01*
X189925646Y-95185147D01*
X190073216Y-95086544D01*
X190237188Y-95018624D01*
X190411259Y-94984000D01*
X190588741Y-94984000D01*
X190762812Y-95018624D01*
X190762812Y-95018624D01*
G37*
G36*
X195842812Y-95018624D02*
X196006784Y-95086544D01*
X196154354Y-95185147D01*
X196279853Y-95310646D01*
X196378456Y-95458216D01*
X196446376Y-95622188D01*
X196481000Y-95796259D01*
X196481000Y-95973741D01*
X196446376Y-96147812D01*
X196378456Y-96311784D01*
X196279853Y-96459354D01*
X196154354Y-96584853D01*
X196006784Y-96683456D01*
X195842812Y-96751376D01*
X195668741Y-96786000D01*
X195491259Y-96786000D01*
X195317188Y-96751376D01*
X195153216Y-96683456D01*
X195005646Y-96584853D01*
X194880147Y-96459354D01*
X194781544Y-96311784D01*
X194713624Y-96147812D01*
X194679000Y-95973741D01*
X194679000Y-95796259D01*
X194713624Y-95622188D01*
X194781544Y-95458216D01*
X194880147Y-95310646D01*
X195005646Y-95185147D01*
X195153216Y-95086544D01*
X195317188Y-95018624D01*
X195491259Y-94984000D01*
X195668741Y-94984000D01*
X195842812Y-95018624D01*
X195842812Y-95018624D01*
G37*
G36*
X90757000Y-95926000D02*
X89155000Y-95926000D01*
X89155000Y-94574000D01*
X90757000Y-94574000D01*
X90757000Y-95926000D01*
X90757000Y-95926000D01*
G37*
G36*
X93257000Y-95926000D02*
X91655000Y-95926000D01*
X91655000Y-94574000D01*
X93257000Y-94574000D01*
X93257000Y-95926000D01*
X93257000Y-95926000D01*
G37*
G36*
X141867812Y-93113624D02*
X142031784Y-93181544D01*
X142179354Y-93280147D01*
X142304853Y-93405646D01*
X142403456Y-93553216D01*
X142471376Y-93717188D01*
X142506000Y-93891259D01*
X142506000Y-94068741D01*
X142471376Y-94242812D01*
X142403456Y-94406784D01*
X142304853Y-94554354D01*
X142179354Y-94679853D01*
X142031784Y-94778456D01*
X141867812Y-94846376D01*
X141693741Y-94881000D01*
X141516259Y-94881000D01*
X141342188Y-94846376D01*
X141178216Y-94778456D01*
X141030646Y-94679853D01*
X140905147Y-94554354D01*
X140806544Y-94406784D01*
X140738624Y-94242812D01*
X140704000Y-94068741D01*
X140704000Y-93891259D01*
X140738624Y-93717188D01*
X140806544Y-93553216D01*
X140905147Y-93405646D01*
X141030646Y-93280147D01*
X141178216Y-93181544D01*
X141342188Y-93113624D01*
X141516259Y-93079000D01*
X141693741Y-93079000D01*
X141867812Y-93113624D01*
X141867812Y-93113624D01*
G37*
G36*
X116467812Y-93113624D02*
X116631784Y-93181544D01*
X116779354Y-93280147D01*
X116904853Y-93405646D01*
X117003456Y-93553216D01*
X117071376Y-93717188D01*
X117106000Y-93891259D01*
X117106000Y-94068741D01*
X117071376Y-94242812D01*
X117003456Y-94406784D01*
X116904853Y-94554354D01*
X116779354Y-94679853D01*
X116631784Y-94778456D01*
X116467812Y-94846376D01*
X116293741Y-94881000D01*
X116116259Y-94881000D01*
X115942188Y-94846376D01*
X115778216Y-94778456D01*
X115630646Y-94679853D01*
X115505147Y-94554354D01*
X115406544Y-94406784D01*
X115338624Y-94242812D01*
X115304000Y-94068741D01*
X115304000Y-93891259D01*
X115338624Y-93717188D01*
X115406544Y-93553216D01*
X115505147Y-93405646D01*
X115630646Y-93280147D01*
X115778216Y-93181544D01*
X115942188Y-93113624D01*
X116116259Y-93079000D01*
X116293741Y-93079000D01*
X116467812Y-93113624D01*
X116467812Y-93113624D01*
G37*
G36*
X107577812Y-93113624D02*
X107741784Y-93181544D01*
X107889354Y-93280147D01*
X108014853Y-93405646D01*
X108113456Y-93553216D01*
X108181376Y-93717188D01*
X108216000Y-93891259D01*
X108216000Y-94068741D01*
X108181376Y-94242812D01*
X108113456Y-94406784D01*
X108014853Y-94554354D01*
X107889354Y-94679853D01*
X107741784Y-94778456D01*
X107577812Y-94846376D01*
X107403741Y-94881000D01*
X107226259Y-94881000D01*
X107052188Y-94846376D01*
X106888216Y-94778456D01*
X106740646Y-94679853D01*
X106615147Y-94554354D01*
X106516544Y-94406784D01*
X106448624Y-94242812D01*
X106414000Y-94068741D01*
X106414000Y-93891259D01*
X106448624Y-93717188D01*
X106516544Y-93553216D01*
X106615147Y-93405646D01*
X106740646Y-93280147D01*
X106888216Y-93181544D01*
X107052188Y-93113624D01*
X107226259Y-93079000D01*
X107403741Y-93079000D01*
X107577812Y-93113624D01*
X107577812Y-93113624D01*
G37*
G36*
X197747812Y-93113624D02*
X197911784Y-93181544D01*
X198059354Y-93280147D01*
X198184853Y-93405646D01*
X198283456Y-93553216D01*
X198351376Y-93717188D01*
X198386000Y-93891259D01*
X198386000Y-94068741D01*
X198351376Y-94242812D01*
X198283456Y-94406784D01*
X198184853Y-94554354D01*
X198059354Y-94679853D01*
X197911784Y-94778456D01*
X197747812Y-94846376D01*
X197573741Y-94881000D01*
X197396259Y-94881000D01*
X197222188Y-94846376D01*
X197058216Y-94778456D01*
X196910646Y-94679853D01*
X196785147Y-94554354D01*
X196686544Y-94406784D01*
X196618624Y-94242812D01*
X196584000Y-94068741D01*
X196584000Y-93891259D01*
X196618624Y-93717188D01*
X196686544Y-93553216D01*
X196785147Y-93405646D01*
X196910646Y-93280147D01*
X197058216Y-93181544D01*
X197222188Y-93113624D01*
X197396259Y-93079000D01*
X197573741Y-93079000D01*
X197747812Y-93113624D01*
X197747812Y-93113624D01*
G37*
G36*
X132977812Y-93113624D02*
X133141784Y-93181544D01*
X133289354Y-93280147D01*
X133414853Y-93405646D01*
X133513456Y-93553216D01*
X133581376Y-93717188D01*
X133616000Y-93891259D01*
X133616000Y-94068741D01*
X133581376Y-94242812D01*
X133513456Y-94406784D01*
X133414853Y-94554354D01*
X133289354Y-94679853D01*
X133141784Y-94778456D01*
X132977812Y-94846376D01*
X132803741Y-94881000D01*
X132626259Y-94881000D01*
X132452188Y-94846376D01*
X132288216Y-94778456D01*
X132140646Y-94679853D01*
X132015147Y-94554354D01*
X131916544Y-94406784D01*
X131848624Y-94242812D01*
X131814000Y-94068741D01*
X131814000Y-93891259D01*
X131848624Y-93717188D01*
X131916544Y-93553216D01*
X132015147Y-93405646D01*
X132140646Y-93280147D01*
X132288216Y-93181544D01*
X132452188Y-93113624D01*
X132626259Y-93079000D01*
X132803741Y-93079000D01*
X132977812Y-93113624D01*
X132977812Y-93113624D01*
G37*
G36*
X163457812Y-93113624D02*
X163621784Y-93181544D01*
X163769354Y-93280147D01*
X163894853Y-93405646D01*
X163993456Y-93553216D01*
X164061376Y-93717188D01*
X164096000Y-93891259D01*
X164096000Y-94068741D01*
X164061376Y-94242812D01*
X163993456Y-94406784D01*
X163894853Y-94554354D01*
X163769354Y-94679853D01*
X163621784Y-94778456D01*
X163457812Y-94846376D01*
X163283741Y-94881000D01*
X163106259Y-94881000D01*
X162932188Y-94846376D01*
X162768216Y-94778456D01*
X162620646Y-94679853D01*
X162495147Y-94554354D01*
X162396544Y-94406784D01*
X162328624Y-94242812D01*
X162294000Y-94068741D01*
X162294000Y-93891259D01*
X162328624Y-93717188D01*
X162396544Y-93553216D01*
X162495147Y-93405646D01*
X162620646Y-93280147D01*
X162768216Y-93181544D01*
X162932188Y-93113624D01*
X163106259Y-93079000D01*
X163283741Y-93079000D01*
X163457812Y-93113624D01*
X163457812Y-93113624D01*
G37*
G36*
X188857812Y-93113624D02*
X189021784Y-93181544D01*
X189169354Y-93280147D01*
X189294853Y-93405646D01*
X189393456Y-93553216D01*
X189461376Y-93717188D01*
X189496000Y-93891259D01*
X189496000Y-94068741D01*
X189461376Y-94242812D01*
X189393456Y-94406784D01*
X189294853Y-94554354D01*
X189169354Y-94679853D01*
X189021784Y-94778456D01*
X188857812Y-94846376D01*
X188683741Y-94881000D01*
X188506259Y-94881000D01*
X188332188Y-94846376D01*
X188168216Y-94778456D01*
X188020646Y-94679853D01*
X187895147Y-94554354D01*
X187796544Y-94406784D01*
X187728624Y-94242812D01*
X187694000Y-94068741D01*
X187694000Y-93891259D01*
X187728624Y-93717188D01*
X187796544Y-93553216D01*
X187895147Y-93405646D01*
X188020646Y-93280147D01*
X188168216Y-93181544D01*
X188332188Y-93113624D01*
X188506259Y-93079000D01*
X188683741Y-93079000D01*
X188857812Y-93113624D01*
X188857812Y-93113624D01*
G37*
G36*
X172347812Y-93113624D02*
X172511784Y-93181544D01*
X172659354Y-93280147D01*
X172784853Y-93405646D01*
X172883456Y-93553216D01*
X172951376Y-93717188D01*
X172986000Y-93891259D01*
X172986000Y-94068741D01*
X172951376Y-94242812D01*
X172883456Y-94406784D01*
X172784853Y-94554354D01*
X172659354Y-94679853D01*
X172511784Y-94778456D01*
X172347812Y-94846376D01*
X172173741Y-94881000D01*
X171996259Y-94881000D01*
X171822188Y-94846376D01*
X171658216Y-94778456D01*
X171510646Y-94679853D01*
X171385147Y-94554354D01*
X171286544Y-94406784D01*
X171218624Y-94242812D01*
X171184000Y-94068741D01*
X171184000Y-93891259D01*
X171218624Y-93717188D01*
X171286544Y-93553216D01*
X171385147Y-93405646D01*
X171510646Y-93280147D01*
X171658216Y-93181544D01*
X171822188Y-93113624D01*
X171996259Y-93079000D01*
X172173741Y-93079000D01*
X172347812Y-93113624D01*
X172347812Y-93113624D01*
G37*
G36*
X213575993Y-93174203D02*
X213640414Y-93193744D01*
X213699776Y-93225475D01*
X213751817Y-93268183D01*
X213794525Y-93320224D01*
X213826256Y-93379586D01*
X213845797Y-93444007D01*
X213853000Y-93517141D01*
X213853000Y-94442859D01*
X213845797Y-94515993D01*
X213826256Y-94580414D01*
X213794525Y-94639776D01*
X213751817Y-94691817D01*
X213699776Y-94734525D01*
X213640414Y-94766256D01*
X213575993Y-94785797D01*
X213502859Y-94793000D01*
X212201141Y-94793000D01*
X212128007Y-94785797D01*
X212063586Y-94766256D01*
X212004224Y-94734525D01*
X211952183Y-94691817D01*
X211909475Y-94639776D01*
X211877744Y-94580414D01*
X211858203Y-94515993D01*
X211851000Y-94442859D01*
X211851000Y-93517141D01*
X211858203Y-93444007D01*
X211877744Y-93379586D01*
X211909475Y-93320224D01*
X211952183Y-93268183D01*
X212004224Y-93225475D01*
X212063586Y-93193744D01*
X212128007Y-93174203D01*
X212201141Y-93167000D01*
X213502859Y-93167000D01*
X213575993Y-93174203D01*
X213575993Y-93174203D01*
G37*
G36*
X238975993Y-93174203D02*
X239040414Y-93193744D01*
X239099776Y-93225475D01*
X239151817Y-93268183D01*
X239194525Y-93320224D01*
X239226256Y-93379586D01*
X239245797Y-93444007D01*
X239253000Y-93517141D01*
X239253000Y-94442859D01*
X239245797Y-94515993D01*
X239226256Y-94580414D01*
X239194525Y-94639776D01*
X239151817Y-94691817D01*
X239099776Y-94734525D01*
X239040414Y-94766256D01*
X238975993Y-94785797D01*
X238902859Y-94793000D01*
X237601141Y-94793000D01*
X237528007Y-94785797D01*
X237463586Y-94766256D01*
X237404224Y-94734525D01*
X237352183Y-94691817D01*
X237309475Y-94639776D01*
X237277744Y-94580414D01*
X237258203Y-94515993D01*
X237251000Y-94442859D01*
X237251000Y-93517141D01*
X237258203Y-93444007D01*
X237277744Y-93379586D01*
X237309475Y-93320224D01*
X237352183Y-93268183D01*
X237404224Y-93225475D01*
X237463586Y-93193744D01*
X237528007Y-93174203D01*
X237601141Y-93167000D01*
X238902859Y-93167000D01*
X238975993Y-93174203D01*
X238975993Y-93174203D01*
G37*
G36*
X68980005Y-91915662D02*
X69131933Y-91961750D01*
X69131935Y-91961751D01*
X69271956Y-92036594D01*
X69394685Y-92137315D01*
X69495406Y-92260044D01*
X69520171Y-92306376D01*
X69570250Y-92400067D01*
X69616338Y-92551995D01*
X69631899Y-92710000D01*
X69616338Y-92868005D01*
X69570250Y-93019933D01*
X69570249Y-93019935D01*
X69495406Y-93159956D01*
X69394685Y-93282685D01*
X69271956Y-93383406D01*
X69207349Y-93417939D01*
X69131933Y-93458250D01*
X68980005Y-93504338D01*
X68861591Y-93516000D01*
X67282409Y-93516000D01*
X67163995Y-93504338D01*
X67012067Y-93458250D01*
X66936651Y-93417939D01*
X66872044Y-93383406D01*
X66749315Y-93282685D01*
X66648594Y-93159956D01*
X66573751Y-93019935D01*
X66573750Y-93019933D01*
X66527662Y-92868005D01*
X66512101Y-92710000D01*
X66527662Y-92551995D01*
X66573750Y-92400067D01*
X66623829Y-92306376D01*
X66648594Y-92260044D01*
X66749315Y-92137315D01*
X66872044Y-92036594D01*
X67012065Y-91961751D01*
X67012067Y-91961750D01*
X67163995Y-91915662D01*
X67282409Y-91904000D01*
X68861591Y-91904000D01*
X68980005Y-91915662D01*
X68980005Y-91915662D01*
G37*
G36*
X86713000Y-92341000D02*
X84611000Y-92341000D01*
X84611000Y-90539000D01*
X86713000Y-90539000D01*
X86713000Y-92341000D01*
X86713000Y-92341000D01*
G37*
G36*
X90713000Y-92341000D02*
X88611000Y-92341000D01*
X88611000Y-90539000D01*
X90713000Y-90539000D01*
X90713000Y-92341000D01*
X90713000Y-92341000D01*
G37*
G36*
X198382812Y-90573624D02*
X198546784Y-90641544D01*
X198694354Y-90740147D01*
X198819853Y-90865646D01*
X198918456Y-91013216D01*
X198986376Y-91177188D01*
X199021000Y-91351259D01*
X199021000Y-91528741D01*
X198986376Y-91702812D01*
X198918456Y-91866784D01*
X198819853Y-92014354D01*
X198694354Y-92139853D01*
X198546784Y-92238456D01*
X198382812Y-92306376D01*
X198208741Y-92341000D01*
X198031259Y-92341000D01*
X197857188Y-92306376D01*
X197693216Y-92238456D01*
X197545646Y-92139853D01*
X197420147Y-92014354D01*
X197321544Y-91866784D01*
X197253624Y-91702812D01*
X197219000Y-91528741D01*
X197219000Y-91351259D01*
X197253624Y-91177188D01*
X197321544Y-91013216D01*
X197420147Y-90865646D01*
X197545646Y-90740147D01*
X197693216Y-90641544D01*
X197857188Y-90573624D01*
X198031259Y-90539000D01*
X198208741Y-90539000D01*
X198382812Y-90573624D01*
X198382812Y-90573624D01*
G37*
G36*
X117102812Y-90573624D02*
X117266784Y-90641544D01*
X117414354Y-90740147D01*
X117539853Y-90865646D01*
X117638456Y-91013216D01*
X117706376Y-91177188D01*
X117741000Y-91351259D01*
X117741000Y-91528741D01*
X117706376Y-91702812D01*
X117638456Y-91866784D01*
X117539853Y-92014354D01*
X117414354Y-92139853D01*
X117266784Y-92238456D01*
X117102812Y-92306376D01*
X116928741Y-92341000D01*
X116751259Y-92341000D01*
X116577188Y-92306376D01*
X116413216Y-92238456D01*
X116265646Y-92139853D01*
X116140147Y-92014354D01*
X116041544Y-91866784D01*
X115973624Y-91702812D01*
X115939000Y-91528741D01*
X115939000Y-91351259D01*
X115973624Y-91177188D01*
X116041544Y-91013216D01*
X116140147Y-90865646D01*
X116265646Y-90740147D01*
X116413216Y-90641544D01*
X116577188Y-90573624D01*
X116751259Y-90539000D01*
X116928741Y-90539000D01*
X117102812Y-90573624D01*
X117102812Y-90573624D01*
G37*
G36*
X142502812Y-90573624D02*
X142666784Y-90641544D01*
X142814354Y-90740147D01*
X142939853Y-90865646D01*
X143038456Y-91013216D01*
X143106376Y-91177188D01*
X143141000Y-91351259D01*
X143141000Y-91528741D01*
X143106376Y-91702812D01*
X143038456Y-91866784D01*
X142939853Y-92014354D01*
X142814354Y-92139853D01*
X142666784Y-92238456D01*
X142502812Y-92306376D01*
X142328741Y-92341000D01*
X142151259Y-92341000D01*
X141977188Y-92306376D01*
X141813216Y-92238456D01*
X141665646Y-92139853D01*
X141540147Y-92014354D01*
X141441544Y-91866784D01*
X141373624Y-91702812D01*
X141339000Y-91528741D01*
X141339000Y-91351259D01*
X141373624Y-91177188D01*
X141441544Y-91013216D01*
X141540147Y-90865646D01*
X141665646Y-90740147D01*
X141813216Y-90641544D01*
X141977188Y-90573624D01*
X142151259Y-90539000D01*
X142328741Y-90539000D01*
X142502812Y-90573624D01*
X142502812Y-90573624D01*
G37*
G36*
X106942812Y-90573624D02*
X107106784Y-90641544D01*
X107254354Y-90740147D01*
X107379853Y-90865646D01*
X107478456Y-91013216D01*
X107546376Y-91177188D01*
X107581000Y-91351259D01*
X107581000Y-91528741D01*
X107546376Y-91702812D01*
X107478456Y-91866784D01*
X107379853Y-92014354D01*
X107254354Y-92139853D01*
X107106784Y-92238456D01*
X106942812Y-92306376D01*
X106768741Y-92341000D01*
X106591259Y-92341000D01*
X106417188Y-92306376D01*
X106253216Y-92238456D01*
X106105646Y-92139853D01*
X105980147Y-92014354D01*
X105881544Y-91866784D01*
X105813624Y-91702812D01*
X105779000Y-91528741D01*
X105779000Y-91351259D01*
X105813624Y-91177188D01*
X105881544Y-91013216D01*
X105980147Y-90865646D01*
X106105646Y-90740147D01*
X106253216Y-90641544D01*
X106417188Y-90573624D01*
X106591259Y-90539000D01*
X106768741Y-90539000D01*
X106942812Y-90573624D01*
X106942812Y-90573624D01*
G37*
G36*
X188222812Y-90573624D02*
X188386784Y-90641544D01*
X188534354Y-90740147D01*
X188659853Y-90865646D01*
X188758456Y-91013216D01*
X188826376Y-91177188D01*
X188861000Y-91351259D01*
X188861000Y-91528741D01*
X188826376Y-91702812D01*
X188758456Y-91866784D01*
X188659853Y-92014354D01*
X188534354Y-92139853D01*
X188386784Y-92238456D01*
X188222812Y-92306376D01*
X188048741Y-92341000D01*
X187871259Y-92341000D01*
X187697188Y-92306376D01*
X187533216Y-92238456D01*
X187385646Y-92139853D01*
X187260147Y-92014354D01*
X187161544Y-91866784D01*
X187093624Y-91702812D01*
X187059000Y-91528741D01*
X187059000Y-91351259D01*
X187093624Y-91177188D01*
X187161544Y-91013216D01*
X187260147Y-90865646D01*
X187385646Y-90740147D01*
X187533216Y-90641544D01*
X187697188Y-90573624D01*
X187871259Y-90539000D01*
X188048741Y-90539000D01*
X188222812Y-90573624D01*
X188222812Y-90573624D01*
G37*
G36*
X162822812Y-90573624D02*
X162986784Y-90641544D01*
X163134354Y-90740147D01*
X163259853Y-90865646D01*
X163358456Y-91013216D01*
X163426376Y-91177188D01*
X163461000Y-91351259D01*
X163461000Y-91528741D01*
X163426376Y-91702812D01*
X163358456Y-91866784D01*
X163259853Y-92014354D01*
X163134354Y-92139853D01*
X162986784Y-92238456D01*
X162822812Y-92306376D01*
X162648741Y-92341000D01*
X162471259Y-92341000D01*
X162297188Y-92306376D01*
X162133216Y-92238456D01*
X161985646Y-92139853D01*
X161860147Y-92014354D01*
X161761544Y-91866784D01*
X161693624Y-91702812D01*
X161659000Y-91528741D01*
X161659000Y-91351259D01*
X161693624Y-91177188D01*
X161761544Y-91013216D01*
X161860147Y-90865646D01*
X161985646Y-90740147D01*
X162133216Y-90641544D01*
X162297188Y-90573624D01*
X162471259Y-90539000D01*
X162648741Y-90539000D01*
X162822812Y-90573624D01*
X162822812Y-90573624D01*
G37*
G36*
X132342812Y-90573624D02*
X132506784Y-90641544D01*
X132654354Y-90740147D01*
X132779853Y-90865646D01*
X132878456Y-91013216D01*
X132946376Y-91177188D01*
X132981000Y-91351259D01*
X132981000Y-91528741D01*
X132946376Y-91702812D01*
X132878456Y-91866784D01*
X132779853Y-92014354D01*
X132654354Y-92139853D01*
X132506784Y-92238456D01*
X132342812Y-92306376D01*
X132168741Y-92341000D01*
X131991259Y-92341000D01*
X131817188Y-92306376D01*
X131653216Y-92238456D01*
X131505646Y-92139853D01*
X131380147Y-92014354D01*
X131281544Y-91866784D01*
X131213624Y-91702812D01*
X131179000Y-91528741D01*
X131179000Y-91351259D01*
X131213624Y-91177188D01*
X131281544Y-91013216D01*
X131380147Y-90865646D01*
X131505646Y-90740147D01*
X131653216Y-90641544D01*
X131817188Y-90573624D01*
X131991259Y-90539000D01*
X132168741Y-90539000D01*
X132342812Y-90573624D01*
X132342812Y-90573624D01*
G37*
G36*
X172982812Y-90573624D02*
X173146784Y-90641544D01*
X173294354Y-90740147D01*
X173419853Y-90865646D01*
X173518456Y-91013216D01*
X173586376Y-91177188D01*
X173621000Y-91351259D01*
X173621000Y-91528741D01*
X173586376Y-91702812D01*
X173518456Y-91866784D01*
X173419853Y-92014354D01*
X173294354Y-92139853D01*
X173146784Y-92238456D01*
X172982812Y-92306376D01*
X172808741Y-92341000D01*
X172631259Y-92341000D01*
X172457188Y-92306376D01*
X172293216Y-92238456D01*
X172145646Y-92139853D01*
X172020147Y-92014354D01*
X171921544Y-91866784D01*
X171853624Y-91702812D01*
X171819000Y-91528741D01*
X171819000Y-91351259D01*
X171853624Y-91177188D01*
X171921544Y-91013216D01*
X172020147Y-90865646D01*
X172145646Y-90740147D01*
X172293216Y-90641544D01*
X172457188Y-90573624D01*
X172631259Y-90539000D01*
X172808741Y-90539000D01*
X172982812Y-90573624D01*
X172982812Y-90573624D01*
G37*
G36*
X213575993Y-90634203D02*
X213640414Y-90653744D01*
X213699776Y-90685475D01*
X213751817Y-90728183D01*
X213794525Y-90780224D01*
X213826256Y-90839586D01*
X213845797Y-90904007D01*
X213853000Y-90977141D01*
X213853000Y-91902859D01*
X213845797Y-91975993D01*
X213826256Y-92040414D01*
X213794525Y-92099776D01*
X213751817Y-92151817D01*
X213699776Y-92194525D01*
X213640414Y-92226256D01*
X213575993Y-92245797D01*
X213502859Y-92253000D01*
X212201141Y-92253000D01*
X212128007Y-92245797D01*
X212063586Y-92226256D01*
X212004224Y-92194525D01*
X211952183Y-92151817D01*
X211909475Y-92099776D01*
X211877744Y-92040414D01*
X211858203Y-91975993D01*
X211851000Y-91902859D01*
X211851000Y-90977141D01*
X211858203Y-90904007D01*
X211877744Y-90839586D01*
X211909475Y-90780224D01*
X211952183Y-90728183D01*
X212004224Y-90685475D01*
X212063586Y-90653744D01*
X212128007Y-90634203D01*
X212201141Y-90627000D01*
X213502859Y-90627000D01*
X213575993Y-90634203D01*
X213575993Y-90634203D01*
G37*
G36*
X238975993Y-90634203D02*
X239040414Y-90653744D01*
X239099776Y-90685475D01*
X239151817Y-90728183D01*
X239194525Y-90780224D01*
X239226256Y-90839586D01*
X239245797Y-90904007D01*
X239253000Y-90977141D01*
X239253000Y-91902859D01*
X239245797Y-91975993D01*
X239226256Y-92040414D01*
X239194525Y-92099776D01*
X239151817Y-92151817D01*
X239099776Y-92194525D01*
X239040414Y-92226256D01*
X238975993Y-92245797D01*
X238902859Y-92253000D01*
X237601141Y-92253000D01*
X237528007Y-92245797D01*
X237463586Y-92226256D01*
X237404224Y-92194525D01*
X237352183Y-92151817D01*
X237309475Y-92099776D01*
X237277744Y-92040414D01*
X237258203Y-91975993D01*
X237251000Y-91902859D01*
X237251000Y-90977141D01*
X237258203Y-90904007D01*
X237277744Y-90839586D01*
X237309475Y-90780224D01*
X237352183Y-90728183D01*
X237404224Y-90685475D01*
X237463586Y-90653744D01*
X237528007Y-90634203D01*
X237601141Y-90627000D01*
X238902859Y-90627000D01*
X238975993Y-90634203D01*
X238975993Y-90634203D01*
G37*
G36*
X93873000Y-92237000D02*
X93071000Y-92237000D01*
X93071000Y-90135000D01*
X93873000Y-90135000D01*
X93873000Y-92237000D01*
X93873000Y-92237000D01*
G37*
G36*
X95773000Y-92237000D02*
X94971000Y-92237000D01*
X94971000Y-90135000D01*
X95773000Y-90135000D01*
X95773000Y-92237000D01*
X95773000Y-92237000D01*
G37*
G36*
X68980005Y-89375662D02*
X69131933Y-89421750D01*
X69131935Y-89421751D01*
X69271956Y-89496594D01*
X69394685Y-89597315D01*
X69495406Y-89720044D01*
X69520171Y-89766376D01*
X69570250Y-89860067D01*
X69616338Y-90011995D01*
X69631899Y-90170000D01*
X69616338Y-90328005D01*
X69570250Y-90479933D01*
X69570249Y-90479935D01*
X69495406Y-90619956D01*
X69394685Y-90742685D01*
X69271956Y-90843406D01*
X69207349Y-90877939D01*
X69131933Y-90918250D01*
X68980005Y-90964338D01*
X68861591Y-90976000D01*
X67282409Y-90976000D01*
X67163995Y-90964338D01*
X67012067Y-90918250D01*
X66936651Y-90877939D01*
X66872044Y-90843406D01*
X66749315Y-90742685D01*
X66648594Y-90619956D01*
X66573751Y-90479935D01*
X66573750Y-90479933D01*
X66527662Y-90328005D01*
X66512101Y-90170000D01*
X66527662Y-90011995D01*
X66573750Y-89860067D01*
X66623829Y-89766376D01*
X66648594Y-89720044D01*
X66749315Y-89597315D01*
X66872044Y-89496594D01*
X67012065Y-89421751D01*
X67012067Y-89421750D01*
X67163995Y-89375662D01*
X67282409Y-89364000D01*
X68861591Y-89364000D01*
X68980005Y-89375662D01*
X68980005Y-89375662D01*
G37*
G36*
X78146000Y-89915000D02*
X76794000Y-89915000D01*
X76794000Y-88313000D01*
X78146000Y-88313000D01*
X78146000Y-89915000D01*
X78146000Y-89915000D01*
G37*
G36*
X132977812Y-88033624D02*
X133141784Y-88101544D01*
X133289354Y-88200147D01*
X133414853Y-88325646D01*
X133513456Y-88473216D01*
X133581376Y-88637188D01*
X133616000Y-88811259D01*
X133616000Y-88988741D01*
X133581376Y-89162812D01*
X133513456Y-89326784D01*
X133414853Y-89474354D01*
X133289354Y-89599853D01*
X133141784Y-89698456D01*
X132977812Y-89766376D01*
X132803741Y-89801000D01*
X132626259Y-89801000D01*
X132452188Y-89766376D01*
X132288216Y-89698456D01*
X132140646Y-89599853D01*
X132015147Y-89474354D01*
X131916544Y-89326784D01*
X131848624Y-89162812D01*
X131814000Y-88988741D01*
X131814000Y-88811259D01*
X131848624Y-88637188D01*
X131916544Y-88473216D01*
X132015147Y-88325646D01*
X132140646Y-88200147D01*
X132288216Y-88101544D01*
X132452188Y-88033624D01*
X132626259Y-87999000D01*
X132803741Y-87999000D01*
X132977812Y-88033624D01*
X132977812Y-88033624D01*
G37*
G36*
X116467812Y-88033624D02*
X116631784Y-88101544D01*
X116779354Y-88200147D01*
X116904853Y-88325646D01*
X117003456Y-88473216D01*
X117071376Y-88637188D01*
X117106000Y-88811259D01*
X117106000Y-88988741D01*
X117071376Y-89162812D01*
X117003456Y-89326784D01*
X116904853Y-89474354D01*
X116779354Y-89599853D01*
X116631784Y-89698456D01*
X116467812Y-89766376D01*
X116293741Y-89801000D01*
X116116259Y-89801000D01*
X115942188Y-89766376D01*
X115778216Y-89698456D01*
X115630646Y-89599853D01*
X115505147Y-89474354D01*
X115406544Y-89326784D01*
X115338624Y-89162812D01*
X115304000Y-88988741D01*
X115304000Y-88811259D01*
X115338624Y-88637188D01*
X115406544Y-88473216D01*
X115505147Y-88325646D01*
X115630646Y-88200147D01*
X115778216Y-88101544D01*
X115942188Y-88033624D01*
X116116259Y-87999000D01*
X116293741Y-87999000D01*
X116467812Y-88033624D01*
X116467812Y-88033624D01*
G37*
G36*
X188857812Y-88033624D02*
X189021784Y-88101544D01*
X189169354Y-88200147D01*
X189294853Y-88325646D01*
X189393456Y-88473216D01*
X189461376Y-88637188D01*
X189496000Y-88811259D01*
X189496000Y-88988741D01*
X189461376Y-89162812D01*
X189393456Y-89326784D01*
X189294853Y-89474354D01*
X189169354Y-89599853D01*
X189021784Y-89698456D01*
X188857812Y-89766376D01*
X188683741Y-89801000D01*
X188506259Y-89801000D01*
X188332188Y-89766376D01*
X188168216Y-89698456D01*
X188020646Y-89599853D01*
X187895147Y-89474354D01*
X187796544Y-89326784D01*
X187728624Y-89162812D01*
X187694000Y-88988741D01*
X187694000Y-88811259D01*
X187728624Y-88637188D01*
X187796544Y-88473216D01*
X187895147Y-88325646D01*
X188020646Y-88200147D01*
X188168216Y-88101544D01*
X188332188Y-88033624D01*
X188506259Y-87999000D01*
X188683741Y-87999000D01*
X188857812Y-88033624D01*
X188857812Y-88033624D01*
G37*
G36*
X197747812Y-88033624D02*
X197911784Y-88101544D01*
X198059354Y-88200147D01*
X198184853Y-88325646D01*
X198283456Y-88473216D01*
X198351376Y-88637188D01*
X198386000Y-88811259D01*
X198386000Y-88988741D01*
X198351376Y-89162812D01*
X198283456Y-89326784D01*
X198184853Y-89474354D01*
X198059354Y-89599853D01*
X197911784Y-89698456D01*
X197747812Y-89766376D01*
X197573741Y-89801000D01*
X197396259Y-89801000D01*
X197222188Y-89766376D01*
X197058216Y-89698456D01*
X196910646Y-89599853D01*
X196785147Y-89474354D01*
X196686544Y-89326784D01*
X196618624Y-89162812D01*
X196584000Y-88988741D01*
X196584000Y-88811259D01*
X196618624Y-88637188D01*
X196686544Y-88473216D01*
X196785147Y-88325646D01*
X196910646Y-88200147D01*
X197058216Y-88101544D01*
X197222188Y-88033624D01*
X197396259Y-87999000D01*
X197573741Y-87999000D01*
X197747812Y-88033624D01*
X197747812Y-88033624D01*
G37*
G36*
X141867812Y-88033624D02*
X142031784Y-88101544D01*
X142179354Y-88200147D01*
X142304853Y-88325646D01*
X142403456Y-88473216D01*
X142471376Y-88637188D01*
X142506000Y-88811259D01*
X142506000Y-88988741D01*
X142471376Y-89162812D01*
X142403456Y-89326784D01*
X142304853Y-89474354D01*
X142179354Y-89599853D01*
X142031784Y-89698456D01*
X141867812Y-89766376D01*
X141693741Y-89801000D01*
X141516259Y-89801000D01*
X141342188Y-89766376D01*
X141178216Y-89698456D01*
X141030646Y-89599853D01*
X140905147Y-89474354D01*
X140806544Y-89326784D01*
X140738624Y-89162812D01*
X140704000Y-88988741D01*
X140704000Y-88811259D01*
X140738624Y-88637188D01*
X140806544Y-88473216D01*
X140905147Y-88325646D01*
X141030646Y-88200147D01*
X141178216Y-88101544D01*
X141342188Y-88033624D01*
X141516259Y-87999000D01*
X141693741Y-87999000D01*
X141867812Y-88033624D01*
X141867812Y-88033624D01*
G37*
G36*
X163457812Y-88033624D02*
X163621784Y-88101544D01*
X163769354Y-88200147D01*
X163894853Y-88325646D01*
X163993456Y-88473216D01*
X164061376Y-88637188D01*
X164096000Y-88811259D01*
X164096000Y-88988741D01*
X164061376Y-89162812D01*
X163993456Y-89326784D01*
X163894853Y-89474354D01*
X163769354Y-89599853D01*
X163621784Y-89698456D01*
X163457812Y-89766376D01*
X163283741Y-89801000D01*
X163106259Y-89801000D01*
X162932188Y-89766376D01*
X162768216Y-89698456D01*
X162620646Y-89599853D01*
X162495147Y-89474354D01*
X162396544Y-89326784D01*
X162328624Y-89162812D01*
X162294000Y-88988741D01*
X162294000Y-88811259D01*
X162328624Y-88637188D01*
X162396544Y-88473216D01*
X162495147Y-88325646D01*
X162620646Y-88200147D01*
X162768216Y-88101544D01*
X162932188Y-88033624D01*
X163106259Y-87999000D01*
X163283741Y-87999000D01*
X163457812Y-88033624D01*
X163457812Y-88033624D01*
G37*
G36*
X107577812Y-88033624D02*
X107741784Y-88101544D01*
X107889354Y-88200147D01*
X108014853Y-88325646D01*
X108113456Y-88473216D01*
X108181376Y-88637188D01*
X108216000Y-88811259D01*
X108216000Y-88988741D01*
X108181376Y-89162812D01*
X108113456Y-89326784D01*
X108014853Y-89474354D01*
X107889354Y-89599853D01*
X107741784Y-89698456D01*
X107577812Y-89766376D01*
X107403741Y-89801000D01*
X107226259Y-89801000D01*
X107052188Y-89766376D01*
X106888216Y-89698456D01*
X106740646Y-89599853D01*
X106615147Y-89474354D01*
X106516544Y-89326784D01*
X106448624Y-89162812D01*
X106414000Y-88988741D01*
X106414000Y-88811259D01*
X106448624Y-88637188D01*
X106516544Y-88473216D01*
X106615147Y-88325646D01*
X106740646Y-88200147D01*
X106888216Y-88101544D01*
X107052188Y-88033624D01*
X107226259Y-87999000D01*
X107403741Y-87999000D01*
X107577812Y-88033624D01*
X107577812Y-88033624D01*
G37*
G36*
X172347812Y-88033624D02*
X172511784Y-88101544D01*
X172659354Y-88200147D01*
X172784853Y-88325646D01*
X172883456Y-88473216D01*
X172951376Y-88637188D01*
X172986000Y-88811259D01*
X172986000Y-88988741D01*
X172951376Y-89162812D01*
X172883456Y-89326784D01*
X172784853Y-89474354D01*
X172659354Y-89599853D01*
X172511784Y-89698456D01*
X172347812Y-89766376D01*
X172173741Y-89801000D01*
X171996259Y-89801000D01*
X171822188Y-89766376D01*
X171658216Y-89698456D01*
X171510646Y-89599853D01*
X171385147Y-89474354D01*
X171286544Y-89326784D01*
X171218624Y-89162812D01*
X171184000Y-88988741D01*
X171184000Y-88811259D01*
X171218624Y-88637188D01*
X171286544Y-88473216D01*
X171385147Y-88325646D01*
X171510646Y-88200147D01*
X171658216Y-88101544D01*
X171822188Y-88033624D01*
X171996259Y-87999000D01*
X172173741Y-87999000D01*
X172347812Y-88033624D01*
X172347812Y-88033624D01*
G37*
G36*
X238975993Y-88094203D02*
X239040414Y-88113744D01*
X239099776Y-88145475D01*
X239151817Y-88188183D01*
X239194525Y-88240224D01*
X239226256Y-88299586D01*
X239245797Y-88364007D01*
X239253000Y-88437141D01*
X239253000Y-89362859D01*
X239245797Y-89435993D01*
X239226256Y-89500414D01*
X239194525Y-89559776D01*
X239151817Y-89611817D01*
X239099776Y-89654525D01*
X239040414Y-89686256D01*
X238975993Y-89705797D01*
X238902859Y-89713000D01*
X237601141Y-89713000D01*
X237528007Y-89705797D01*
X237463586Y-89686256D01*
X237404224Y-89654525D01*
X237352183Y-89611817D01*
X237309475Y-89559776D01*
X237277744Y-89500414D01*
X237258203Y-89435993D01*
X237251000Y-89362859D01*
X237251000Y-88437141D01*
X237258203Y-88364007D01*
X237277744Y-88299586D01*
X237309475Y-88240224D01*
X237352183Y-88188183D01*
X237404224Y-88145475D01*
X237463586Y-88113744D01*
X237528007Y-88094203D01*
X237601141Y-88087000D01*
X238902859Y-88087000D01*
X238975993Y-88094203D01*
X238975993Y-88094203D01*
G37*
G36*
X213575993Y-88094203D02*
X213640414Y-88113744D01*
X213699776Y-88145475D01*
X213751817Y-88188183D01*
X213794525Y-88240224D01*
X213826256Y-88299586D01*
X213845797Y-88364007D01*
X213853000Y-88437141D01*
X213853000Y-89362859D01*
X213845797Y-89435993D01*
X213826256Y-89500414D01*
X213794525Y-89559776D01*
X213751817Y-89611817D01*
X213699776Y-89654525D01*
X213640414Y-89686256D01*
X213575993Y-89705797D01*
X213502859Y-89713000D01*
X212201141Y-89713000D01*
X212128007Y-89705797D01*
X212063586Y-89686256D01*
X212004224Y-89654525D01*
X211952183Y-89611817D01*
X211909475Y-89559776D01*
X211877744Y-89500414D01*
X211858203Y-89435993D01*
X211851000Y-89362859D01*
X211851000Y-88437141D01*
X211858203Y-88364007D01*
X211877744Y-88299586D01*
X211909475Y-88240224D01*
X211952183Y-88188183D01*
X212004224Y-88145475D01*
X212063586Y-88113744D01*
X212128007Y-88094203D01*
X212201141Y-88087000D01*
X213502859Y-88087000D01*
X213575993Y-88094203D01*
X213575993Y-88094203D01*
G37*
G36*
X94823000Y-88837000D02*
X94021000Y-88837000D01*
X94021000Y-86735000D01*
X94823000Y-86735000D01*
X94823000Y-88837000D01*
X94823000Y-88837000D01*
G37*
G36*
X195842812Y-86128624D02*
X196006784Y-86196544D01*
X196154354Y-86295147D01*
X196279853Y-86420646D01*
X196378456Y-86568216D01*
X196446376Y-86732188D01*
X196481000Y-86906259D01*
X196481000Y-87083741D01*
X196446376Y-87257812D01*
X196378456Y-87421784D01*
X196279853Y-87569354D01*
X196154354Y-87694853D01*
X196006784Y-87793456D01*
X195842812Y-87861376D01*
X195668741Y-87896000D01*
X195491259Y-87896000D01*
X195317188Y-87861376D01*
X195153216Y-87793456D01*
X195005646Y-87694853D01*
X194880147Y-87569354D01*
X194781544Y-87421784D01*
X194713624Y-87257812D01*
X194679000Y-87083741D01*
X194679000Y-86906259D01*
X194713624Y-86732188D01*
X194781544Y-86568216D01*
X194880147Y-86420646D01*
X195005646Y-86295147D01*
X195153216Y-86196544D01*
X195317188Y-86128624D01*
X195491259Y-86094000D01*
X195668741Y-86094000D01*
X195842812Y-86128624D01*
X195842812Y-86128624D01*
G37*
G36*
X190762812Y-86128624D02*
X190926784Y-86196544D01*
X191074354Y-86295147D01*
X191199853Y-86420646D01*
X191298456Y-86568216D01*
X191366376Y-86732188D01*
X191401000Y-86906259D01*
X191401000Y-87083741D01*
X191366376Y-87257812D01*
X191298456Y-87421784D01*
X191199853Y-87569354D01*
X191074354Y-87694853D01*
X190926784Y-87793456D01*
X190762812Y-87861376D01*
X190588741Y-87896000D01*
X190411259Y-87896000D01*
X190237188Y-87861376D01*
X190073216Y-87793456D01*
X189925646Y-87694853D01*
X189800147Y-87569354D01*
X189701544Y-87421784D01*
X189633624Y-87257812D01*
X189599000Y-87083741D01*
X189599000Y-86906259D01*
X189633624Y-86732188D01*
X189701544Y-86568216D01*
X189800147Y-86420646D01*
X189925646Y-86295147D01*
X190073216Y-86196544D01*
X190237188Y-86128624D01*
X190411259Y-86094000D01*
X190588741Y-86094000D01*
X190762812Y-86128624D01*
X190762812Y-86128624D01*
G37*
G36*
X165362812Y-86128624D02*
X165526784Y-86196544D01*
X165674354Y-86295147D01*
X165799853Y-86420646D01*
X165898456Y-86568216D01*
X165966376Y-86732188D01*
X166001000Y-86906259D01*
X166001000Y-87083741D01*
X165966376Y-87257812D01*
X165898456Y-87421784D01*
X165799853Y-87569354D01*
X165674354Y-87694853D01*
X165526784Y-87793456D01*
X165362812Y-87861376D01*
X165188741Y-87896000D01*
X165011259Y-87896000D01*
X164837188Y-87861376D01*
X164673216Y-87793456D01*
X164525646Y-87694853D01*
X164400147Y-87569354D01*
X164301544Y-87421784D01*
X164233624Y-87257812D01*
X164199000Y-87083741D01*
X164199000Y-86906259D01*
X164233624Y-86732188D01*
X164301544Y-86568216D01*
X164400147Y-86420646D01*
X164525646Y-86295147D01*
X164673216Y-86196544D01*
X164837188Y-86128624D01*
X165011259Y-86094000D01*
X165188741Y-86094000D01*
X165362812Y-86128624D01*
X165362812Y-86128624D01*
G37*
G36*
X109482812Y-86128624D02*
X109646784Y-86196544D01*
X109794354Y-86295147D01*
X109919853Y-86420646D01*
X110018456Y-86568216D01*
X110086376Y-86732188D01*
X110121000Y-86906259D01*
X110121000Y-87083741D01*
X110086376Y-87257812D01*
X110018456Y-87421784D01*
X109919853Y-87569354D01*
X109794354Y-87694853D01*
X109646784Y-87793456D01*
X109482812Y-87861376D01*
X109308741Y-87896000D01*
X109131259Y-87896000D01*
X108957188Y-87861376D01*
X108793216Y-87793456D01*
X108645646Y-87694853D01*
X108520147Y-87569354D01*
X108421544Y-87421784D01*
X108353624Y-87257812D01*
X108319000Y-87083741D01*
X108319000Y-86906259D01*
X108353624Y-86732188D01*
X108421544Y-86568216D01*
X108520147Y-86420646D01*
X108645646Y-86295147D01*
X108793216Y-86196544D01*
X108957188Y-86128624D01*
X109131259Y-86094000D01*
X109308741Y-86094000D01*
X109482812Y-86128624D01*
X109482812Y-86128624D01*
G37*
G36*
X170442812Y-86128624D02*
X170606784Y-86196544D01*
X170754354Y-86295147D01*
X170879853Y-86420646D01*
X170978456Y-86568216D01*
X171046376Y-86732188D01*
X171081000Y-86906259D01*
X171081000Y-87083741D01*
X171046376Y-87257812D01*
X170978456Y-87421784D01*
X170879853Y-87569354D01*
X170754354Y-87694853D01*
X170606784Y-87793456D01*
X170442812Y-87861376D01*
X170268741Y-87896000D01*
X170091259Y-87896000D01*
X169917188Y-87861376D01*
X169753216Y-87793456D01*
X169605646Y-87694853D01*
X169480147Y-87569354D01*
X169381544Y-87421784D01*
X169313624Y-87257812D01*
X169279000Y-87083741D01*
X169279000Y-86906259D01*
X169313624Y-86732188D01*
X169381544Y-86568216D01*
X169480147Y-86420646D01*
X169605646Y-86295147D01*
X169753216Y-86196544D01*
X169917188Y-86128624D01*
X170091259Y-86094000D01*
X170268741Y-86094000D01*
X170442812Y-86128624D01*
X170442812Y-86128624D01*
G37*
G36*
X114562812Y-86128624D02*
X114726784Y-86196544D01*
X114874354Y-86295147D01*
X114999853Y-86420646D01*
X115098456Y-86568216D01*
X115166376Y-86732188D01*
X115201000Y-86906259D01*
X115201000Y-87083741D01*
X115166376Y-87257812D01*
X115098456Y-87421784D01*
X114999853Y-87569354D01*
X114874354Y-87694853D01*
X114726784Y-87793456D01*
X114562812Y-87861376D01*
X114388741Y-87896000D01*
X114211259Y-87896000D01*
X114037188Y-87861376D01*
X113873216Y-87793456D01*
X113725646Y-87694853D01*
X113600147Y-87569354D01*
X113501544Y-87421784D01*
X113433624Y-87257812D01*
X113399000Y-87083741D01*
X113399000Y-86906259D01*
X113433624Y-86732188D01*
X113501544Y-86568216D01*
X113600147Y-86420646D01*
X113725646Y-86295147D01*
X113873216Y-86196544D01*
X114037188Y-86128624D01*
X114211259Y-86094000D01*
X114388741Y-86094000D01*
X114562812Y-86128624D01*
X114562812Y-86128624D01*
G37*
G36*
X139962812Y-86128624D02*
X140126784Y-86196544D01*
X140274354Y-86295147D01*
X140399853Y-86420646D01*
X140498456Y-86568216D01*
X140566376Y-86732188D01*
X140601000Y-86906259D01*
X140601000Y-87083741D01*
X140566376Y-87257812D01*
X140498456Y-87421784D01*
X140399853Y-87569354D01*
X140274354Y-87694853D01*
X140126784Y-87793456D01*
X139962812Y-87861376D01*
X139788741Y-87896000D01*
X139611259Y-87896000D01*
X139437188Y-87861376D01*
X139273216Y-87793456D01*
X139125646Y-87694853D01*
X139000147Y-87569354D01*
X138901544Y-87421784D01*
X138833624Y-87257812D01*
X138799000Y-87083741D01*
X138799000Y-86906259D01*
X138833624Y-86732188D01*
X138901544Y-86568216D01*
X139000147Y-86420646D01*
X139125646Y-86295147D01*
X139273216Y-86196544D01*
X139437188Y-86128624D01*
X139611259Y-86094000D01*
X139788741Y-86094000D01*
X139962812Y-86128624D01*
X139962812Y-86128624D01*
G37*
G36*
X134882812Y-86128624D02*
X135046784Y-86196544D01*
X135194354Y-86295147D01*
X135319853Y-86420646D01*
X135418456Y-86568216D01*
X135486376Y-86732188D01*
X135521000Y-86906259D01*
X135521000Y-87083741D01*
X135486376Y-87257812D01*
X135418456Y-87421784D01*
X135319853Y-87569354D01*
X135194354Y-87694853D01*
X135046784Y-87793456D01*
X134882812Y-87861376D01*
X134708741Y-87896000D01*
X134531259Y-87896000D01*
X134357188Y-87861376D01*
X134193216Y-87793456D01*
X134045646Y-87694853D01*
X133920147Y-87569354D01*
X133821544Y-87421784D01*
X133753624Y-87257812D01*
X133719000Y-87083741D01*
X133719000Y-86906259D01*
X133753624Y-86732188D01*
X133821544Y-86568216D01*
X133920147Y-86420646D01*
X134045646Y-86295147D01*
X134193216Y-86196544D01*
X134357188Y-86128624D01*
X134531259Y-86094000D01*
X134708741Y-86094000D01*
X134882812Y-86128624D01*
X134882812Y-86128624D01*
G37*
G36*
X89751000Y-87465000D02*
X88049000Y-87465000D01*
X88049000Y-85763000D01*
X89751000Y-85763000D01*
X89751000Y-87465000D01*
X89751000Y-87465000D01*
G37*
G36*
X82131000Y-87465000D02*
X80429000Y-87465000D01*
X80429000Y-85763000D01*
X82131000Y-85763000D01*
X82131000Y-87465000D01*
X82131000Y-87465000D01*
G37*
G36*
X78146000Y-87415000D02*
X76794000Y-87415000D01*
X76794000Y-85813000D01*
X78146000Y-85813000D01*
X78146000Y-87415000D01*
X78146000Y-87415000D01*
G37*
G36*
X112022812Y-85493624D02*
X112186784Y-85561544D01*
X112334354Y-85660147D01*
X112459853Y-85785646D01*
X112558456Y-85933216D01*
X112626376Y-86097188D01*
X112661000Y-86271259D01*
X112661000Y-86448741D01*
X112626376Y-86622812D01*
X112558456Y-86786784D01*
X112459853Y-86934354D01*
X112334354Y-87059853D01*
X112186784Y-87158456D01*
X112022812Y-87226376D01*
X111848741Y-87261000D01*
X111671259Y-87261000D01*
X111497188Y-87226376D01*
X111333216Y-87158456D01*
X111185646Y-87059853D01*
X111060147Y-86934354D01*
X110961544Y-86786784D01*
X110893624Y-86622812D01*
X110859000Y-86448741D01*
X110859000Y-86271259D01*
X110893624Y-86097188D01*
X110961544Y-85933216D01*
X111060147Y-85785646D01*
X111185646Y-85660147D01*
X111333216Y-85561544D01*
X111497188Y-85493624D01*
X111671259Y-85459000D01*
X111848741Y-85459000D01*
X112022812Y-85493624D01*
X112022812Y-85493624D01*
G37*
G36*
X167902812Y-85493624D02*
X168066784Y-85561544D01*
X168214354Y-85660147D01*
X168339853Y-85785646D01*
X168438456Y-85933216D01*
X168506376Y-86097188D01*
X168541000Y-86271259D01*
X168541000Y-86448741D01*
X168506376Y-86622812D01*
X168438456Y-86786784D01*
X168339853Y-86934354D01*
X168214354Y-87059853D01*
X168066784Y-87158456D01*
X167902812Y-87226376D01*
X167728741Y-87261000D01*
X167551259Y-87261000D01*
X167377188Y-87226376D01*
X167213216Y-87158456D01*
X167065646Y-87059853D01*
X166940147Y-86934354D01*
X166841544Y-86786784D01*
X166773624Y-86622812D01*
X166739000Y-86448741D01*
X166739000Y-86271259D01*
X166773624Y-86097188D01*
X166841544Y-85933216D01*
X166940147Y-85785646D01*
X167065646Y-85660147D01*
X167213216Y-85561544D01*
X167377188Y-85493624D01*
X167551259Y-85459000D01*
X167728741Y-85459000D01*
X167902812Y-85493624D01*
X167902812Y-85493624D01*
G37*
G36*
X137422812Y-85493624D02*
X137586784Y-85561544D01*
X137734354Y-85660147D01*
X137859853Y-85785646D01*
X137958456Y-85933216D01*
X138026376Y-86097188D01*
X138061000Y-86271259D01*
X138061000Y-86448741D01*
X138026376Y-86622812D01*
X137958456Y-86786784D01*
X137859853Y-86934354D01*
X137734354Y-87059853D01*
X137586784Y-87158456D01*
X137422812Y-87226376D01*
X137248741Y-87261000D01*
X137071259Y-87261000D01*
X136897188Y-87226376D01*
X136733216Y-87158456D01*
X136585646Y-87059853D01*
X136460147Y-86934354D01*
X136361544Y-86786784D01*
X136293624Y-86622812D01*
X136259000Y-86448741D01*
X136259000Y-86271259D01*
X136293624Y-86097188D01*
X136361544Y-85933216D01*
X136460147Y-85785646D01*
X136585646Y-85660147D01*
X136733216Y-85561544D01*
X136897188Y-85493624D01*
X137071259Y-85459000D01*
X137248741Y-85459000D01*
X137422812Y-85493624D01*
X137422812Y-85493624D01*
G37*
G36*
X193302812Y-85493624D02*
X193466784Y-85561544D01*
X193614354Y-85660147D01*
X193739853Y-85785646D01*
X193838456Y-85933216D01*
X193906376Y-86097188D01*
X193941000Y-86271259D01*
X193941000Y-86448741D01*
X193906376Y-86622812D01*
X193838456Y-86786784D01*
X193739853Y-86934354D01*
X193614354Y-87059853D01*
X193466784Y-87158456D01*
X193302812Y-87226376D01*
X193128741Y-87261000D01*
X192951259Y-87261000D01*
X192777188Y-87226376D01*
X192613216Y-87158456D01*
X192465646Y-87059853D01*
X192340147Y-86934354D01*
X192241544Y-86786784D01*
X192173624Y-86622812D01*
X192139000Y-86448741D01*
X192139000Y-86271259D01*
X192173624Y-86097188D01*
X192241544Y-85933216D01*
X192340147Y-85785646D01*
X192465646Y-85660147D01*
X192613216Y-85561544D01*
X192777188Y-85493624D01*
X192951259Y-85459000D01*
X193128741Y-85459000D01*
X193302812Y-85493624D01*
X193302812Y-85493624D01*
G37*
G36*
X238975993Y-85554203D02*
X239040414Y-85573744D01*
X239099776Y-85605475D01*
X239151817Y-85648183D01*
X239194525Y-85700224D01*
X239226256Y-85759586D01*
X239245797Y-85824007D01*
X239253000Y-85897141D01*
X239253000Y-86822859D01*
X239245797Y-86895993D01*
X239226256Y-86960414D01*
X239194525Y-87019776D01*
X239151817Y-87071817D01*
X239099776Y-87114525D01*
X239040414Y-87146256D01*
X238975993Y-87165797D01*
X238902859Y-87173000D01*
X237601141Y-87173000D01*
X237528007Y-87165797D01*
X237463586Y-87146256D01*
X237404224Y-87114525D01*
X237352183Y-87071817D01*
X237309475Y-87019776D01*
X237277744Y-86960414D01*
X237258203Y-86895993D01*
X237251000Y-86822859D01*
X237251000Y-85897141D01*
X237258203Y-85824007D01*
X237277744Y-85759586D01*
X237309475Y-85700224D01*
X237352183Y-85648183D01*
X237404224Y-85605475D01*
X237463586Y-85573744D01*
X237528007Y-85554203D01*
X237601141Y-85547000D01*
X238902859Y-85547000D01*
X238975993Y-85554203D01*
X238975993Y-85554203D01*
G37*
G36*
X213575993Y-85554203D02*
X213640414Y-85573744D01*
X213699776Y-85605475D01*
X213751817Y-85648183D01*
X213794525Y-85700224D01*
X213826256Y-85759586D01*
X213845797Y-85824007D01*
X213853000Y-85897141D01*
X213853000Y-86822859D01*
X213845797Y-86895993D01*
X213826256Y-86960414D01*
X213794525Y-87019776D01*
X213751817Y-87071817D01*
X213699776Y-87114525D01*
X213640414Y-87146256D01*
X213575993Y-87165797D01*
X213502859Y-87173000D01*
X212201141Y-87173000D01*
X212128007Y-87165797D01*
X212063586Y-87146256D01*
X212004224Y-87114525D01*
X211952183Y-87071817D01*
X211909475Y-87019776D01*
X211877744Y-86960414D01*
X211858203Y-86895993D01*
X211851000Y-86822859D01*
X211851000Y-85897141D01*
X211858203Y-85824007D01*
X211877744Y-85759586D01*
X211909475Y-85700224D01*
X211952183Y-85648183D01*
X212004224Y-85605475D01*
X212063586Y-85573744D01*
X212128007Y-85554203D01*
X212201141Y-85547000D01*
X213502859Y-85547000D01*
X213575993Y-85554203D01*
X213575993Y-85554203D01*
G37*
G36*
X95389000Y-85633000D02*
X93587000Y-85633000D01*
X93587000Y-83531000D01*
X95389000Y-83531000D01*
X95389000Y-85633000D01*
X95389000Y-85633000D01*
G37*
G36*
X89751000Y-84925000D02*
X88049000Y-84925000D01*
X88049000Y-83223000D01*
X89751000Y-83223000D01*
X89751000Y-84925000D01*
X89751000Y-84925000D01*
G37*
G36*
X82131000Y-84925000D02*
X80429000Y-84925000D01*
X80429000Y-83223000D01*
X82131000Y-83223000D01*
X82131000Y-84925000D01*
X82131000Y-84925000D01*
G37*
G36*
X238975993Y-83014203D02*
X239040414Y-83033744D01*
X239099776Y-83065475D01*
X239151817Y-83108183D01*
X239194525Y-83160224D01*
X239226256Y-83219586D01*
X239245797Y-83284007D01*
X239253000Y-83357141D01*
X239253000Y-84282859D01*
X239245797Y-84355993D01*
X239226256Y-84420414D01*
X239194525Y-84479776D01*
X239151817Y-84531817D01*
X239099776Y-84574525D01*
X239040414Y-84606256D01*
X238975993Y-84625797D01*
X238902859Y-84633000D01*
X237601141Y-84633000D01*
X237528007Y-84625797D01*
X237463586Y-84606256D01*
X237404224Y-84574525D01*
X237352183Y-84531817D01*
X237309475Y-84479776D01*
X237277744Y-84420414D01*
X237258203Y-84355993D01*
X237251000Y-84282859D01*
X237251000Y-83357141D01*
X237258203Y-83284007D01*
X237277744Y-83219586D01*
X237309475Y-83160224D01*
X237352183Y-83108183D01*
X237404224Y-83065475D01*
X237463586Y-83033744D01*
X237528007Y-83014203D01*
X237601141Y-83007000D01*
X238902859Y-83007000D01*
X238975993Y-83014203D01*
X238975993Y-83014203D01*
G37*
G36*
X213575993Y-83014203D02*
X213640414Y-83033744D01*
X213699776Y-83065475D01*
X213751817Y-83108183D01*
X213794525Y-83160224D01*
X213826256Y-83219586D01*
X213845797Y-83284007D01*
X213853000Y-83357141D01*
X213853000Y-84282859D01*
X213845797Y-84355993D01*
X213826256Y-84420414D01*
X213794525Y-84479776D01*
X213751817Y-84531817D01*
X213699776Y-84574525D01*
X213640414Y-84606256D01*
X213575993Y-84625797D01*
X213502859Y-84633000D01*
X212201141Y-84633000D01*
X212128007Y-84625797D01*
X212063586Y-84606256D01*
X212004224Y-84574525D01*
X211952183Y-84531817D01*
X211909475Y-84479776D01*
X211877744Y-84420414D01*
X211858203Y-84355993D01*
X211851000Y-84282859D01*
X211851000Y-83357141D01*
X211858203Y-83284007D01*
X211877744Y-83219586D01*
X211909475Y-83160224D01*
X211952183Y-83108183D01*
X212004224Y-83065475D01*
X212063586Y-83033744D01*
X212128007Y-83014203D01*
X212201141Y-83007000D01*
X213502859Y-83007000D01*
X213575993Y-83014203D01*
X213575993Y-83014203D01*
G37*
G36*
X89751000Y-82385000D02*
X88049000Y-82385000D01*
X88049000Y-80683000D01*
X89751000Y-80683000D01*
X89751000Y-82385000D01*
X89751000Y-82385000D01*
G37*
G36*
X82131000Y-82385000D02*
X80429000Y-82385000D01*
X80429000Y-80683000D01*
X82131000Y-80683000D01*
X82131000Y-82385000D01*
X82131000Y-82385000D01*
G37*
G36*
X213575993Y-80474203D02*
X213640414Y-80493744D01*
X213699776Y-80525475D01*
X213751817Y-80568183D01*
X213794525Y-80620224D01*
X213826256Y-80679586D01*
X213845797Y-80744007D01*
X213853000Y-80817141D01*
X213853000Y-81742859D01*
X213845797Y-81815993D01*
X213826256Y-81880414D01*
X213794525Y-81939776D01*
X213751817Y-81991817D01*
X213699776Y-82034525D01*
X213640414Y-82066256D01*
X213575993Y-82085797D01*
X213502859Y-82093000D01*
X212201141Y-82093000D01*
X212128007Y-82085797D01*
X212063586Y-82066256D01*
X212004224Y-82034525D01*
X211952183Y-81991817D01*
X211909475Y-81939776D01*
X211877744Y-81880414D01*
X211858203Y-81815993D01*
X211851000Y-81742859D01*
X211851000Y-80817141D01*
X211858203Y-80744007D01*
X211877744Y-80679586D01*
X211909475Y-80620224D01*
X211952183Y-80568183D01*
X212004224Y-80525475D01*
X212063586Y-80493744D01*
X212128007Y-80474203D01*
X212201141Y-80467000D01*
X213502859Y-80467000D01*
X213575993Y-80474203D01*
X213575993Y-80474203D01*
G37*
G36*
X238975993Y-80474203D02*
X239040414Y-80493744D01*
X239099776Y-80525475D01*
X239151817Y-80568183D01*
X239194525Y-80620224D01*
X239226256Y-80679586D01*
X239245797Y-80744007D01*
X239253000Y-80817141D01*
X239253000Y-81742859D01*
X239245797Y-81815993D01*
X239226256Y-81880414D01*
X239194525Y-81939776D01*
X239151817Y-81991817D01*
X239099776Y-82034525D01*
X239040414Y-82066256D01*
X238975993Y-82085797D01*
X238902859Y-82093000D01*
X237601141Y-82093000D01*
X237528007Y-82085797D01*
X237463586Y-82066256D01*
X237404224Y-82034525D01*
X237352183Y-81991817D01*
X237309475Y-81939776D01*
X237277744Y-81880414D01*
X237258203Y-81815993D01*
X237251000Y-81742859D01*
X237251000Y-80817141D01*
X237258203Y-80744007D01*
X237277744Y-80679586D01*
X237309475Y-80620224D01*
X237352183Y-80568183D01*
X237404224Y-80525475D01*
X237463586Y-80493744D01*
X237528007Y-80474203D01*
X237601141Y-80467000D01*
X238902859Y-80467000D01*
X238975993Y-80474203D01*
X238975993Y-80474203D01*
G37*
G36*
X95389000Y-81633000D02*
X93587000Y-81633000D01*
X93587000Y-79531000D01*
X95389000Y-79531000D01*
X95389000Y-81633000D01*
X95389000Y-81633000D01*
G37*
G36*
X77896000Y-81611000D02*
X77044000Y-81611000D01*
X77044000Y-80309000D01*
X77896000Y-80309000D01*
X77896000Y-81611000D01*
X77896000Y-81611000D01*
G37*
G36*
X226698399Y-71075499D02*
X227572125Y-71437408D01*
X228358462Y-71962822D01*
X229027178Y-72631538D01*
X229552592Y-73417875D01*
X229914501Y-74291601D01*
X230099000Y-75219141D01*
X230099000Y-76164859D01*
X229914501Y-77092399D01*
X229552592Y-77966125D01*
X229027178Y-78752462D01*
X228358462Y-79421178D01*
X227572125Y-79946592D01*
X226698399Y-80308501D01*
X225770859Y-80493000D01*
X224825141Y-80493000D01*
X223897601Y-80308501D01*
X223023875Y-79946592D01*
X222237538Y-79421178D01*
X221568822Y-78752462D01*
X221043408Y-77966125D01*
X220681499Y-77092399D01*
X220497000Y-76164859D01*
X220497000Y-75219141D01*
X220681499Y-74291601D01*
X221043408Y-73417875D01*
X221568822Y-72631538D01*
X222237538Y-71962822D01*
X223023875Y-71437408D01*
X223897601Y-71075499D01*
X224825141Y-70891000D01*
X225770859Y-70891000D01*
X226698399Y-71075499D01*
X226698399Y-71075499D01*
G37*
G36*
X82131000Y-79845000D02*
X80429000Y-79845000D01*
X80429000Y-78143000D01*
X82131000Y-78143000D01*
X82131000Y-79845000D01*
X82131000Y-79845000D01*
G37*
G36*
X89751000Y-79845000D02*
X88049000Y-79845000D01*
X88049000Y-78143000D01*
X89751000Y-78143000D01*
X89751000Y-79845000D01*
X89751000Y-79845000D01*
G37*
G36*
X77896000Y-79711000D02*
X77044000Y-79711000D01*
X77044000Y-78409000D01*
X77896000Y-78409000D01*
X77896000Y-79711000D01*
X77896000Y-79711000D01*
G37*
G36*
X238975993Y-77934203D02*
X239040414Y-77953744D01*
X239099776Y-77985475D01*
X239151817Y-78028183D01*
X239194525Y-78080224D01*
X239226256Y-78139586D01*
X239245797Y-78204007D01*
X239253000Y-78277141D01*
X239253000Y-79202859D01*
X239245797Y-79275993D01*
X239226256Y-79340414D01*
X239194525Y-79399776D01*
X239151817Y-79451817D01*
X239099776Y-79494525D01*
X239040414Y-79526256D01*
X238975993Y-79545797D01*
X238902859Y-79553000D01*
X237601141Y-79553000D01*
X237528007Y-79545797D01*
X237463586Y-79526256D01*
X237404224Y-79494525D01*
X237352183Y-79451817D01*
X237309475Y-79399776D01*
X237277744Y-79340414D01*
X237258203Y-79275993D01*
X237251000Y-79202859D01*
X237251000Y-78277141D01*
X237258203Y-78204007D01*
X237277744Y-78139586D01*
X237309475Y-78080224D01*
X237352183Y-78028183D01*
X237404224Y-77985475D01*
X237463586Y-77953744D01*
X237528007Y-77934203D01*
X237601141Y-77927000D01*
X238902859Y-77927000D01*
X238975993Y-77934203D01*
X238975993Y-77934203D01*
G37*
G36*
X213575993Y-77934203D02*
X213640414Y-77953744D01*
X213699776Y-77985475D01*
X213751817Y-78028183D01*
X213794525Y-78080224D01*
X213826256Y-78139586D01*
X213845797Y-78204007D01*
X213853000Y-78277141D01*
X213853000Y-79202859D01*
X213845797Y-79275993D01*
X213826256Y-79340414D01*
X213794525Y-79399776D01*
X213751817Y-79451817D01*
X213699776Y-79494525D01*
X213640414Y-79526256D01*
X213575993Y-79545797D01*
X213502859Y-79553000D01*
X212201141Y-79553000D01*
X212128007Y-79545797D01*
X212063586Y-79526256D01*
X212004224Y-79494525D01*
X211952183Y-79451817D01*
X211909475Y-79399776D01*
X211877744Y-79340414D01*
X211858203Y-79275993D01*
X211851000Y-79202859D01*
X211851000Y-78277141D01*
X211858203Y-78204007D01*
X211877744Y-78139586D01*
X211909475Y-78080224D01*
X211952183Y-78028183D01*
X212004224Y-77985475D01*
X212063586Y-77953744D01*
X212128007Y-77934203D01*
X212201141Y-77927000D01*
X213502859Y-77927000D01*
X213575993Y-77934203D01*
X213575993Y-77934203D01*
G37*
G36*
X67449000Y-78711000D02*
X65647000Y-78711000D01*
X65647000Y-76609000D01*
X67449000Y-76609000D01*
X67449000Y-78711000D01*
X67449000Y-78711000D01*
G37*
G36*
X144917000Y-78285000D02*
X142815000Y-78285000D01*
X142815000Y-76683000D01*
X144917000Y-76683000D01*
X144917000Y-78285000D01*
X144917000Y-78285000D01*
G37*
G36*
X161883000Y-78285000D02*
X159781000Y-78285000D01*
X159781000Y-76683000D01*
X161883000Y-76683000D01*
X161883000Y-78285000D01*
X161883000Y-78285000D01*
G37*
G36*
X105089000Y-78285000D02*
X102987000Y-78285000D01*
X102987000Y-76683000D01*
X105089000Y-76683000D01*
X105089000Y-78285000D01*
X105089000Y-78285000D01*
G37*
G36*
X201915000Y-78285000D02*
X199813000Y-78285000D01*
X199813000Y-76683000D01*
X201915000Y-76683000D01*
X201915000Y-78285000D01*
X201915000Y-78285000D01*
G37*
G36*
X157111000Y-78267000D02*
X155309000Y-78267000D01*
X155309000Y-76165000D01*
X157111000Y-76165000D01*
X157111000Y-78267000D01*
X157111000Y-78267000D01*
G37*
G36*
X100469000Y-78267000D02*
X98667000Y-78267000D01*
X98667000Y-76165000D01*
X100469000Y-76165000D01*
X100469000Y-78267000D01*
X100469000Y-78267000D01*
G37*
G36*
X149491000Y-78267000D02*
X147689000Y-78267000D01*
X147689000Y-76165000D01*
X149491000Y-76165000D01*
X149491000Y-78267000D01*
X149491000Y-78267000D01*
G37*
G36*
X206133000Y-78203000D02*
X204331000Y-78203000D01*
X204331000Y-76101000D01*
X206133000Y-76101000D01*
X206133000Y-78203000D01*
X206133000Y-78203000D01*
G37*
G36*
X71317000Y-78075000D02*
X70415000Y-78075000D01*
X70415000Y-77373000D01*
X71317000Y-77373000D01*
X71317000Y-78075000D01*
X71317000Y-78075000D01*
G37*
G36*
X168183000Y-77135000D02*
X166081000Y-77135000D01*
X166081000Y-73233000D01*
X168183000Y-73233000D01*
X168183000Y-77135000D01*
X168183000Y-77135000D01*
G37*
G36*
X138617000Y-77135000D02*
X136515000Y-77135000D01*
X136515000Y-73233000D01*
X138617000Y-73233000D01*
X138617000Y-77135000D01*
X138617000Y-77135000D01*
G37*
G36*
X195615000Y-77135000D02*
X193513000Y-77135000D01*
X193513000Y-73233000D01*
X195615000Y-73233000D01*
X195615000Y-77135000D01*
X195615000Y-77135000D01*
G37*
G36*
X111389000Y-77135000D02*
X109287000Y-77135000D01*
X109287000Y-73233000D01*
X111389000Y-73233000D01*
X111389000Y-77135000D01*
X111389000Y-77135000D01*
G37*
G36*
X238975993Y-75394203D02*
X239040414Y-75413744D01*
X239099776Y-75445475D01*
X239151817Y-75488183D01*
X239194525Y-75540224D01*
X239226256Y-75599586D01*
X239245797Y-75664007D01*
X239253000Y-75737141D01*
X239253000Y-76662859D01*
X239245797Y-76735993D01*
X239226256Y-76800414D01*
X239194525Y-76859776D01*
X239151817Y-76911817D01*
X239099776Y-76954525D01*
X239040414Y-76986256D01*
X238975993Y-77005797D01*
X238902859Y-77013000D01*
X237601141Y-77013000D01*
X237528007Y-77005797D01*
X237463586Y-76986256D01*
X237404224Y-76954525D01*
X237352183Y-76911817D01*
X237309475Y-76859776D01*
X237277744Y-76800414D01*
X237258203Y-76735993D01*
X237251000Y-76662859D01*
X237251000Y-75737141D01*
X237258203Y-75664007D01*
X237277744Y-75599586D01*
X237309475Y-75540224D01*
X237352183Y-75488183D01*
X237404224Y-75445475D01*
X237463586Y-75413744D01*
X237528007Y-75394203D01*
X237601141Y-75387000D01*
X238902859Y-75387000D01*
X238975993Y-75394203D01*
X238975993Y-75394203D01*
G37*
G36*
X213575993Y-75394203D02*
X213640414Y-75413744D01*
X213699776Y-75445475D01*
X213751817Y-75488183D01*
X213794525Y-75540224D01*
X213826256Y-75599586D01*
X213845797Y-75664007D01*
X213853000Y-75737141D01*
X213853000Y-76662859D01*
X213845797Y-76735993D01*
X213826256Y-76800414D01*
X213794525Y-76859776D01*
X213751817Y-76911817D01*
X213699776Y-76954525D01*
X213640414Y-76986256D01*
X213575993Y-77005797D01*
X213502859Y-77013000D01*
X212201141Y-77013000D01*
X212128007Y-77005797D01*
X212063586Y-76986256D01*
X212004224Y-76954525D01*
X211952183Y-76911817D01*
X211909475Y-76859776D01*
X211877744Y-76800414D01*
X211858203Y-76735993D01*
X211851000Y-76662859D01*
X211851000Y-75737141D01*
X211858203Y-75664007D01*
X211877744Y-75599586D01*
X211909475Y-75540224D01*
X211952183Y-75488183D01*
X212004224Y-75445475D01*
X212063586Y-75413744D01*
X212128007Y-75394203D01*
X212201141Y-75387000D01*
X213502859Y-75387000D01*
X213575993Y-75394203D01*
X213575993Y-75394203D01*
G37*
G36*
X174410821Y-73945313D02*
X174410824Y-73945314D01*
X174410825Y-73945314D01*
X174571239Y-73993975D01*
X174571241Y-73993976D01*
X174571244Y-73993977D01*
X174719078Y-74072995D01*
X174848659Y-74179341D01*
X174955005Y-74308922D01*
X175034023Y-74456756D01*
X175034024Y-74456759D01*
X175034025Y-74456761D01*
X175082686Y-74617175D01*
X175082686Y-74617178D01*
X175082687Y-74617180D01*
X175095000Y-74742197D01*
X175095000Y-75625804D01*
X175082687Y-75750821D01*
X175082686Y-75750824D01*
X175082686Y-75750825D01*
X175069741Y-75793500D01*
X175034023Y-75911244D01*
X174955005Y-76059078D01*
X174848659Y-76188659D01*
X174719078Y-76295005D01*
X174571243Y-76374023D01*
X174571240Y-76374024D01*
X174571238Y-76374025D01*
X174410824Y-76422686D01*
X174410823Y-76422686D01*
X174410820Y-76422687D01*
X174244000Y-76439117D01*
X174077179Y-76422687D01*
X174077176Y-76422686D01*
X174077175Y-76422686D01*
X173916761Y-76374025D01*
X173916759Y-76374024D01*
X173916756Y-76374023D01*
X173768922Y-76295005D01*
X173639341Y-76188659D01*
X173532995Y-76059078D01*
X173453977Y-75911243D01*
X173405315Y-75750825D01*
X173405314Y-75750824D01*
X173405314Y-75750823D01*
X173405313Y-75750820D01*
X173393000Y-75625803D01*
X173393000Y-74742197D01*
X173405314Y-74617179D01*
X173451235Y-74465797D01*
X173453976Y-74456761D01*
X173453977Y-74456759D01*
X173453978Y-74456756D01*
X173532996Y-74308922D01*
X173639342Y-74179341D01*
X173768923Y-74072995D01*
X173916757Y-73993977D01*
X173916760Y-73993976D01*
X173916762Y-73993975D01*
X174077176Y-73945314D01*
X174077177Y-73945314D01*
X174077180Y-73945313D01*
X174244000Y-73928883D01*
X174410821Y-73945313D01*
X174410821Y-73945313D01*
G37*
G36*
X176950821Y-73945313D02*
X176950824Y-73945314D01*
X176950825Y-73945314D01*
X177111239Y-73993975D01*
X177111241Y-73993976D01*
X177111244Y-73993977D01*
X177259078Y-74072995D01*
X177388659Y-74179341D01*
X177495005Y-74308922D01*
X177574023Y-74456756D01*
X177574024Y-74456759D01*
X177574025Y-74456761D01*
X177622686Y-74617175D01*
X177622686Y-74617178D01*
X177622687Y-74617180D01*
X177635000Y-74742197D01*
X177635000Y-75625804D01*
X177622687Y-75750821D01*
X177622686Y-75750824D01*
X177622686Y-75750825D01*
X177609741Y-75793500D01*
X177574023Y-75911244D01*
X177495005Y-76059078D01*
X177388659Y-76188659D01*
X177259078Y-76295005D01*
X177111243Y-76374023D01*
X177111240Y-76374024D01*
X177111238Y-76374025D01*
X176950824Y-76422686D01*
X176950823Y-76422686D01*
X176950820Y-76422687D01*
X176784000Y-76439117D01*
X176617179Y-76422687D01*
X176617176Y-76422686D01*
X176617175Y-76422686D01*
X176456761Y-76374025D01*
X176456759Y-76374024D01*
X176456756Y-76374023D01*
X176308922Y-76295005D01*
X176179341Y-76188659D01*
X176072995Y-76059078D01*
X175993977Y-75911243D01*
X175945315Y-75750825D01*
X175945314Y-75750824D01*
X175945314Y-75750823D01*
X175945313Y-75750820D01*
X175933000Y-75625803D01*
X175933000Y-74742197D01*
X175945314Y-74617179D01*
X175991235Y-74465797D01*
X175993976Y-74456761D01*
X175993977Y-74456759D01*
X175993978Y-74456756D01*
X176072996Y-74308922D01*
X176179342Y-74179341D01*
X176308923Y-74072995D01*
X176456757Y-73993977D01*
X176456760Y-73993976D01*
X176456762Y-73993975D01*
X176617176Y-73945314D01*
X176617177Y-73945314D01*
X176617180Y-73945313D01*
X176784000Y-73928883D01*
X176950821Y-73945313D01*
X176950821Y-73945313D01*
G37*
G36*
X171870821Y-73945313D02*
X171870824Y-73945314D01*
X171870825Y-73945314D01*
X172031239Y-73993975D01*
X172031241Y-73993976D01*
X172031244Y-73993977D01*
X172179078Y-74072995D01*
X172308659Y-74179341D01*
X172415005Y-74308922D01*
X172494023Y-74456756D01*
X172494024Y-74456759D01*
X172494025Y-74456761D01*
X172542686Y-74617175D01*
X172542686Y-74617178D01*
X172542687Y-74617180D01*
X172555000Y-74742197D01*
X172555000Y-75625804D01*
X172542687Y-75750821D01*
X172542686Y-75750824D01*
X172542686Y-75750825D01*
X172529741Y-75793500D01*
X172494023Y-75911244D01*
X172415005Y-76059078D01*
X172308659Y-76188659D01*
X172179078Y-76295005D01*
X172031243Y-76374023D01*
X172031240Y-76374024D01*
X172031238Y-76374025D01*
X171870824Y-76422686D01*
X171870823Y-76422686D01*
X171870820Y-76422687D01*
X171704000Y-76439117D01*
X171537179Y-76422687D01*
X171537176Y-76422686D01*
X171537175Y-76422686D01*
X171376761Y-76374025D01*
X171376759Y-76374024D01*
X171376756Y-76374023D01*
X171228922Y-76295005D01*
X171099341Y-76188659D01*
X170992995Y-76059078D01*
X170913977Y-75911243D01*
X170865315Y-75750825D01*
X170865314Y-75750824D01*
X170865314Y-75750823D01*
X170865313Y-75750820D01*
X170853000Y-75625803D01*
X170853000Y-74742197D01*
X170865314Y-74617179D01*
X170911235Y-74465797D01*
X170913976Y-74456761D01*
X170913977Y-74456759D01*
X170913978Y-74456756D01*
X170992996Y-74308922D01*
X171099342Y-74179341D01*
X171228923Y-74072995D01*
X171376757Y-73993977D01*
X171376760Y-73993976D01*
X171376762Y-73993975D01*
X171537176Y-73945314D01*
X171537177Y-73945314D01*
X171537180Y-73945313D01*
X171704000Y-73928883D01*
X171870821Y-73945313D01*
X171870821Y-73945313D01*
G37*
G36*
X179490821Y-73945313D02*
X179490824Y-73945314D01*
X179490825Y-73945314D01*
X179651239Y-73993975D01*
X179651241Y-73993976D01*
X179651244Y-73993977D01*
X179799078Y-74072995D01*
X179928659Y-74179341D01*
X180035005Y-74308922D01*
X180114023Y-74456756D01*
X180114024Y-74456759D01*
X180114025Y-74456761D01*
X180162686Y-74617175D01*
X180162686Y-74617178D01*
X180162687Y-74617180D01*
X180175000Y-74742197D01*
X180175000Y-75625804D01*
X180162687Y-75750821D01*
X180162686Y-75750824D01*
X180162686Y-75750825D01*
X180149741Y-75793500D01*
X180114023Y-75911244D01*
X180035005Y-76059078D01*
X179928659Y-76188659D01*
X179799078Y-76295005D01*
X179651243Y-76374023D01*
X179651240Y-76374024D01*
X179651238Y-76374025D01*
X179490824Y-76422686D01*
X179490823Y-76422686D01*
X179490820Y-76422687D01*
X179324000Y-76439117D01*
X179157179Y-76422687D01*
X179157176Y-76422686D01*
X179157175Y-76422686D01*
X178996761Y-76374025D01*
X178996759Y-76374024D01*
X178996756Y-76374023D01*
X178848922Y-76295005D01*
X178719341Y-76188659D01*
X178612995Y-76059078D01*
X178533977Y-75911243D01*
X178485315Y-75750825D01*
X178485314Y-75750824D01*
X178485314Y-75750823D01*
X178485313Y-75750820D01*
X178473000Y-75625803D01*
X178473000Y-74742197D01*
X178485314Y-74617179D01*
X178531235Y-74465797D01*
X178533976Y-74456761D01*
X178533977Y-74456759D01*
X178533978Y-74456756D01*
X178612996Y-74308922D01*
X178719342Y-74179341D01*
X178848923Y-74072995D01*
X178996757Y-73993977D01*
X178996760Y-73993976D01*
X178996762Y-73993975D01*
X179157176Y-73945314D01*
X179157177Y-73945314D01*
X179157180Y-73945313D01*
X179324000Y-73928883D01*
X179490821Y-73945313D01*
X179490821Y-73945313D01*
G37*
G36*
X115482821Y-73945313D02*
X115482824Y-73945314D01*
X115482825Y-73945314D01*
X115643239Y-73993975D01*
X115643241Y-73993976D01*
X115643244Y-73993977D01*
X115791078Y-74072995D01*
X115920659Y-74179341D01*
X116027005Y-74308922D01*
X116106023Y-74456756D01*
X116106024Y-74456759D01*
X116106025Y-74456761D01*
X116154686Y-74617175D01*
X116154686Y-74617178D01*
X116154687Y-74617180D01*
X116167000Y-74742197D01*
X116167000Y-75625804D01*
X116154687Y-75750821D01*
X116154686Y-75750824D01*
X116154686Y-75750825D01*
X116141741Y-75793500D01*
X116106023Y-75911244D01*
X116027005Y-76059078D01*
X115920659Y-76188659D01*
X115791078Y-76295005D01*
X115643243Y-76374023D01*
X115643240Y-76374024D01*
X115643238Y-76374025D01*
X115482824Y-76422686D01*
X115482823Y-76422686D01*
X115482820Y-76422687D01*
X115316000Y-76439117D01*
X115149179Y-76422687D01*
X115149176Y-76422686D01*
X115149175Y-76422686D01*
X114988761Y-76374025D01*
X114988759Y-76374024D01*
X114988756Y-76374023D01*
X114840922Y-76295005D01*
X114711341Y-76188659D01*
X114604995Y-76059078D01*
X114525977Y-75911243D01*
X114477315Y-75750825D01*
X114477314Y-75750824D01*
X114477314Y-75750823D01*
X114477313Y-75750820D01*
X114465000Y-75625803D01*
X114465000Y-74742197D01*
X114477314Y-74617179D01*
X114523235Y-74465797D01*
X114525976Y-74456761D01*
X114525977Y-74456759D01*
X114525978Y-74456756D01*
X114604996Y-74308922D01*
X114711342Y-74179341D01*
X114840923Y-74072995D01*
X114988757Y-73993977D01*
X114988760Y-73993976D01*
X114988762Y-73993975D01*
X115149176Y-73945314D01*
X115149177Y-73945314D01*
X115149180Y-73945313D01*
X115316000Y-73928883D01*
X115482821Y-73945313D01*
X115482821Y-73945313D01*
G37*
G36*
X184570821Y-73945313D02*
X184570824Y-73945314D01*
X184570825Y-73945314D01*
X184731239Y-73993975D01*
X184731241Y-73993976D01*
X184731244Y-73993977D01*
X184879078Y-74072995D01*
X185008659Y-74179341D01*
X185115005Y-74308922D01*
X185194023Y-74456756D01*
X185194024Y-74456759D01*
X185194025Y-74456761D01*
X185242686Y-74617175D01*
X185242686Y-74617178D01*
X185242687Y-74617180D01*
X185255000Y-74742197D01*
X185255000Y-75625804D01*
X185242687Y-75750821D01*
X185242686Y-75750824D01*
X185242686Y-75750825D01*
X185229741Y-75793500D01*
X185194023Y-75911244D01*
X185115005Y-76059078D01*
X185008659Y-76188659D01*
X184879078Y-76295005D01*
X184731243Y-76374023D01*
X184731240Y-76374024D01*
X184731238Y-76374025D01*
X184570824Y-76422686D01*
X184570823Y-76422686D01*
X184570820Y-76422687D01*
X184404000Y-76439117D01*
X184237179Y-76422687D01*
X184237176Y-76422686D01*
X184237175Y-76422686D01*
X184076761Y-76374025D01*
X184076759Y-76374024D01*
X184076756Y-76374023D01*
X183928922Y-76295005D01*
X183799341Y-76188659D01*
X183692995Y-76059078D01*
X183613977Y-75911243D01*
X183565315Y-75750825D01*
X183565314Y-75750824D01*
X183565314Y-75750823D01*
X183565313Y-75750820D01*
X183553000Y-75625803D01*
X183553000Y-74742197D01*
X183565314Y-74617179D01*
X183611235Y-74465797D01*
X183613976Y-74456761D01*
X183613977Y-74456759D01*
X183613978Y-74456756D01*
X183692996Y-74308922D01*
X183799342Y-74179341D01*
X183928923Y-74072995D01*
X184076757Y-73993977D01*
X184076760Y-73993976D01*
X184076762Y-73993975D01*
X184237176Y-73945314D01*
X184237177Y-73945314D01*
X184237180Y-73945313D01*
X184404000Y-73928883D01*
X184570821Y-73945313D01*
X184570821Y-73945313D01*
G37*
G36*
X118022821Y-73945313D02*
X118022824Y-73945314D01*
X118022825Y-73945314D01*
X118183239Y-73993975D01*
X118183241Y-73993976D01*
X118183244Y-73993977D01*
X118331078Y-74072995D01*
X118460659Y-74179341D01*
X118567005Y-74308922D01*
X118646023Y-74456756D01*
X118646024Y-74456759D01*
X118646025Y-74456761D01*
X118694686Y-74617175D01*
X118694686Y-74617178D01*
X118694687Y-74617180D01*
X118707000Y-74742197D01*
X118707000Y-75625804D01*
X118694687Y-75750821D01*
X118694686Y-75750824D01*
X118694686Y-75750825D01*
X118681741Y-75793500D01*
X118646023Y-75911244D01*
X118567005Y-76059078D01*
X118460659Y-76188659D01*
X118331078Y-76295005D01*
X118183243Y-76374023D01*
X118183240Y-76374024D01*
X118183238Y-76374025D01*
X118022824Y-76422686D01*
X118022823Y-76422686D01*
X118022820Y-76422687D01*
X117856000Y-76439117D01*
X117689179Y-76422687D01*
X117689176Y-76422686D01*
X117689175Y-76422686D01*
X117528761Y-76374025D01*
X117528759Y-76374024D01*
X117528756Y-76374023D01*
X117380922Y-76295005D01*
X117251341Y-76188659D01*
X117144995Y-76059078D01*
X117065977Y-75911243D01*
X117017315Y-75750825D01*
X117017314Y-75750824D01*
X117017314Y-75750823D01*
X117017313Y-75750820D01*
X117005000Y-75625803D01*
X117005000Y-74742197D01*
X117017314Y-74617179D01*
X117063235Y-74465797D01*
X117065976Y-74456761D01*
X117065977Y-74456759D01*
X117065978Y-74456756D01*
X117144996Y-74308922D01*
X117251342Y-74179341D01*
X117380923Y-74072995D01*
X117528757Y-73993977D01*
X117528760Y-73993976D01*
X117528762Y-73993975D01*
X117689176Y-73945314D01*
X117689177Y-73945314D01*
X117689180Y-73945313D01*
X117856000Y-73928883D01*
X118022821Y-73945313D01*
X118022821Y-73945313D01*
G37*
G36*
X120562821Y-73945313D02*
X120562824Y-73945314D01*
X120562825Y-73945314D01*
X120723239Y-73993975D01*
X120723241Y-73993976D01*
X120723244Y-73993977D01*
X120871078Y-74072995D01*
X121000659Y-74179341D01*
X121107005Y-74308922D01*
X121186023Y-74456756D01*
X121186024Y-74456759D01*
X121186025Y-74456761D01*
X121234686Y-74617175D01*
X121234686Y-74617178D01*
X121234687Y-74617180D01*
X121247000Y-74742197D01*
X121247000Y-75625804D01*
X121234687Y-75750821D01*
X121234686Y-75750824D01*
X121234686Y-75750825D01*
X121221741Y-75793500D01*
X121186023Y-75911244D01*
X121107005Y-76059078D01*
X121000659Y-76188659D01*
X120871078Y-76295005D01*
X120723243Y-76374023D01*
X120723240Y-76374024D01*
X120723238Y-76374025D01*
X120562824Y-76422686D01*
X120562823Y-76422686D01*
X120562820Y-76422687D01*
X120396000Y-76439117D01*
X120229179Y-76422687D01*
X120229176Y-76422686D01*
X120229175Y-76422686D01*
X120068761Y-76374025D01*
X120068759Y-76374024D01*
X120068756Y-76374023D01*
X119920922Y-76295005D01*
X119791341Y-76188659D01*
X119684995Y-76059078D01*
X119605977Y-75911243D01*
X119557315Y-75750825D01*
X119557314Y-75750824D01*
X119557314Y-75750823D01*
X119557313Y-75750820D01*
X119545000Y-75625803D01*
X119545000Y-74742197D01*
X119557314Y-74617179D01*
X119603235Y-74465797D01*
X119605976Y-74456761D01*
X119605977Y-74456759D01*
X119605978Y-74456756D01*
X119684996Y-74308922D01*
X119791342Y-74179341D01*
X119920923Y-74072995D01*
X120068757Y-73993977D01*
X120068760Y-73993976D01*
X120068762Y-73993975D01*
X120229176Y-73945314D01*
X120229177Y-73945314D01*
X120229180Y-73945313D01*
X120396000Y-73928883D01*
X120562821Y-73945313D01*
X120562821Y-73945313D01*
G37*
G36*
X125642821Y-73945313D02*
X125642824Y-73945314D01*
X125642825Y-73945314D01*
X125803239Y-73993975D01*
X125803241Y-73993976D01*
X125803244Y-73993977D01*
X125951078Y-74072995D01*
X126080659Y-74179341D01*
X126187005Y-74308922D01*
X126266023Y-74456756D01*
X126266024Y-74456759D01*
X126266025Y-74456761D01*
X126314686Y-74617175D01*
X126314686Y-74617178D01*
X126314687Y-74617180D01*
X126327000Y-74742197D01*
X126327000Y-75625804D01*
X126314687Y-75750821D01*
X126314686Y-75750824D01*
X126314686Y-75750825D01*
X126301741Y-75793500D01*
X126266023Y-75911244D01*
X126187005Y-76059078D01*
X126080659Y-76188659D01*
X125951078Y-76295005D01*
X125803243Y-76374023D01*
X125803240Y-76374024D01*
X125803238Y-76374025D01*
X125642824Y-76422686D01*
X125642823Y-76422686D01*
X125642820Y-76422687D01*
X125476000Y-76439117D01*
X125309179Y-76422687D01*
X125309176Y-76422686D01*
X125309175Y-76422686D01*
X125148761Y-76374025D01*
X125148759Y-76374024D01*
X125148756Y-76374023D01*
X125000922Y-76295005D01*
X124871341Y-76188659D01*
X124764995Y-76059078D01*
X124685977Y-75911243D01*
X124637315Y-75750825D01*
X124637314Y-75750824D01*
X124637314Y-75750823D01*
X124637313Y-75750820D01*
X124625000Y-75625803D01*
X124625000Y-74742197D01*
X124637314Y-74617179D01*
X124683235Y-74465797D01*
X124685976Y-74456761D01*
X124685977Y-74456759D01*
X124685978Y-74456756D01*
X124764996Y-74308922D01*
X124871342Y-74179341D01*
X125000923Y-74072995D01*
X125148757Y-73993977D01*
X125148760Y-73993976D01*
X125148762Y-73993975D01*
X125309176Y-73945314D01*
X125309177Y-73945314D01*
X125309180Y-73945313D01*
X125476000Y-73928883D01*
X125642821Y-73945313D01*
X125642821Y-73945313D01*
G37*
G36*
X123102821Y-73945313D02*
X123102824Y-73945314D01*
X123102825Y-73945314D01*
X123263239Y-73993975D01*
X123263241Y-73993976D01*
X123263244Y-73993977D01*
X123411078Y-74072995D01*
X123540659Y-74179341D01*
X123647005Y-74308922D01*
X123726023Y-74456756D01*
X123726024Y-74456759D01*
X123726025Y-74456761D01*
X123774686Y-74617175D01*
X123774686Y-74617178D01*
X123774687Y-74617180D01*
X123787000Y-74742197D01*
X123787000Y-75625804D01*
X123774687Y-75750821D01*
X123774686Y-75750824D01*
X123774686Y-75750825D01*
X123761741Y-75793500D01*
X123726023Y-75911244D01*
X123647005Y-76059078D01*
X123540659Y-76188659D01*
X123411078Y-76295005D01*
X123263243Y-76374023D01*
X123263240Y-76374024D01*
X123263238Y-76374025D01*
X123102824Y-76422686D01*
X123102823Y-76422686D01*
X123102820Y-76422687D01*
X122936000Y-76439117D01*
X122769179Y-76422687D01*
X122769176Y-76422686D01*
X122769175Y-76422686D01*
X122608761Y-76374025D01*
X122608759Y-76374024D01*
X122608756Y-76374023D01*
X122460922Y-76295005D01*
X122331341Y-76188659D01*
X122224995Y-76059078D01*
X122145977Y-75911243D01*
X122097315Y-75750825D01*
X122097314Y-75750824D01*
X122097314Y-75750823D01*
X122097313Y-75750820D01*
X122085000Y-75625803D01*
X122085000Y-74742197D01*
X122097314Y-74617179D01*
X122143235Y-74465797D01*
X122145976Y-74456761D01*
X122145977Y-74456759D01*
X122145978Y-74456756D01*
X122224996Y-74308922D01*
X122331342Y-74179341D01*
X122460923Y-74072995D01*
X122608757Y-73993977D01*
X122608760Y-73993976D01*
X122608762Y-73993975D01*
X122769176Y-73945314D01*
X122769177Y-73945314D01*
X122769180Y-73945313D01*
X122936000Y-73928883D01*
X123102821Y-73945313D01*
X123102821Y-73945313D01*
G37*
G36*
X182030821Y-73945313D02*
X182030824Y-73945314D01*
X182030825Y-73945314D01*
X182191239Y-73993975D01*
X182191241Y-73993976D01*
X182191244Y-73993977D01*
X182339078Y-74072995D01*
X182468659Y-74179341D01*
X182575005Y-74308922D01*
X182654023Y-74456756D01*
X182654024Y-74456759D01*
X182654025Y-74456761D01*
X182702686Y-74617175D01*
X182702686Y-74617178D01*
X182702687Y-74617180D01*
X182715000Y-74742197D01*
X182715000Y-75625804D01*
X182702687Y-75750821D01*
X182702686Y-75750824D01*
X182702686Y-75750825D01*
X182689741Y-75793500D01*
X182654023Y-75911244D01*
X182575005Y-76059078D01*
X182468659Y-76188659D01*
X182339078Y-76295005D01*
X182191243Y-76374023D01*
X182191240Y-76374024D01*
X182191238Y-76374025D01*
X182030824Y-76422686D01*
X182030823Y-76422686D01*
X182030820Y-76422687D01*
X181864000Y-76439117D01*
X181697179Y-76422687D01*
X181697176Y-76422686D01*
X181697175Y-76422686D01*
X181536761Y-76374025D01*
X181536759Y-76374024D01*
X181536756Y-76374023D01*
X181388922Y-76295005D01*
X181259341Y-76188659D01*
X181152995Y-76059078D01*
X181073977Y-75911243D01*
X181025315Y-75750825D01*
X181025314Y-75750824D01*
X181025314Y-75750823D01*
X181025313Y-75750820D01*
X181013000Y-75625803D01*
X181013000Y-74742197D01*
X181025314Y-74617179D01*
X181071235Y-74465797D01*
X181073976Y-74456761D01*
X181073977Y-74456759D01*
X181073978Y-74456756D01*
X181152996Y-74308922D01*
X181259342Y-74179341D01*
X181388923Y-74072995D01*
X181536757Y-73993977D01*
X181536760Y-73993976D01*
X181536762Y-73993975D01*
X181697176Y-73945314D01*
X181697177Y-73945314D01*
X181697180Y-73945313D01*
X181864000Y-73928883D01*
X182030821Y-73945313D01*
X182030821Y-73945313D01*
G37*
G36*
X187110821Y-73945313D02*
X187110824Y-73945314D01*
X187110825Y-73945314D01*
X187271239Y-73993975D01*
X187271241Y-73993976D01*
X187271244Y-73993977D01*
X187419078Y-74072995D01*
X187548659Y-74179341D01*
X187655005Y-74308922D01*
X187734023Y-74456756D01*
X187734024Y-74456759D01*
X187734025Y-74456761D01*
X187782686Y-74617175D01*
X187782686Y-74617178D01*
X187782687Y-74617180D01*
X187795000Y-74742197D01*
X187795000Y-75625804D01*
X187782687Y-75750821D01*
X187782686Y-75750824D01*
X187782686Y-75750825D01*
X187769741Y-75793500D01*
X187734023Y-75911244D01*
X187655005Y-76059078D01*
X187548659Y-76188659D01*
X187419078Y-76295005D01*
X187271243Y-76374023D01*
X187271240Y-76374024D01*
X187271238Y-76374025D01*
X187110824Y-76422686D01*
X187110823Y-76422686D01*
X187110820Y-76422687D01*
X186944000Y-76439117D01*
X186777179Y-76422687D01*
X186777176Y-76422686D01*
X186777175Y-76422686D01*
X186616761Y-76374025D01*
X186616759Y-76374024D01*
X186616756Y-76374023D01*
X186468922Y-76295005D01*
X186339341Y-76188659D01*
X186232995Y-76059078D01*
X186153977Y-75911243D01*
X186105315Y-75750825D01*
X186105314Y-75750824D01*
X186105314Y-75750823D01*
X186105313Y-75750820D01*
X186093000Y-75625803D01*
X186093000Y-74742197D01*
X186105314Y-74617179D01*
X186151235Y-74465797D01*
X186153976Y-74456761D01*
X186153977Y-74456759D01*
X186153978Y-74456756D01*
X186232996Y-74308922D01*
X186339342Y-74179341D01*
X186468923Y-74072995D01*
X186616757Y-73993977D01*
X186616760Y-73993976D01*
X186616762Y-73993975D01*
X186777176Y-73945314D01*
X186777177Y-73945314D01*
X186777180Y-73945313D01*
X186944000Y-73928883D01*
X187110821Y-73945313D01*
X187110821Y-73945313D01*
G37*
G36*
X189650821Y-73945313D02*
X189650824Y-73945314D01*
X189650825Y-73945314D01*
X189811239Y-73993975D01*
X189811241Y-73993976D01*
X189811244Y-73993977D01*
X189959078Y-74072995D01*
X190088659Y-74179341D01*
X190195005Y-74308922D01*
X190274023Y-74456756D01*
X190274024Y-74456759D01*
X190274025Y-74456761D01*
X190322686Y-74617175D01*
X190322686Y-74617178D01*
X190322687Y-74617180D01*
X190335000Y-74742197D01*
X190335000Y-75625804D01*
X190322687Y-75750821D01*
X190322686Y-75750824D01*
X190322686Y-75750825D01*
X190309741Y-75793500D01*
X190274023Y-75911244D01*
X190195005Y-76059078D01*
X190088659Y-76188659D01*
X189959078Y-76295005D01*
X189811243Y-76374023D01*
X189811240Y-76374024D01*
X189811238Y-76374025D01*
X189650824Y-76422686D01*
X189650823Y-76422686D01*
X189650820Y-76422687D01*
X189484000Y-76439117D01*
X189317179Y-76422687D01*
X189317176Y-76422686D01*
X189317175Y-76422686D01*
X189156761Y-76374025D01*
X189156759Y-76374024D01*
X189156756Y-76374023D01*
X189008922Y-76295005D01*
X188879341Y-76188659D01*
X188772995Y-76059078D01*
X188693977Y-75911243D01*
X188645315Y-75750825D01*
X188645314Y-75750824D01*
X188645314Y-75750823D01*
X188645313Y-75750820D01*
X188633000Y-75625803D01*
X188633000Y-74742197D01*
X188645314Y-74617179D01*
X188691235Y-74465797D01*
X188693976Y-74456761D01*
X188693977Y-74456759D01*
X188693978Y-74456756D01*
X188772996Y-74308922D01*
X188879342Y-74179341D01*
X189008923Y-74072995D01*
X189156757Y-73993977D01*
X189156760Y-73993976D01*
X189156762Y-73993975D01*
X189317176Y-73945314D01*
X189317177Y-73945314D01*
X189317180Y-73945313D01*
X189484000Y-73928883D01*
X189650821Y-73945313D01*
X189650821Y-73945313D01*
G37*
G36*
X133262821Y-73945313D02*
X133262824Y-73945314D01*
X133262825Y-73945314D01*
X133423239Y-73993975D01*
X133423241Y-73993976D01*
X133423244Y-73993977D01*
X133571078Y-74072995D01*
X133700659Y-74179341D01*
X133807005Y-74308922D01*
X133886023Y-74456756D01*
X133886024Y-74456759D01*
X133886025Y-74456761D01*
X133934686Y-74617175D01*
X133934686Y-74617178D01*
X133934687Y-74617180D01*
X133947000Y-74742197D01*
X133947000Y-75625804D01*
X133934687Y-75750821D01*
X133934686Y-75750824D01*
X133934686Y-75750825D01*
X133921741Y-75793500D01*
X133886023Y-75911244D01*
X133807005Y-76059078D01*
X133700659Y-76188659D01*
X133571078Y-76295005D01*
X133423243Y-76374023D01*
X133423240Y-76374024D01*
X133423238Y-76374025D01*
X133262824Y-76422686D01*
X133262823Y-76422686D01*
X133262820Y-76422687D01*
X133096000Y-76439117D01*
X132929179Y-76422687D01*
X132929176Y-76422686D01*
X132929175Y-76422686D01*
X132768761Y-76374025D01*
X132768759Y-76374024D01*
X132768756Y-76374023D01*
X132620922Y-76295005D01*
X132491341Y-76188659D01*
X132384995Y-76059078D01*
X132305977Y-75911243D01*
X132257315Y-75750825D01*
X132257314Y-75750824D01*
X132257314Y-75750823D01*
X132257313Y-75750820D01*
X132245000Y-75625803D01*
X132245000Y-74742197D01*
X132257314Y-74617179D01*
X132303235Y-74465797D01*
X132305976Y-74456761D01*
X132305977Y-74456759D01*
X132305978Y-74456756D01*
X132384996Y-74308922D01*
X132491342Y-74179341D01*
X132620923Y-74072995D01*
X132768757Y-73993977D01*
X132768760Y-73993976D01*
X132768762Y-73993975D01*
X132929176Y-73945314D01*
X132929177Y-73945314D01*
X132929180Y-73945313D01*
X133096000Y-73928883D01*
X133262821Y-73945313D01*
X133262821Y-73945313D01*
G37*
G36*
X130722821Y-73945313D02*
X130722824Y-73945314D01*
X130722825Y-73945314D01*
X130883239Y-73993975D01*
X130883241Y-73993976D01*
X130883244Y-73993977D01*
X131031078Y-74072995D01*
X131160659Y-74179341D01*
X131267005Y-74308922D01*
X131346023Y-74456756D01*
X131346024Y-74456759D01*
X131346025Y-74456761D01*
X131394686Y-74617175D01*
X131394686Y-74617178D01*
X131394687Y-74617180D01*
X131407000Y-74742197D01*
X131407000Y-75625804D01*
X131394687Y-75750821D01*
X131394686Y-75750824D01*
X131394686Y-75750825D01*
X131381741Y-75793500D01*
X131346023Y-75911244D01*
X131267005Y-76059078D01*
X131160659Y-76188659D01*
X131031078Y-76295005D01*
X130883243Y-76374023D01*
X130883240Y-76374024D01*
X130883238Y-76374025D01*
X130722824Y-76422686D01*
X130722823Y-76422686D01*
X130722820Y-76422687D01*
X130556000Y-76439117D01*
X130389179Y-76422687D01*
X130389176Y-76422686D01*
X130389175Y-76422686D01*
X130228761Y-76374025D01*
X130228759Y-76374024D01*
X130228756Y-76374023D01*
X130080922Y-76295005D01*
X129951341Y-76188659D01*
X129844995Y-76059078D01*
X129765977Y-75911243D01*
X129717315Y-75750825D01*
X129717314Y-75750824D01*
X129717314Y-75750823D01*
X129717313Y-75750820D01*
X129705000Y-75625803D01*
X129705000Y-74742197D01*
X129717314Y-74617179D01*
X129763235Y-74465797D01*
X129765976Y-74456761D01*
X129765977Y-74456759D01*
X129765978Y-74456756D01*
X129844996Y-74308922D01*
X129951342Y-74179341D01*
X130080923Y-74072995D01*
X130228757Y-73993977D01*
X130228760Y-73993976D01*
X130228762Y-73993975D01*
X130389176Y-73945314D01*
X130389177Y-73945314D01*
X130389180Y-73945313D01*
X130556000Y-73928883D01*
X130722821Y-73945313D01*
X130722821Y-73945313D01*
G37*
G36*
X128182821Y-73945313D02*
X128182824Y-73945314D01*
X128182825Y-73945314D01*
X128343239Y-73993975D01*
X128343241Y-73993976D01*
X128343244Y-73993977D01*
X128491078Y-74072995D01*
X128620659Y-74179341D01*
X128727005Y-74308922D01*
X128806023Y-74456756D01*
X128806024Y-74456759D01*
X128806025Y-74456761D01*
X128854686Y-74617175D01*
X128854686Y-74617178D01*
X128854687Y-74617180D01*
X128867000Y-74742197D01*
X128867000Y-75625804D01*
X128854687Y-75750821D01*
X128854686Y-75750824D01*
X128854686Y-75750825D01*
X128841741Y-75793500D01*
X128806023Y-75911244D01*
X128727005Y-76059078D01*
X128620659Y-76188659D01*
X128491078Y-76295005D01*
X128343243Y-76374023D01*
X128343240Y-76374024D01*
X128343238Y-76374025D01*
X128182824Y-76422686D01*
X128182823Y-76422686D01*
X128182820Y-76422687D01*
X128016000Y-76439117D01*
X127849179Y-76422687D01*
X127849176Y-76422686D01*
X127849175Y-76422686D01*
X127688761Y-76374025D01*
X127688759Y-76374024D01*
X127688756Y-76374023D01*
X127540922Y-76295005D01*
X127411341Y-76188659D01*
X127304995Y-76059078D01*
X127225977Y-75911243D01*
X127177315Y-75750825D01*
X127177314Y-75750824D01*
X127177314Y-75750823D01*
X127177313Y-75750820D01*
X127165000Y-75625803D01*
X127165000Y-74742197D01*
X127177314Y-74617179D01*
X127223235Y-74465797D01*
X127225976Y-74456761D01*
X127225977Y-74456759D01*
X127225978Y-74456756D01*
X127304996Y-74308922D01*
X127411342Y-74179341D01*
X127540923Y-74072995D01*
X127688757Y-73993977D01*
X127688760Y-73993976D01*
X127688762Y-73993975D01*
X127849176Y-73945314D01*
X127849177Y-73945314D01*
X127849180Y-73945313D01*
X128016000Y-73928883D01*
X128182821Y-73945313D01*
X128182821Y-73945313D01*
G37*
G36*
X71317000Y-76375000D02*
X70415000Y-76375000D01*
X70415000Y-75673000D01*
X71317000Y-75673000D01*
X71317000Y-76375000D01*
X71317000Y-76375000D01*
G37*
G36*
X201915000Y-75985000D02*
X199813000Y-75985000D01*
X199813000Y-74383000D01*
X201915000Y-74383000D01*
X201915000Y-75985000D01*
X201915000Y-75985000D01*
G37*
G36*
X105089000Y-75985000D02*
X102987000Y-75985000D01*
X102987000Y-74383000D01*
X105089000Y-74383000D01*
X105089000Y-75985000D01*
X105089000Y-75985000D01*
G37*
G36*
X161883000Y-75985000D02*
X159781000Y-75985000D01*
X159781000Y-74383000D01*
X161883000Y-74383000D01*
X161883000Y-75985000D01*
X161883000Y-75985000D01*
G37*
G36*
X144917000Y-75985000D02*
X142815000Y-75985000D01*
X142815000Y-74383000D01*
X144917000Y-74383000D01*
X144917000Y-75985000D01*
X144917000Y-75985000D01*
G37*
G36*
X90713000Y-75323000D02*
X88611000Y-75323000D01*
X88611000Y-73521000D01*
X90713000Y-73521000D01*
X90713000Y-75323000D01*
X90713000Y-75323000D01*
G37*
G36*
X94713000Y-75323000D02*
X92611000Y-75323000D01*
X92611000Y-73521000D01*
X94713000Y-73521000D01*
X94713000Y-75323000D01*
X94713000Y-75323000D01*
G37*
G36*
X75831000Y-75219000D02*
X74029000Y-75219000D01*
X74029000Y-73117000D01*
X75831000Y-73117000D01*
X75831000Y-75219000D01*
X75831000Y-75219000D01*
G37*
G36*
X67449000Y-74711000D02*
X65647000Y-74711000D01*
X65647000Y-72609000D01*
X67449000Y-72609000D01*
X67449000Y-74711000D01*
X67449000Y-74711000D01*
G37*
G36*
X238975993Y-72854203D02*
X239040414Y-72873744D01*
X239099776Y-72905475D01*
X239151817Y-72948183D01*
X239194525Y-73000224D01*
X239226256Y-73059586D01*
X239245797Y-73124007D01*
X239253000Y-73197141D01*
X239253000Y-74122859D01*
X239245797Y-74195993D01*
X239226256Y-74260414D01*
X239194525Y-74319776D01*
X239151817Y-74371817D01*
X239099776Y-74414525D01*
X239040414Y-74446256D01*
X238975993Y-74465797D01*
X238902859Y-74473000D01*
X237601141Y-74473000D01*
X237528007Y-74465797D01*
X237463586Y-74446256D01*
X237404224Y-74414525D01*
X237352183Y-74371817D01*
X237309475Y-74319776D01*
X237277744Y-74260414D01*
X237258203Y-74195993D01*
X237251000Y-74122859D01*
X237251000Y-73197141D01*
X237258203Y-73124007D01*
X237277744Y-73059586D01*
X237309475Y-73000224D01*
X237352183Y-72948183D01*
X237404224Y-72905475D01*
X237463586Y-72873744D01*
X237528007Y-72854203D01*
X237601141Y-72847000D01*
X238902859Y-72847000D01*
X238975993Y-72854203D01*
X238975993Y-72854203D01*
G37*
G36*
X213575993Y-72854203D02*
X213640414Y-72873744D01*
X213699776Y-72905475D01*
X213751817Y-72948183D01*
X213794525Y-73000224D01*
X213826256Y-73059586D01*
X213845797Y-73124007D01*
X213853000Y-73197141D01*
X213853000Y-74122859D01*
X213845797Y-74195993D01*
X213826256Y-74260414D01*
X213794525Y-74319776D01*
X213751817Y-74371817D01*
X213699776Y-74414525D01*
X213640414Y-74446256D01*
X213575993Y-74465797D01*
X213502859Y-74473000D01*
X212201141Y-74473000D01*
X212128007Y-74465797D01*
X212063586Y-74446256D01*
X212004224Y-74414525D01*
X211952183Y-74371817D01*
X211909475Y-74319776D01*
X211877744Y-74260414D01*
X211858203Y-74195993D01*
X211851000Y-74122859D01*
X211851000Y-73197141D01*
X211858203Y-73124007D01*
X211877744Y-73059586D01*
X211909475Y-73000224D01*
X211952183Y-72948183D01*
X212004224Y-72905475D01*
X212063586Y-72873744D01*
X212128007Y-72854203D01*
X212201141Y-72847000D01*
X213502859Y-72847000D01*
X213575993Y-72854203D01*
X213575993Y-72854203D01*
G37*
G36*
X149491000Y-74267000D02*
X147689000Y-74267000D01*
X147689000Y-72165000D01*
X149491000Y-72165000D01*
X149491000Y-74267000D01*
X149491000Y-74267000D01*
G37*
G36*
X157111000Y-74267000D02*
X155309000Y-74267000D01*
X155309000Y-72165000D01*
X157111000Y-72165000D01*
X157111000Y-74267000D01*
X157111000Y-74267000D01*
G37*
G36*
X100469000Y-74267000D02*
X98667000Y-74267000D01*
X98667000Y-72165000D01*
X100469000Y-72165000D01*
X100469000Y-74267000D01*
X100469000Y-74267000D01*
G37*
G36*
X206133000Y-74203000D02*
X204331000Y-74203000D01*
X204331000Y-72101000D01*
X206133000Y-72101000D01*
X206133000Y-74203000D01*
X206133000Y-74203000D01*
G37*
G36*
X161883000Y-73685000D02*
X159781000Y-73685000D01*
X159781000Y-72083000D01*
X161883000Y-72083000D01*
X161883000Y-73685000D01*
X161883000Y-73685000D01*
G37*
G36*
X144917000Y-73685000D02*
X142815000Y-73685000D01*
X142815000Y-72083000D01*
X144917000Y-72083000D01*
X144917000Y-73685000D01*
X144917000Y-73685000D01*
G37*
G36*
X105089000Y-73685000D02*
X102987000Y-73685000D01*
X102987000Y-72083000D01*
X105089000Y-72083000D01*
X105089000Y-73685000D01*
X105089000Y-73685000D01*
G37*
G36*
X201915000Y-73685000D02*
X199813000Y-73685000D01*
X199813000Y-72083000D01*
X201915000Y-72083000D01*
X201915000Y-73685000D01*
X201915000Y-73685000D01*
G37*
G36*
X213575993Y-70314203D02*
X213640414Y-70333744D01*
X213699776Y-70365475D01*
X213751817Y-70408183D01*
X213794525Y-70460224D01*
X213826256Y-70519586D01*
X213845797Y-70584007D01*
X213853000Y-70657141D01*
X213853000Y-71582859D01*
X213845797Y-71655993D01*
X213826256Y-71720414D01*
X213794525Y-71779776D01*
X213751817Y-71831817D01*
X213699776Y-71874525D01*
X213640414Y-71906256D01*
X213575993Y-71925797D01*
X213502859Y-71933000D01*
X212201141Y-71933000D01*
X212128007Y-71925797D01*
X212063586Y-71906256D01*
X212004224Y-71874525D01*
X211952183Y-71831817D01*
X211909475Y-71779776D01*
X211877744Y-71720414D01*
X211858203Y-71655993D01*
X211851000Y-71582859D01*
X211851000Y-70657141D01*
X211858203Y-70584007D01*
X211877744Y-70519586D01*
X211909475Y-70460224D01*
X211952183Y-70408183D01*
X212004224Y-70365475D01*
X212063586Y-70333744D01*
X212128007Y-70314203D01*
X212201141Y-70307000D01*
X213502859Y-70307000D01*
X213575993Y-70314203D01*
X213575993Y-70314203D01*
G37*
G36*
X238975993Y-70314203D02*
X239040414Y-70333744D01*
X239099776Y-70365475D01*
X239151817Y-70408183D01*
X239194525Y-70460224D01*
X239226256Y-70519586D01*
X239245797Y-70584007D01*
X239253000Y-70657141D01*
X239253000Y-71582859D01*
X239245797Y-71655993D01*
X239226256Y-71720414D01*
X239194525Y-71779776D01*
X239151817Y-71831817D01*
X239099776Y-71874525D01*
X239040414Y-71906256D01*
X238975993Y-71925797D01*
X238902859Y-71933000D01*
X237601141Y-71933000D01*
X237528007Y-71925797D01*
X237463586Y-71906256D01*
X237404224Y-71874525D01*
X237352183Y-71831817D01*
X237309475Y-71779776D01*
X237277744Y-71720414D01*
X237258203Y-71655993D01*
X237251000Y-71582859D01*
X237251000Y-70657141D01*
X237258203Y-70584007D01*
X237277744Y-70519586D01*
X237309475Y-70460224D01*
X237352183Y-70408183D01*
X237404224Y-70365475D01*
X237463586Y-70333744D01*
X237528007Y-70314203D01*
X237601141Y-70307000D01*
X238902859Y-70307000D01*
X238975993Y-70314203D01*
X238975993Y-70314203D01*
G37*
G36*
X75831000Y-71219000D02*
X74029000Y-71219000D01*
X74029000Y-69117000D01*
X75831000Y-69117000D01*
X75831000Y-71219000D01*
X75831000Y-71219000D01*
G37*
G36*
X67749000Y-70635000D02*
X65347000Y-70635000D01*
X65347000Y-67033000D01*
X67749000Y-67033000D01*
X67749000Y-70635000D01*
X67749000Y-70635000D01*
G37*
G36*
X161895000Y-70049000D02*
X161193000Y-70049000D01*
X161193000Y-68447000D01*
X161895000Y-68447000D01*
X161895000Y-70049000D01*
X161895000Y-70049000D01*
G37*
G36*
X160625000Y-70049000D02*
X159923000Y-70049000D01*
X159923000Y-68447000D01*
X160625000Y-68447000D01*
X160625000Y-70049000D01*
X160625000Y-70049000D01*
G37*
G36*
X159355000Y-70049000D02*
X158653000Y-70049000D01*
X158653000Y-68447000D01*
X159355000Y-68447000D01*
X159355000Y-70049000D01*
X159355000Y-70049000D01*
G37*
G36*
X158085000Y-70049000D02*
X157383000Y-70049000D01*
X157383000Y-68447000D01*
X158085000Y-68447000D01*
X158085000Y-70049000D01*
X158085000Y-70049000D01*
G37*
G36*
X163165000Y-70049000D02*
X162463000Y-70049000D01*
X162463000Y-68447000D01*
X163165000Y-68447000D01*
X163165000Y-70049000D01*
X163165000Y-70049000D01*
G37*
G36*
X156815000Y-70049000D02*
X156113000Y-70049000D01*
X156113000Y-68447000D01*
X156815000Y-68447000D01*
X156815000Y-70049000D01*
X156815000Y-70049000D01*
G37*
G36*
X164435000Y-70049000D02*
X163733000Y-70049000D01*
X163733000Y-68447000D01*
X164435000Y-68447000D01*
X164435000Y-70049000D01*
X164435000Y-70049000D01*
G37*
G36*
X213575993Y-67774203D02*
X213640414Y-67793744D01*
X213699776Y-67825475D01*
X213751817Y-67868183D01*
X213794525Y-67920224D01*
X213826256Y-67979586D01*
X213845797Y-68044007D01*
X213853000Y-68117141D01*
X213853000Y-69042859D01*
X213845797Y-69115993D01*
X213826256Y-69180414D01*
X213794525Y-69239776D01*
X213751817Y-69291817D01*
X213699776Y-69334525D01*
X213640414Y-69366256D01*
X213575993Y-69385797D01*
X213502859Y-69393000D01*
X212201141Y-69393000D01*
X212128007Y-69385797D01*
X212063586Y-69366256D01*
X212004224Y-69334525D01*
X211952183Y-69291817D01*
X211909475Y-69239776D01*
X211877744Y-69180414D01*
X211858203Y-69115993D01*
X211851000Y-69042859D01*
X211851000Y-68117141D01*
X211858203Y-68044007D01*
X211877744Y-67979586D01*
X211909475Y-67920224D01*
X211952183Y-67868183D01*
X212004224Y-67825475D01*
X212063586Y-67793744D01*
X212128007Y-67774203D01*
X212201141Y-67767000D01*
X213502859Y-67767000D01*
X213575993Y-67774203D01*
X213575993Y-67774203D01*
G37*
G36*
X238975993Y-67774203D02*
X239040414Y-67793744D01*
X239099776Y-67825475D01*
X239151817Y-67868183D01*
X239194525Y-67920224D01*
X239226256Y-67979586D01*
X239245797Y-68044007D01*
X239253000Y-68117141D01*
X239253000Y-69042859D01*
X239245797Y-69115993D01*
X239226256Y-69180414D01*
X239194525Y-69239776D01*
X239151817Y-69291817D01*
X239099776Y-69334525D01*
X239040414Y-69366256D01*
X238975993Y-69385797D01*
X238902859Y-69393000D01*
X237601141Y-69393000D01*
X237528007Y-69385797D01*
X237463586Y-69366256D01*
X237404224Y-69334525D01*
X237352183Y-69291817D01*
X237309475Y-69239776D01*
X237277744Y-69180414D01*
X237258203Y-69115993D01*
X237251000Y-69042859D01*
X237251000Y-68117141D01*
X237258203Y-68044007D01*
X237277744Y-67979586D01*
X237309475Y-67920224D01*
X237352183Y-67868183D01*
X237404224Y-67825475D01*
X237463586Y-67793744D01*
X237528007Y-67774203D01*
X237601141Y-67767000D01*
X238902859Y-67767000D01*
X238975993Y-67774203D01*
X238975993Y-67774203D01*
G37*
G36*
X98397000Y-69227000D02*
X96295000Y-69227000D01*
X96295000Y-67425000D01*
X98397000Y-67425000D01*
X98397000Y-69227000D01*
X98397000Y-69227000D01*
G37*
G36*
X102397000Y-69227000D02*
X100295000Y-69227000D01*
X100295000Y-67425000D01*
X102397000Y-67425000D01*
X102397000Y-69227000D01*
X102397000Y-69227000D01*
G37*
G36*
X128182821Y-66325313D02*
X128182824Y-66325314D01*
X128182825Y-66325314D01*
X128343239Y-66373975D01*
X128343241Y-66373976D01*
X128343244Y-66373977D01*
X128491078Y-66452995D01*
X128620659Y-66559341D01*
X128727005Y-66688922D01*
X128806023Y-66836756D01*
X128806024Y-66836759D01*
X128806025Y-66836761D01*
X128854686Y-66997175D01*
X128854686Y-66997178D01*
X128854687Y-66997180D01*
X128867000Y-67122197D01*
X128867000Y-68005804D01*
X128854687Y-68130821D01*
X128854686Y-68130824D01*
X128854686Y-68130825D01*
X128841741Y-68173500D01*
X128806023Y-68291244D01*
X128727005Y-68439078D01*
X128620659Y-68568659D01*
X128491078Y-68675005D01*
X128343243Y-68754023D01*
X128343240Y-68754024D01*
X128343238Y-68754025D01*
X128182824Y-68802686D01*
X128182823Y-68802686D01*
X128182820Y-68802687D01*
X128016000Y-68819117D01*
X127849179Y-68802687D01*
X127849176Y-68802686D01*
X127849175Y-68802686D01*
X127688761Y-68754025D01*
X127688759Y-68754024D01*
X127688756Y-68754023D01*
X127540922Y-68675005D01*
X127411341Y-68568659D01*
X127304995Y-68439078D01*
X127225977Y-68291243D01*
X127177315Y-68130825D01*
X127177314Y-68130824D01*
X127177314Y-68130823D01*
X127177313Y-68130820D01*
X127165000Y-68005803D01*
X127165000Y-67122197D01*
X127177314Y-66997179D01*
X127223235Y-66845797D01*
X127225976Y-66836761D01*
X127225977Y-66836759D01*
X127225978Y-66836756D01*
X127304996Y-66688922D01*
X127411342Y-66559341D01*
X127540923Y-66452995D01*
X127688757Y-66373977D01*
X127688760Y-66373976D01*
X127688762Y-66373975D01*
X127849176Y-66325314D01*
X127849177Y-66325314D01*
X127849180Y-66325313D01*
X128016000Y-66308883D01*
X128182821Y-66325313D01*
X128182821Y-66325313D01*
G37*
G36*
X174410821Y-66325313D02*
X174410824Y-66325314D01*
X174410825Y-66325314D01*
X174571239Y-66373975D01*
X174571241Y-66373976D01*
X174571244Y-66373977D01*
X174719078Y-66452995D01*
X174848659Y-66559341D01*
X174955005Y-66688922D01*
X175034023Y-66836756D01*
X175034024Y-66836759D01*
X175034025Y-66836761D01*
X175082686Y-66997175D01*
X175082686Y-66997178D01*
X175082687Y-66997180D01*
X175095000Y-67122197D01*
X175095000Y-68005804D01*
X175082687Y-68130821D01*
X175082686Y-68130824D01*
X175082686Y-68130825D01*
X175069741Y-68173500D01*
X175034023Y-68291244D01*
X174955005Y-68439078D01*
X174848659Y-68568659D01*
X174719078Y-68675005D01*
X174571243Y-68754023D01*
X174571240Y-68754024D01*
X174571238Y-68754025D01*
X174410824Y-68802686D01*
X174410823Y-68802686D01*
X174410820Y-68802687D01*
X174244000Y-68819117D01*
X174077179Y-68802687D01*
X174077176Y-68802686D01*
X174077175Y-68802686D01*
X173916761Y-68754025D01*
X173916759Y-68754024D01*
X173916756Y-68754023D01*
X173768922Y-68675005D01*
X173639341Y-68568659D01*
X173532995Y-68439078D01*
X173453977Y-68291243D01*
X173405315Y-68130825D01*
X173405314Y-68130824D01*
X173405314Y-68130823D01*
X173405313Y-68130820D01*
X173393000Y-68005803D01*
X173393000Y-67122197D01*
X173405314Y-66997179D01*
X173451235Y-66845797D01*
X173453976Y-66836761D01*
X173453977Y-66836759D01*
X173453978Y-66836756D01*
X173532996Y-66688922D01*
X173639342Y-66559341D01*
X173768923Y-66452995D01*
X173916757Y-66373977D01*
X173916760Y-66373976D01*
X173916762Y-66373975D01*
X174077176Y-66325314D01*
X174077177Y-66325314D01*
X174077180Y-66325313D01*
X174244000Y-66308883D01*
X174410821Y-66325313D01*
X174410821Y-66325313D01*
G37*
G36*
X171870821Y-66325313D02*
X171870824Y-66325314D01*
X171870825Y-66325314D01*
X172031239Y-66373975D01*
X172031241Y-66373976D01*
X172031244Y-66373977D01*
X172179078Y-66452995D01*
X172308659Y-66559341D01*
X172415005Y-66688922D01*
X172494023Y-66836756D01*
X172494024Y-66836759D01*
X172494025Y-66836761D01*
X172542686Y-66997175D01*
X172542686Y-66997178D01*
X172542687Y-66997180D01*
X172555000Y-67122197D01*
X172555000Y-68005804D01*
X172542687Y-68130821D01*
X172542686Y-68130824D01*
X172542686Y-68130825D01*
X172529741Y-68173500D01*
X172494023Y-68291244D01*
X172415005Y-68439078D01*
X172308659Y-68568659D01*
X172179078Y-68675005D01*
X172031243Y-68754023D01*
X172031240Y-68754024D01*
X172031238Y-68754025D01*
X171870824Y-68802686D01*
X171870823Y-68802686D01*
X171870820Y-68802687D01*
X171704000Y-68819117D01*
X171537179Y-68802687D01*
X171537176Y-68802686D01*
X171537175Y-68802686D01*
X171376761Y-68754025D01*
X171376759Y-68754024D01*
X171376756Y-68754023D01*
X171228922Y-68675005D01*
X171099341Y-68568659D01*
X170992995Y-68439078D01*
X170913977Y-68291243D01*
X170865315Y-68130825D01*
X170865314Y-68130824D01*
X170865314Y-68130823D01*
X170865313Y-68130820D01*
X170853000Y-68005803D01*
X170853000Y-67122197D01*
X170865314Y-66997179D01*
X170911235Y-66845797D01*
X170913976Y-66836761D01*
X170913977Y-66836759D01*
X170913978Y-66836756D01*
X170992996Y-66688922D01*
X171099342Y-66559341D01*
X171228923Y-66452995D01*
X171376757Y-66373977D01*
X171376760Y-66373976D01*
X171376762Y-66373975D01*
X171537176Y-66325314D01*
X171537177Y-66325314D01*
X171537180Y-66325313D01*
X171704000Y-66308883D01*
X171870821Y-66325313D01*
X171870821Y-66325313D01*
G37*
G36*
X130722821Y-66325313D02*
X130722824Y-66325314D01*
X130722825Y-66325314D01*
X130883239Y-66373975D01*
X130883241Y-66373976D01*
X130883244Y-66373977D01*
X131031078Y-66452995D01*
X131160659Y-66559341D01*
X131267005Y-66688922D01*
X131346023Y-66836756D01*
X131346024Y-66836759D01*
X131346025Y-66836761D01*
X131394686Y-66997175D01*
X131394686Y-66997178D01*
X131394687Y-66997180D01*
X131407000Y-67122197D01*
X131407000Y-68005804D01*
X131394687Y-68130821D01*
X131394686Y-68130824D01*
X131394686Y-68130825D01*
X131381741Y-68173500D01*
X131346023Y-68291244D01*
X131267005Y-68439078D01*
X131160659Y-68568659D01*
X131031078Y-68675005D01*
X130883243Y-68754023D01*
X130883240Y-68754024D01*
X130883238Y-68754025D01*
X130722824Y-68802686D01*
X130722823Y-68802686D01*
X130722820Y-68802687D01*
X130556000Y-68819117D01*
X130389179Y-68802687D01*
X130389176Y-68802686D01*
X130389175Y-68802686D01*
X130228761Y-68754025D01*
X130228759Y-68754024D01*
X130228756Y-68754023D01*
X130080922Y-68675005D01*
X129951341Y-68568659D01*
X129844995Y-68439078D01*
X129765977Y-68291243D01*
X129717315Y-68130825D01*
X129717314Y-68130824D01*
X129717314Y-68130823D01*
X129717313Y-68130820D01*
X129705000Y-68005803D01*
X129705000Y-67122197D01*
X129717314Y-66997179D01*
X129763235Y-66845797D01*
X129765976Y-66836761D01*
X129765977Y-66836759D01*
X129765978Y-66836756D01*
X129844996Y-66688922D01*
X129951342Y-66559341D01*
X130080923Y-66452995D01*
X130228757Y-66373977D01*
X130228760Y-66373976D01*
X130228762Y-66373975D01*
X130389176Y-66325314D01*
X130389177Y-66325314D01*
X130389180Y-66325313D01*
X130556000Y-66308883D01*
X130722821Y-66325313D01*
X130722821Y-66325313D01*
G37*
G36*
X179490821Y-66325313D02*
X179490824Y-66325314D01*
X179490825Y-66325314D01*
X179651239Y-66373975D01*
X179651241Y-66373976D01*
X179651244Y-66373977D01*
X179799078Y-66452995D01*
X179928659Y-66559341D01*
X180035005Y-66688922D01*
X180114023Y-66836756D01*
X180114024Y-66836759D01*
X180114025Y-66836761D01*
X180162686Y-66997175D01*
X180162686Y-66997178D01*
X180162687Y-66997180D01*
X180175000Y-67122197D01*
X180175000Y-68005804D01*
X180162687Y-68130821D01*
X180162686Y-68130824D01*
X180162686Y-68130825D01*
X180149741Y-68173500D01*
X180114023Y-68291244D01*
X180035005Y-68439078D01*
X179928659Y-68568659D01*
X179799078Y-68675005D01*
X179651243Y-68754023D01*
X179651240Y-68754024D01*
X179651238Y-68754025D01*
X179490824Y-68802686D01*
X179490823Y-68802686D01*
X179490820Y-68802687D01*
X179324000Y-68819117D01*
X179157179Y-68802687D01*
X179157176Y-68802686D01*
X179157175Y-68802686D01*
X178996761Y-68754025D01*
X178996759Y-68754024D01*
X178996756Y-68754023D01*
X178848922Y-68675005D01*
X178719341Y-68568659D01*
X178612995Y-68439078D01*
X178533977Y-68291243D01*
X178485315Y-68130825D01*
X178485314Y-68130824D01*
X178485314Y-68130823D01*
X178485313Y-68130820D01*
X178473000Y-68005803D01*
X178473000Y-67122197D01*
X178485314Y-66997179D01*
X178531235Y-66845797D01*
X178533976Y-66836761D01*
X178533977Y-66836759D01*
X178533978Y-66836756D01*
X178612996Y-66688922D01*
X178719342Y-66559341D01*
X178848923Y-66452995D01*
X178996757Y-66373977D01*
X178996760Y-66373976D01*
X178996762Y-66373975D01*
X179157176Y-66325314D01*
X179157177Y-66325314D01*
X179157180Y-66325313D01*
X179324000Y-66308883D01*
X179490821Y-66325313D01*
X179490821Y-66325313D01*
G37*
G36*
X176950821Y-66325313D02*
X176950824Y-66325314D01*
X176950825Y-66325314D01*
X177111239Y-66373975D01*
X177111241Y-66373976D01*
X177111244Y-66373977D01*
X177259078Y-66452995D01*
X177388659Y-66559341D01*
X177495005Y-66688922D01*
X177574023Y-66836756D01*
X177574024Y-66836759D01*
X177574025Y-66836761D01*
X177622686Y-66997175D01*
X177622686Y-66997178D01*
X177622687Y-66997180D01*
X177635000Y-67122197D01*
X177635000Y-68005804D01*
X177622687Y-68130821D01*
X177622686Y-68130824D01*
X177622686Y-68130825D01*
X177609741Y-68173500D01*
X177574023Y-68291244D01*
X177495005Y-68439078D01*
X177388659Y-68568659D01*
X177259078Y-68675005D01*
X177111243Y-68754023D01*
X177111240Y-68754024D01*
X177111238Y-68754025D01*
X176950824Y-68802686D01*
X176950823Y-68802686D01*
X176950820Y-68802687D01*
X176784000Y-68819117D01*
X176617179Y-68802687D01*
X176617176Y-68802686D01*
X176617175Y-68802686D01*
X176456761Y-68754025D01*
X176456759Y-68754024D01*
X176456756Y-68754023D01*
X176308922Y-68675005D01*
X176179341Y-68568659D01*
X176072995Y-68439078D01*
X175993977Y-68291243D01*
X175945315Y-68130825D01*
X175945314Y-68130824D01*
X175945314Y-68130823D01*
X175945313Y-68130820D01*
X175933000Y-68005803D01*
X175933000Y-67122197D01*
X175945314Y-66997179D01*
X175991235Y-66845797D01*
X175993976Y-66836761D01*
X175993977Y-66836759D01*
X175993978Y-66836756D01*
X176072996Y-66688922D01*
X176179342Y-66559341D01*
X176308923Y-66452995D01*
X176456757Y-66373977D01*
X176456760Y-66373976D01*
X176456762Y-66373975D01*
X176617176Y-66325314D01*
X176617177Y-66325314D01*
X176617180Y-66325313D01*
X176784000Y-66308883D01*
X176950821Y-66325313D01*
X176950821Y-66325313D01*
G37*
G36*
X182030821Y-66325313D02*
X182030824Y-66325314D01*
X182030825Y-66325314D01*
X182191239Y-66373975D01*
X182191241Y-66373976D01*
X182191244Y-66373977D01*
X182339078Y-66452995D01*
X182468659Y-66559341D01*
X182575005Y-66688922D01*
X182654023Y-66836756D01*
X182654024Y-66836759D01*
X182654025Y-66836761D01*
X182702686Y-66997175D01*
X182702686Y-66997178D01*
X182702687Y-66997180D01*
X182715000Y-67122197D01*
X182715000Y-68005804D01*
X182702687Y-68130821D01*
X182702686Y-68130824D01*
X182702686Y-68130825D01*
X182689741Y-68173500D01*
X182654023Y-68291244D01*
X182575005Y-68439078D01*
X182468659Y-68568659D01*
X182339078Y-68675005D01*
X182191243Y-68754023D01*
X182191240Y-68754024D01*
X182191238Y-68754025D01*
X182030824Y-68802686D01*
X182030823Y-68802686D01*
X182030820Y-68802687D01*
X181864000Y-68819117D01*
X181697179Y-68802687D01*
X181697176Y-68802686D01*
X181697175Y-68802686D01*
X181536761Y-68754025D01*
X181536759Y-68754024D01*
X181536756Y-68754023D01*
X181388922Y-68675005D01*
X181259341Y-68568659D01*
X181152995Y-68439078D01*
X181073977Y-68291243D01*
X181025315Y-68130825D01*
X181025314Y-68130824D01*
X181025314Y-68130823D01*
X181025313Y-68130820D01*
X181013000Y-68005803D01*
X181013000Y-67122197D01*
X181025314Y-66997179D01*
X181071235Y-66845797D01*
X181073976Y-66836761D01*
X181073977Y-66836759D01*
X181073978Y-66836756D01*
X181152996Y-66688922D01*
X181259342Y-66559341D01*
X181388923Y-66452995D01*
X181536757Y-66373977D01*
X181536760Y-66373976D01*
X181536762Y-66373975D01*
X181697176Y-66325314D01*
X181697177Y-66325314D01*
X181697180Y-66325313D01*
X181864000Y-66308883D01*
X182030821Y-66325313D01*
X182030821Y-66325313D01*
G37*
G36*
X184570821Y-66325313D02*
X184570824Y-66325314D01*
X184570825Y-66325314D01*
X184731239Y-66373975D01*
X184731241Y-66373976D01*
X184731244Y-66373977D01*
X184879078Y-66452995D01*
X185008659Y-66559341D01*
X185115005Y-66688922D01*
X185194023Y-66836756D01*
X185194024Y-66836759D01*
X185194025Y-66836761D01*
X185242686Y-66997175D01*
X185242686Y-66997178D01*
X185242687Y-66997180D01*
X185255000Y-67122197D01*
X185255000Y-68005804D01*
X185242687Y-68130821D01*
X185242686Y-68130824D01*
X185242686Y-68130825D01*
X185229741Y-68173500D01*
X185194023Y-68291244D01*
X185115005Y-68439078D01*
X185008659Y-68568659D01*
X184879078Y-68675005D01*
X184731243Y-68754023D01*
X184731240Y-68754024D01*
X184731238Y-68754025D01*
X184570824Y-68802686D01*
X184570823Y-68802686D01*
X184570820Y-68802687D01*
X184404000Y-68819117D01*
X184237179Y-68802687D01*
X184237176Y-68802686D01*
X184237175Y-68802686D01*
X184076761Y-68754025D01*
X184076759Y-68754024D01*
X184076756Y-68754023D01*
X183928922Y-68675005D01*
X183799341Y-68568659D01*
X183692995Y-68439078D01*
X183613977Y-68291243D01*
X183565315Y-68130825D01*
X183565314Y-68130824D01*
X183565314Y-68130823D01*
X183565313Y-68130820D01*
X183553000Y-68005803D01*
X183553000Y-67122197D01*
X183565314Y-66997179D01*
X183611235Y-66845797D01*
X183613976Y-66836761D01*
X183613977Y-66836759D01*
X183613978Y-66836756D01*
X183692996Y-66688922D01*
X183799342Y-66559341D01*
X183928923Y-66452995D01*
X184076757Y-66373977D01*
X184076760Y-66373976D01*
X184076762Y-66373975D01*
X184237176Y-66325314D01*
X184237177Y-66325314D01*
X184237180Y-66325313D01*
X184404000Y-66308883D01*
X184570821Y-66325313D01*
X184570821Y-66325313D01*
G37*
G36*
X123102821Y-66325313D02*
X123102824Y-66325314D01*
X123102825Y-66325314D01*
X123263239Y-66373975D01*
X123263241Y-66373976D01*
X123263244Y-66373977D01*
X123411078Y-66452995D01*
X123540659Y-66559341D01*
X123647005Y-66688922D01*
X123726023Y-66836756D01*
X123726024Y-66836759D01*
X123726025Y-66836761D01*
X123774686Y-66997175D01*
X123774686Y-66997178D01*
X123774687Y-66997180D01*
X123787000Y-67122197D01*
X123787000Y-68005804D01*
X123774687Y-68130821D01*
X123774686Y-68130824D01*
X123774686Y-68130825D01*
X123761741Y-68173500D01*
X123726023Y-68291244D01*
X123647005Y-68439078D01*
X123540659Y-68568659D01*
X123411078Y-68675005D01*
X123263243Y-68754023D01*
X123263240Y-68754024D01*
X123263238Y-68754025D01*
X123102824Y-68802686D01*
X123102823Y-68802686D01*
X123102820Y-68802687D01*
X122936000Y-68819117D01*
X122769179Y-68802687D01*
X122769176Y-68802686D01*
X122769175Y-68802686D01*
X122608761Y-68754025D01*
X122608759Y-68754024D01*
X122608756Y-68754023D01*
X122460922Y-68675005D01*
X122331341Y-68568659D01*
X122224995Y-68439078D01*
X122145977Y-68291243D01*
X122097315Y-68130825D01*
X122097314Y-68130824D01*
X122097314Y-68130823D01*
X122097313Y-68130820D01*
X122085000Y-68005803D01*
X122085000Y-67122197D01*
X122097314Y-66997179D01*
X122143235Y-66845797D01*
X122145976Y-66836761D01*
X122145977Y-66836759D01*
X122145978Y-66836756D01*
X122224996Y-66688922D01*
X122331342Y-66559341D01*
X122460923Y-66452995D01*
X122608757Y-66373977D01*
X122608760Y-66373976D01*
X122608762Y-66373975D01*
X122769176Y-66325314D01*
X122769177Y-66325314D01*
X122769180Y-66325313D01*
X122936000Y-66308883D01*
X123102821Y-66325313D01*
X123102821Y-66325313D01*
G37*
G36*
X120562821Y-66325313D02*
X120562824Y-66325314D01*
X120562825Y-66325314D01*
X120723239Y-66373975D01*
X120723241Y-66373976D01*
X120723244Y-66373977D01*
X120871078Y-66452995D01*
X121000659Y-66559341D01*
X121107005Y-66688922D01*
X121186023Y-66836756D01*
X121186024Y-66836759D01*
X121186025Y-66836761D01*
X121234686Y-66997175D01*
X121234686Y-66997178D01*
X121234687Y-66997180D01*
X121247000Y-67122197D01*
X121247000Y-68005804D01*
X121234687Y-68130821D01*
X121234686Y-68130824D01*
X121234686Y-68130825D01*
X121221741Y-68173500D01*
X121186023Y-68291244D01*
X121107005Y-68439078D01*
X121000659Y-68568659D01*
X120871078Y-68675005D01*
X120723243Y-68754023D01*
X120723240Y-68754024D01*
X120723238Y-68754025D01*
X120562824Y-68802686D01*
X120562823Y-68802686D01*
X120562820Y-68802687D01*
X120396000Y-68819117D01*
X120229179Y-68802687D01*
X120229176Y-68802686D01*
X120229175Y-68802686D01*
X120068761Y-68754025D01*
X120068759Y-68754024D01*
X120068756Y-68754023D01*
X119920922Y-68675005D01*
X119791341Y-68568659D01*
X119684995Y-68439078D01*
X119605977Y-68291243D01*
X119557315Y-68130825D01*
X119557314Y-68130824D01*
X119557314Y-68130823D01*
X119557313Y-68130820D01*
X119545000Y-68005803D01*
X119545000Y-67122197D01*
X119557314Y-66997179D01*
X119603235Y-66845797D01*
X119605976Y-66836761D01*
X119605977Y-66836759D01*
X119605978Y-66836756D01*
X119684996Y-66688922D01*
X119791342Y-66559341D01*
X119920923Y-66452995D01*
X120068757Y-66373977D01*
X120068760Y-66373976D01*
X120068762Y-66373975D01*
X120229176Y-66325314D01*
X120229177Y-66325314D01*
X120229180Y-66325313D01*
X120396000Y-66308883D01*
X120562821Y-66325313D01*
X120562821Y-66325313D01*
G37*
G36*
X118022821Y-66325313D02*
X118022824Y-66325314D01*
X118022825Y-66325314D01*
X118183239Y-66373975D01*
X118183241Y-66373976D01*
X118183244Y-66373977D01*
X118331078Y-66452995D01*
X118460659Y-66559341D01*
X118567005Y-66688922D01*
X118646023Y-66836756D01*
X118646024Y-66836759D01*
X118646025Y-66836761D01*
X118694686Y-66997175D01*
X118694686Y-66997178D01*
X118694687Y-66997180D01*
X118707000Y-67122197D01*
X118707000Y-68005804D01*
X118694687Y-68130821D01*
X118694686Y-68130824D01*
X118694686Y-68130825D01*
X118681741Y-68173500D01*
X118646023Y-68291244D01*
X118567005Y-68439078D01*
X118460659Y-68568659D01*
X118331078Y-68675005D01*
X118183243Y-68754023D01*
X118183240Y-68754024D01*
X118183238Y-68754025D01*
X118022824Y-68802686D01*
X118022823Y-68802686D01*
X118022820Y-68802687D01*
X117856000Y-68819117D01*
X117689179Y-68802687D01*
X117689176Y-68802686D01*
X117689175Y-68802686D01*
X117528761Y-68754025D01*
X117528759Y-68754024D01*
X117528756Y-68754023D01*
X117380922Y-68675005D01*
X117251341Y-68568659D01*
X117144995Y-68439078D01*
X117065977Y-68291243D01*
X117017315Y-68130825D01*
X117017314Y-68130824D01*
X117017314Y-68130823D01*
X117017313Y-68130820D01*
X117005000Y-68005803D01*
X117005000Y-67122197D01*
X117017314Y-66997179D01*
X117063235Y-66845797D01*
X117065976Y-66836761D01*
X117065977Y-66836759D01*
X117065978Y-66836756D01*
X117144996Y-66688922D01*
X117251342Y-66559341D01*
X117380923Y-66452995D01*
X117528757Y-66373977D01*
X117528760Y-66373976D01*
X117528762Y-66373975D01*
X117689176Y-66325314D01*
X117689177Y-66325314D01*
X117689180Y-66325313D01*
X117856000Y-66308883D01*
X118022821Y-66325313D01*
X118022821Y-66325313D01*
G37*
G36*
X115482821Y-66325313D02*
X115482824Y-66325314D01*
X115482825Y-66325314D01*
X115643239Y-66373975D01*
X115643241Y-66373976D01*
X115643244Y-66373977D01*
X115791078Y-66452995D01*
X115920659Y-66559341D01*
X116027005Y-66688922D01*
X116106023Y-66836756D01*
X116106024Y-66836759D01*
X116106025Y-66836761D01*
X116154686Y-66997175D01*
X116154686Y-66997178D01*
X116154687Y-66997180D01*
X116167000Y-67122197D01*
X116167000Y-68005804D01*
X116154687Y-68130821D01*
X116154686Y-68130824D01*
X116154686Y-68130825D01*
X116141741Y-68173500D01*
X116106023Y-68291244D01*
X116027005Y-68439078D01*
X115920659Y-68568659D01*
X115791078Y-68675005D01*
X115643243Y-68754023D01*
X115643240Y-68754024D01*
X115643238Y-68754025D01*
X115482824Y-68802686D01*
X115482823Y-68802686D01*
X115482820Y-68802687D01*
X115316000Y-68819117D01*
X115149179Y-68802687D01*
X115149176Y-68802686D01*
X115149175Y-68802686D01*
X114988761Y-68754025D01*
X114988759Y-68754024D01*
X114988756Y-68754023D01*
X114840922Y-68675005D01*
X114711341Y-68568659D01*
X114604995Y-68439078D01*
X114525977Y-68291243D01*
X114477315Y-68130825D01*
X114477314Y-68130824D01*
X114477314Y-68130823D01*
X114477313Y-68130820D01*
X114465000Y-68005803D01*
X114465000Y-67122197D01*
X114477314Y-66997179D01*
X114523235Y-66845797D01*
X114525976Y-66836761D01*
X114525977Y-66836759D01*
X114525978Y-66836756D01*
X114604996Y-66688922D01*
X114711342Y-66559341D01*
X114840923Y-66452995D01*
X114988757Y-66373977D01*
X114988760Y-66373976D01*
X114988762Y-66373975D01*
X115149176Y-66325314D01*
X115149177Y-66325314D01*
X115149180Y-66325313D01*
X115316000Y-66308883D01*
X115482821Y-66325313D01*
X115482821Y-66325313D01*
G37*
G36*
X187110821Y-66325313D02*
X187110824Y-66325314D01*
X187110825Y-66325314D01*
X187271239Y-66373975D01*
X187271241Y-66373976D01*
X187271244Y-66373977D01*
X187419078Y-66452995D01*
X187548659Y-66559341D01*
X187655005Y-66688922D01*
X187734023Y-66836756D01*
X187734024Y-66836759D01*
X187734025Y-66836761D01*
X187782686Y-66997175D01*
X187782686Y-66997178D01*
X187782687Y-66997180D01*
X187795000Y-67122197D01*
X187795000Y-68005804D01*
X187782687Y-68130821D01*
X187782686Y-68130824D01*
X187782686Y-68130825D01*
X187769741Y-68173500D01*
X187734023Y-68291244D01*
X187655005Y-68439078D01*
X187548659Y-68568659D01*
X187419078Y-68675005D01*
X187271243Y-68754023D01*
X187271240Y-68754024D01*
X187271238Y-68754025D01*
X187110824Y-68802686D01*
X187110823Y-68802686D01*
X187110820Y-68802687D01*
X186944000Y-68819117D01*
X186777179Y-68802687D01*
X186777176Y-68802686D01*
X186777175Y-68802686D01*
X186616761Y-68754025D01*
X186616759Y-68754024D01*
X186616756Y-68754023D01*
X186468922Y-68675005D01*
X186339341Y-68568659D01*
X186232995Y-68439078D01*
X186153977Y-68291243D01*
X186105315Y-68130825D01*
X186105314Y-68130824D01*
X186105314Y-68130823D01*
X186105313Y-68130820D01*
X186093000Y-68005803D01*
X186093000Y-67122197D01*
X186105314Y-66997179D01*
X186151235Y-66845797D01*
X186153976Y-66836761D01*
X186153977Y-66836759D01*
X186153978Y-66836756D01*
X186232996Y-66688922D01*
X186339342Y-66559341D01*
X186468923Y-66452995D01*
X186616757Y-66373977D01*
X186616760Y-66373976D01*
X186616762Y-66373975D01*
X186777176Y-66325314D01*
X186777177Y-66325314D01*
X186777180Y-66325313D01*
X186944000Y-66308883D01*
X187110821Y-66325313D01*
X187110821Y-66325313D01*
G37*
G36*
X125642821Y-66325313D02*
X125642824Y-66325314D01*
X125642825Y-66325314D01*
X125803239Y-66373975D01*
X125803241Y-66373976D01*
X125803244Y-66373977D01*
X125951078Y-66452995D01*
X126080659Y-66559341D01*
X126187005Y-66688922D01*
X126266023Y-66836756D01*
X126266024Y-66836759D01*
X126266025Y-66836761D01*
X126314686Y-66997175D01*
X126314686Y-66997178D01*
X126314687Y-66997180D01*
X126327000Y-67122197D01*
X126327000Y-68005804D01*
X126314687Y-68130821D01*
X126314686Y-68130824D01*
X126314686Y-68130825D01*
X126301741Y-68173500D01*
X126266023Y-68291244D01*
X126187005Y-68439078D01*
X126080659Y-68568659D01*
X125951078Y-68675005D01*
X125803243Y-68754023D01*
X125803240Y-68754024D01*
X125803238Y-68754025D01*
X125642824Y-68802686D01*
X125642823Y-68802686D01*
X125642820Y-68802687D01*
X125476000Y-68819117D01*
X125309179Y-68802687D01*
X125309176Y-68802686D01*
X125309175Y-68802686D01*
X125148761Y-68754025D01*
X125148759Y-68754024D01*
X125148756Y-68754023D01*
X125000922Y-68675005D01*
X124871341Y-68568659D01*
X124764995Y-68439078D01*
X124685977Y-68291243D01*
X124637315Y-68130825D01*
X124637314Y-68130824D01*
X124637314Y-68130823D01*
X124637313Y-68130820D01*
X124625000Y-68005803D01*
X124625000Y-67122197D01*
X124637314Y-66997179D01*
X124683235Y-66845797D01*
X124685976Y-66836761D01*
X124685977Y-66836759D01*
X124685978Y-66836756D01*
X124764996Y-66688922D01*
X124871342Y-66559341D01*
X125000923Y-66452995D01*
X125148757Y-66373977D01*
X125148760Y-66373976D01*
X125148762Y-66373975D01*
X125309176Y-66325314D01*
X125309177Y-66325314D01*
X125309180Y-66325313D01*
X125476000Y-66308883D01*
X125642821Y-66325313D01*
X125642821Y-66325313D01*
G37*
G36*
X190335000Y-68815000D02*
X188633000Y-68815000D01*
X188633000Y-66313000D01*
X190335000Y-66313000D01*
X190335000Y-68815000D01*
X190335000Y-68815000D01*
G37*
G36*
X133947000Y-68815000D02*
X132245000Y-68815000D01*
X132245000Y-66313000D01*
X133947000Y-66313000D01*
X133947000Y-68815000D01*
X133947000Y-68815000D01*
G37*
G36*
X94523000Y-68773000D02*
X92421000Y-68773000D01*
X92421000Y-67371000D01*
X94523000Y-67371000D01*
X94523000Y-68773000D01*
X94523000Y-68773000D01*
G37*
G36*
X153838000Y-68599000D02*
X152486000Y-68599000D01*
X152486000Y-66997000D01*
X153838000Y-66997000D01*
X153838000Y-68599000D01*
X153838000Y-68599000D01*
G37*
G36*
X107985000Y-68465000D02*
X105883000Y-68465000D01*
X105883000Y-66663000D01*
X107985000Y-66663000D01*
X107985000Y-68465000D01*
X107985000Y-68465000D01*
G37*
G36*
X111985000Y-68465000D02*
X109883000Y-68465000D01*
X109883000Y-66663000D01*
X111985000Y-66663000D01*
X111985000Y-68465000D01*
X111985000Y-68465000D01*
G37*
G36*
X90523000Y-67973000D02*
X88421000Y-67973000D01*
X88421000Y-65871000D01*
X90523000Y-65871000D01*
X90523000Y-67973000D01*
X90523000Y-67973000D01*
G37*
G36*
X238975993Y-65234203D02*
X239040414Y-65253744D01*
X239099776Y-65285475D01*
X239151817Y-65328183D01*
X239194525Y-65380224D01*
X239226256Y-65439586D01*
X239245797Y-65504007D01*
X239253000Y-65577141D01*
X239253000Y-66502859D01*
X239245797Y-66575993D01*
X239226256Y-66640414D01*
X239194525Y-66699776D01*
X239151817Y-66751817D01*
X239099776Y-66794525D01*
X239040414Y-66826256D01*
X238975993Y-66845797D01*
X238902859Y-66853000D01*
X237601141Y-66853000D01*
X237528007Y-66845797D01*
X237463586Y-66826256D01*
X237404224Y-66794525D01*
X237352183Y-66751817D01*
X237309475Y-66699776D01*
X237277744Y-66640414D01*
X237258203Y-66575993D01*
X237251000Y-66502859D01*
X237251000Y-65577141D01*
X237258203Y-65504007D01*
X237277744Y-65439586D01*
X237309475Y-65380224D01*
X237352183Y-65328183D01*
X237404224Y-65285475D01*
X237463586Y-65253744D01*
X237528007Y-65234203D01*
X237601141Y-65227000D01*
X238902859Y-65227000D01*
X238975993Y-65234203D01*
X238975993Y-65234203D01*
G37*
G36*
X213575993Y-65234203D02*
X213640414Y-65253744D01*
X213699776Y-65285475D01*
X213751817Y-65328183D01*
X213794525Y-65380224D01*
X213826256Y-65439586D01*
X213845797Y-65504007D01*
X213853000Y-65577141D01*
X213853000Y-66502859D01*
X213845797Y-66575993D01*
X213826256Y-66640414D01*
X213794525Y-66699776D01*
X213751817Y-66751817D01*
X213699776Y-66794525D01*
X213640414Y-66826256D01*
X213575993Y-66845797D01*
X213502859Y-66853000D01*
X212201141Y-66853000D01*
X212128007Y-66845797D01*
X212063586Y-66826256D01*
X212004224Y-66794525D01*
X211952183Y-66751817D01*
X211909475Y-66699776D01*
X211877744Y-66640414D01*
X211858203Y-66575993D01*
X211851000Y-66502859D01*
X211851000Y-65577141D01*
X211858203Y-65504007D01*
X211877744Y-65439586D01*
X211909475Y-65380224D01*
X211952183Y-65328183D01*
X212004224Y-65285475D01*
X212063586Y-65253744D01*
X212128007Y-65234203D01*
X212201141Y-65227000D01*
X213502859Y-65227000D01*
X213575993Y-65234203D01*
X213575993Y-65234203D01*
G37*
G36*
X94523000Y-66473000D02*
X92421000Y-66473000D01*
X92421000Y-65071000D01*
X94523000Y-65071000D01*
X94523000Y-66473000D01*
X94523000Y-66473000D01*
G37*
G36*
X153838000Y-66099000D02*
X152486000Y-66099000D01*
X152486000Y-64497000D01*
X153838000Y-64497000D01*
X153838000Y-66099000D01*
X153838000Y-66099000D01*
G37*
G36*
X98333000Y-65925000D02*
X96231000Y-65925000D01*
X96231000Y-64123000D01*
X98333000Y-64123000D01*
X98333000Y-65925000D01*
X98333000Y-65925000D01*
G37*
G36*
X102333000Y-65925000D02*
X100231000Y-65925000D01*
X100231000Y-64123000D01*
X102333000Y-64123000D01*
X102333000Y-65925000D01*
X102333000Y-65925000D01*
G37*
G36*
X80146000Y-65720000D02*
X78844000Y-65720000D01*
X78844000Y-63418000D01*
X80146000Y-63418000D01*
X80146000Y-65720000D01*
X80146000Y-65720000D01*
G37*
G36*
X75586000Y-65720000D02*
X74284000Y-65720000D01*
X74284000Y-63418000D01*
X75586000Y-63418000D01*
X75586000Y-65720000D01*
X75586000Y-65720000D01*
G37*
G36*
X67749000Y-65235000D02*
X65347000Y-65235000D01*
X65347000Y-61633000D01*
X67749000Y-61633000D01*
X67749000Y-65235000D01*
X67749000Y-65235000D01*
G37*
G36*
X180165000Y-64684000D02*
X178563000Y-64684000D01*
X178563000Y-63332000D01*
X180165000Y-63332000D01*
X180165000Y-64684000D01*
X180165000Y-64684000D01*
G37*
G36*
X182665000Y-64684000D02*
X181063000Y-64684000D01*
X181063000Y-63332000D01*
X182665000Y-63332000D01*
X182665000Y-64684000D01*
X182665000Y-64684000D01*
G37*
G36*
X159355000Y-64649000D02*
X158653000Y-64649000D01*
X158653000Y-63047000D01*
X159355000Y-63047000D01*
X159355000Y-64649000D01*
X159355000Y-64649000D01*
G37*
G36*
X163165000Y-64649000D02*
X162463000Y-64649000D01*
X162463000Y-63047000D01*
X163165000Y-63047000D01*
X163165000Y-64649000D01*
X163165000Y-64649000D01*
G37*
G36*
X161895000Y-64649000D02*
X161193000Y-64649000D01*
X161193000Y-63047000D01*
X161895000Y-63047000D01*
X161895000Y-64649000D01*
X161895000Y-64649000D01*
G37*
G36*
X160625000Y-64649000D02*
X159923000Y-64649000D01*
X159923000Y-63047000D01*
X160625000Y-63047000D01*
X160625000Y-64649000D01*
X160625000Y-64649000D01*
G37*
G36*
X156815000Y-64649000D02*
X156113000Y-64649000D01*
X156113000Y-63047000D01*
X156815000Y-63047000D01*
X156815000Y-64649000D01*
X156815000Y-64649000D01*
G37*
G36*
X158085000Y-64649000D02*
X157383000Y-64649000D01*
X157383000Y-63047000D01*
X158085000Y-63047000D01*
X158085000Y-64649000D01*
X158085000Y-64649000D01*
G37*
G36*
X164435000Y-64649000D02*
X163733000Y-64649000D01*
X163733000Y-63047000D01*
X164435000Y-63047000D01*
X164435000Y-64649000D01*
X164435000Y-64649000D01*
G37*
G36*
X114472000Y-64527000D02*
X113620000Y-64527000D01*
X113620000Y-63225000D01*
X114472000Y-63225000D01*
X114472000Y-64527000D01*
X114472000Y-64527000D01*
G37*
G36*
X238975993Y-62694203D02*
X239040414Y-62713744D01*
X239099776Y-62745475D01*
X239151817Y-62788183D01*
X239194525Y-62840224D01*
X239226256Y-62899586D01*
X239245797Y-62964007D01*
X239253000Y-63037141D01*
X239253000Y-63962859D01*
X239245797Y-64035993D01*
X239226256Y-64100414D01*
X239194525Y-64159776D01*
X239151817Y-64211817D01*
X239099776Y-64254525D01*
X239040414Y-64286256D01*
X238975993Y-64305797D01*
X238902859Y-64313000D01*
X237601141Y-64313000D01*
X237528007Y-64305797D01*
X237463586Y-64286256D01*
X237404224Y-64254525D01*
X237352183Y-64211817D01*
X237309475Y-64159776D01*
X237277744Y-64100414D01*
X237258203Y-64035993D01*
X237251000Y-63962859D01*
X237251000Y-63037141D01*
X237258203Y-62964007D01*
X237277744Y-62899586D01*
X237309475Y-62840224D01*
X237352183Y-62788183D01*
X237404224Y-62745475D01*
X237463586Y-62713744D01*
X237528007Y-62694203D01*
X237601141Y-62687000D01*
X238902859Y-62687000D01*
X238975993Y-62694203D01*
X238975993Y-62694203D01*
G37*
G36*
X213575993Y-62694203D02*
X213640414Y-62713744D01*
X213699776Y-62745475D01*
X213751817Y-62788183D01*
X213794525Y-62840224D01*
X213826256Y-62899586D01*
X213845797Y-62964007D01*
X213853000Y-63037141D01*
X213853000Y-63962859D01*
X213845797Y-64035993D01*
X213826256Y-64100414D01*
X213794525Y-64159776D01*
X213751817Y-64211817D01*
X213699776Y-64254525D01*
X213640414Y-64286256D01*
X213575993Y-64305797D01*
X213502859Y-64313000D01*
X212201141Y-64313000D01*
X212128007Y-64305797D01*
X212063586Y-64286256D01*
X212004224Y-64254525D01*
X211952183Y-64211817D01*
X211909475Y-64159776D01*
X211877744Y-64100414D01*
X211858203Y-64035993D01*
X211851000Y-63962859D01*
X211851000Y-63037141D01*
X211858203Y-62964007D01*
X211877744Y-62899586D01*
X211909475Y-62840224D01*
X211952183Y-62788183D01*
X212004224Y-62745475D01*
X212063586Y-62713744D01*
X212128007Y-62694203D01*
X212201141Y-62687000D01*
X213502859Y-62687000D01*
X213575993Y-62694203D01*
X213575993Y-62694203D01*
G37*
G36*
X127265000Y-63185000D02*
X122163000Y-63185000D01*
X122163000Y-59233000D01*
X127265000Y-59233000D01*
X127265000Y-63185000D01*
X127265000Y-63185000D01*
G37*
G36*
X114472000Y-62627000D02*
X113620000Y-62627000D01*
X113620000Y-61325000D01*
X114472000Y-61325000D01*
X114472000Y-62627000D01*
X114472000Y-62627000D01*
G37*
G36*
X213575993Y-60154203D02*
X213640414Y-60173744D01*
X213699776Y-60205475D01*
X213751817Y-60248183D01*
X213794525Y-60300224D01*
X213826256Y-60359586D01*
X213845797Y-60424007D01*
X213853000Y-60497141D01*
X213853000Y-61422859D01*
X213845797Y-61495993D01*
X213826256Y-61560414D01*
X213794525Y-61619776D01*
X213751817Y-61671817D01*
X213699776Y-61714525D01*
X213640414Y-61746256D01*
X213575993Y-61765797D01*
X213502859Y-61773000D01*
X212201141Y-61773000D01*
X212128007Y-61765797D01*
X212063586Y-61746256D01*
X212004224Y-61714525D01*
X211952183Y-61671817D01*
X211909475Y-61619776D01*
X211877744Y-61560414D01*
X211858203Y-61495993D01*
X211851000Y-61422859D01*
X211851000Y-60497141D01*
X211858203Y-60424007D01*
X211877744Y-60359586D01*
X211909475Y-60300224D01*
X211952183Y-60248183D01*
X212004224Y-60205475D01*
X212063586Y-60173744D01*
X212128007Y-60154203D01*
X212201141Y-60147000D01*
X213502859Y-60147000D01*
X213575993Y-60154203D01*
X213575993Y-60154203D01*
G37*
G36*
X238975993Y-60154203D02*
X239040414Y-60173744D01*
X239099776Y-60205475D01*
X239151817Y-60248183D01*
X239194525Y-60300224D01*
X239226256Y-60359586D01*
X239245797Y-60424007D01*
X239253000Y-60497141D01*
X239253000Y-61422859D01*
X239245797Y-61495993D01*
X239226256Y-61560414D01*
X239194525Y-61619776D01*
X239151817Y-61671817D01*
X239099776Y-61714525D01*
X239040414Y-61746256D01*
X238975993Y-61765797D01*
X238902859Y-61773000D01*
X237601141Y-61773000D01*
X237528007Y-61765797D01*
X237463586Y-61746256D01*
X237404224Y-61714525D01*
X237352183Y-61671817D01*
X237309475Y-61619776D01*
X237277744Y-61560414D01*
X237258203Y-61495993D01*
X237251000Y-61422859D01*
X237251000Y-60497141D01*
X237258203Y-60424007D01*
X237277744Y-60359586D01*
X237309475Y-60300224D01*
X237352183Y-60248183D01*
X237404224Y-60205475D01*
X237463586Y-60173744D01*
X237528007Y-60154203D01*
X237601141Y-60147000D01*
X238902859Y-60147000D01*
X238975993Y-60154203D01*
X238975993Y-60154203D01*
G37*
G36*
X80166000Y-61520000D02*
X74264000Y-61520000D01*
X74264000Y-55018000D01*
X80166000Y-55018000D01*
X80166000Y-61520000D01*
X80166000Y-61520000D01*
G37*
G36*
X88323000Y-60287000D02*
X85921000Y-60287000D01*
X85921000Y-56685000D01*
X88323000Y-56685000D01*
X88323000Y-60287000D01*
X88323000Y-60287000D01*
G37*
G36*
X114947000Y-59725000D02*
X113145000Y-59725000D01*
X113145000Y-57623000D01*
X114947000Y-57623000D01*
X114947000Y-59725000D01*
X114947000Y-59725000D01*
G37*
G36*
X106127000Y-58197000D02*
X102025000Y-58197000D01*
X102025000Y-55595000D01*
X106127000Y-55595000D01*
X106127000Y-58197000D01*
X106127000Y-58197000D01*
G37*
G36*
X98127000Y-58197000D02*
X94025000Y-58197000D01*
X94025000Y-55595000D01*
X98127000Y-55595000D01*
X98127000Y-58197000D01*
X98127000Y-58197000D01*
G37*
G36*
X69218399Y-48723499D02*
X70092125Y-49085408D01*
X70878462Y-49610822D01*
X71547178Y-50279538D01*
X72072592Y-51065875D01*
X72434501Y-51939601D01*
X72619000Y-52867141D01*
X72619000Y-53812859D01*
X72434501Y-54740399D01*
X72072592Y-55614125D01*
X71547178Y-56400462D01*
X70878462Y-57069178D01*
X70092125Y-57594592D01*
X69218399Y-57956501D01*
X68290859Y-58141000D01*
X67345141Y-58141000D01*
X66417601Y-57956501D01*
X65543875Y-57594592D01*
X64757538Y-57069178D01*
X64088822Y-56400462D01*
X63563408Y-55614125D01*
X63201499Y-54740399D01*
X63017000Y-53812859D01*
X63017000Y-52867141D01*
X63201499Y-51939601D01*
X63563408Y-51065875D01*
X64088822Y-50279538D01*
X64757538Y-49610822D01*
X65543875Y-49085408D01*
X66417601Y-48723499D01*
X67345141Y-48539000D01*
X68290859Y-48539000D01*
X69218399Y-48723499D01*
X69218399Y-48723499D01*
G37*
G36*
X114947000Y-55725000D02*
X113145000Y-55725000D01*
X113145000Y-53623000D01*
X114947000Y-53623000D01*
X114947000Y-55725000D01*
X114947000Y-55725000D01*
G37*
G36*
X88323000Y-54887000D02*
X85921000Y-54887000D01*
X85921000Y-51285000D01*
X88323000Y-51285000D01*
X88323000Y-54887000D01*
X88323000Y-54887000D01*
G37*
G36*
X127265000Y-53035000D02*
X122163000Y-53035000D01*
X122163000Y-49083000D01*
X127265000Y-49083000D01*
X127265000Y-53035000D01*
X127265000Y-53035000D01*
G37*
M02*
