M48
;DRILL file {KiCad 5.0.2-bee76a0~70~ubuntu18.10.1} date lun. 25 nov. 2019 23:15:29 CET
;FORMAT={-:-/ absolute / inch / decimal}
FMAT,2
INCH,TZ
T1C0.0157
T2C0.0197
T3C0.0276
T4C0.0315
T5C0.0394
T6C0.0630
T7C0.2087
%
G90
G05
T1
X2.7426Y-2.4974
X3.6Y-2.3026
X5.04Y-3.13
X5.07Y-3.19
X5.1Y-3.25
X5.18Y-3.13
X5.18Y-3.19
X5.18Y-3.25
X6.16Y-2.65
X6.26Y-2.65
X6.36Y-2.66
X6.41Y-2.3
X7.86Y-2.31
X7.92Y-2.34
X8.Y-2.36
X8.06Y-2.39
X8.15Y-2.16
X8.23Y-2.35
X8.28Y-2.31
X9.15Y-2.2
T2
X2.52Y-4.15
X2.52Y-4.43
X2.83Y-4.18
X2.83Y-4.43
X3.16Y-4.18
X3.18Y-4.78
X3.35Y-3.11
X3.35Y-3.41
X3.47Y-4.78
X3.71Y-4.78
X3.77Y-4.14
X3.88Y-4.34
X3.88Y-4.44
X3.9Y-3.2
X3.9Y-3.3
X3.9Y-3.4
X3.9Y-3.5
X3.9Y-3.6
X3.9Y-3.7
X3.9Y-3.8
X3.93Y-4.15
X4.Y-3.2
X4.Y-3.8
X4.06Y-4.
X4.06Y-4.08
X4.1Y-3.2
X4.1Y-3.8
X4.15Y-4.71
X4.15Y-4.82
X4.16Y-2.52
X4.2Y-3.2
X4.21Y-4.
X4.21Y-4.08
X4.23Y-4.42
X4.3Y-2.
X4.4Y-2.
X4.42Y-4.23
X4.42Y-4.42
X4.42Y-4.65
X4.42Y-4.82
X4.5Y-2.
X4.53Y-4.23
X4.53Y-4.42
X4.53Y-4.65
X4.53Y-4.82
X4.59Y-2.3
X4.62Y-2.41
X4.7Y-3.2
X4.7Y-3.95
X4.7Y-4.2
X4.7Y-4.3
X4.7Y-4.4
X4.7Y-4.5
X4.7Y-4.6
X4.7Y-4.7
X4.7Y-4.8
X4.8Y-3.3
X4.8Y-4.12
X4.9Y-3.2
X4.9Y-3.95
X4.9Y-4.12
X5.Y-4.12
X5.1Y-3.95
X5.1Y-4.12
X5.2Y-4.12
X5.3Y-2.
X5.3Y-2.1
X5.3Y-2.2
X5.3Y-3.95
X5.3Y-4.12
X5.36Y-2.5
X5.36Y-2.7
X5.4Y-4.12
X5.5Y-2.
X5.5Y-2.2
X5.5Y-2.5
X5.5Y-2.6
X5.5Y-2.7
X5.5Y-3.95
X5.5Y-4.12
X5.6Y-4.12
X5.62Y-2.26
X5.62Y-2.5
X5.62Y-2.7
X5.7Y-3.95
X5.7Y-4.12
X5.75Y-2.26
X5.75Y-2.5
X5.8Y-2.
X5.8Y-2.6
X5.8Y-2.7
X5.8Y-3.3
X5.8Y-4.12
X5.9Y-2.5
X5.9Y-2.6
X5.9Y-2.7
X5.9Y-3.3
X5.9Y-3.5
X5.9Y-3.6
X5.9Y-3.95
X5.9Y-4.12
X6.Y-2.26
X6.Y-2.9
X6.Y-3.
X6.Y-3.31
X6.Y-3.5
X6.Y-3.6
X6.Y-4.12
X6.1Y-2.
X6.1Y-2.26
X6.1Y-3.31
X6.1Y-3.6
X6.1Y-3.95
X6.1Y-4.12
X6.2Y-2.26
X6.2Y-3.3
X6.2Y-4.12
X6.3Y-2.26
X6.3Y-2.26
X6.3Y-2.26
X6.3Y-3.3
X6.3Y-3.95
X6.3Y-4.12
X6.4Y-2.
X6.4Y-3.3
X6.4Y-4.12
X6.44Y-2.85
X6.5Y-3.3
X6.5Y-3.95
X6.5Y-4.12
X6.55Y-2.75
X6.6Y-2.26
X6.6Y-2.6
X6.6Y-4.12
X6.7Y-2.26
X6.7Y-3.95
X6.7Y-4.12
X6.8Y-2.26
X6.8Y-3.2
X6.8Y-3.3
X6.8Y-4.12
X6.9Y-2.26
X6.9Y-3.9
X6.9Y-4.
X6.9Y-4.12
X6.91Y-3.29
X6.91Y-3.79
X7.Y-2.26
X7.Y-4.12
X7.01Y-3.29
X7.01Y-3.95
X7.1Y-2.26
X7.1Y-3.9
X7.1Y-4.
X7.1Y-4.12
X7.11Y-3.29
X7.11Y-3.71
X7.2Y-2.26
X7.2Y-4.12
X7.21Y-3.29
X7.21Y-3.95
X7.25Y-2.82
X7.3Y-2.
X7.3Y-3.2
X7.3Y-3.3
X7.3Y-3.9
X7.3Y-4.
X7.3Y-4.12
X7.3Y-4.2
X7.3Y-4.3
X7.3Y-4.4
X7.3Y-4.6
X7.4Y-2.26
X7.4Y-4.4
X7.5Y-2.26
X7.5Y-4.4
X7.5Y-4.6
X7.56Y-4.06
X7.6Y-2.
X7.6Y-2.26
X7.6Y-2.6
X7.6Y-2.7
X7.6Y-4.4
X7.7Y-2.26
X7.7Y-2.6
X7.7Y-2.7
X7.7Y-4.4
X7.7Y-4.6
X7.8Y-2.6
X7.8Y-2.7
X7.8Y-4.4
X7.9Y-2.
X7.9Y-2.6
X7.9Y-4.4
X7.9Y-4.6
X7.91Y-2.74
X8.Y-2.6
X8.Y-2.7
X8.Y-3.3
X8.Y-3.5
X8.Y-3.7
X8.Y-3.9
X8.1Y-2.6
X8.1Y-2.7
X8.1Y-4.6
X8.2Y-2.
X8.2Y-3.9
X8.2Y-4.4
X8.3Y-4.4
X8.3Y-4.6
X8.4Y-4.4
X8.5Y-2.
X8.6Y-3.6
X8.6Y-3.7
X8.6Y-3.8
X8.6Y-3.9
X8.6Y-4.
X8.6Y-4.1
X8.6Y-4.2
X8.7Y-3.3
X8.7Y-3.5
X8.8Y-2.
X8.8Y-3.5
X8.8Y-3.8
X8.8Y-3.9
X8.8Y-4.
X8.8Y-4.1
X8.8Y-4.2
X8.9Y-3.5
X8.9Y-3.7
X8.9Y-4.5
X9.Y-3.5
X9.Y-3.7
X9.Y-4.
X9.Y-4.2
X9.Y-4.5
X9.1Y-2.
X9.1Y-3.3
X9.1Y-3.5
X9.1Y-3.7
X9.11Y-4.34
X9.2Y-3.5
X9.2Y-3.7
X9.2Y-4.
X9.2Y-4.2
X9.4Y-2.2
X9.5Y-4.5
X9.5Y-4.6
T3
X5.2Y-3.6
X5.225Y-3.5
X5.225Y-3.7
X5.3Y-3.425
X5.3Y-3.775
X5.4Y-3.4
X5.4Y-3.8
X5.5Y-3.425
X5.5Y-3.775
X5.575Y-3.5
X5.575Y-3.7
X5.6Y-3.6
X6.4Y-3.6
X6.425Y-3.5
X6.425Y-3.7
X6.5Y-3.425
X6.5Y-3.775
X6.6Y-3.4
X6.6Y-3.8
X6.7Y-3.425
X6.7Y-3.775
X6.775Y-3.5
X6.775Y-3.7
X6.8Y-3.6
X7.4Y-3.6
X7.425Y-3.5
X7.425Y-3.7
X7.5Y-3.425
X7.5Y-3.775
X7.6Y-3.4
X7.6Y-3.8
X7.7Y-3.425
X7.7Y-3.775
X7.775Y-3.5
X7.775Y-3.7
X7.8Y-3.6
X4.2Y-3.6
X4.225Y-3.5
X4.225Y-3.7
X4.3Y-3.425
X4.3Y-3.775
X4.4Y-3.4
X4.4Y-3.8
X4.5Y-3.425
X4.5Y-3.775
X4.575Y-3.5
X4.575Y-3.7
X4.6Y-3.6
T4
X4.54Y-2.66
X4.54Y-2.96
X4.64Y-2.66
X4.64Y-2.96
X4.74Y-2.66
X4.74Y-2.96
X4.84Y-2.66
X4.84Y-2.96
X4.94Y-2.66
X4.94Y-2.96
X5.04Y-2.66
X5.04Y-2.96
X5.14Y-2.66
X5.14Y-2.96
X5.24Y-2.66
X5.24Y-2.96
X9.2Y-4.66
X9.3Y-4.66
X9.4Y-4.66
X6.76Y-2.66
X6.76Y-2.96
X6.86Y-2.66
X6.86Y-2.96
X6.96Y-2.66
X6.96Y-2.96
X7.06Y-2.66
X7.06Y-2.96
X7.16Y-2.66
X7.16Y-2.96
X7.26Y-2.66
X7.26Y-2.96
X7.36Y-2.66
X7.36Y-2.96
X7.46Y-2.66
X7.46Y-2.96
X8.38Y-2.4
X8.38Y-2.5
X8.38Y-2.6
X8.38Y-2.7
X8.38Y-2.8
X8.38Y-2.9
X8.38Y-3.
X8.38Y-3.1
X8.38Y-3.2
X8.38Y-3.3
X8.38Y-3.4
X8.38Y-3.5
X8.38Y-3.6
X8.38Y-3.7
X8.38Y-3.8
X8.38Y-3.9
X8.38Y-4.
X8.38Y-4.1
X8.38Y-4.2
X9.38Y-2.4
X9.38Y-2.5
X9.38Y-2.6
X9.38Y-2.7
X9.38Y-2.8
X9.38Y-2.9
X9.38Y-3.
X9.38Y-3.1
X9.38Y-3.2
X9.38Y-3.3
X9.38Y-3.4
X9.38Y-3.5
X9.38Y-3.6
X9.38Y-3.7
X9.38Y-3.8
X9.38Y-3.9
X9.38Y-4.
X9.38Y-4.1
X9.38Y-4.2
T5
X2.68Y-3.55
X2.68Y-3.65
T6
X2.8Y-2.7
X4.35Y-2.25
T7
X2.67Y-4.66
X2.67Y-2.1
X8.69Y-4.66
X8.87Y-2.98
T0
M30
